<?xml version="1.0" standalone="no"?>
<!DOCTYPE svg PUBLIC "-//W3C//DTD SVG 1.1//EN" "http://www.w3.org/Graphics/SVG/1.1/DTD/svg11.dtd" >
<svg>
<metadata>
Created by FontForge 20090622 at Tue Dec 11 08:36:37 2018
 By deploy user
Copyright (c) Emigre Inc, 2009. Designed by Zuzana Licko. All rights reserved.
</metadata>
<defs>
<font id="MrsEavesXLSerifOT-Reg" horiz-adv-x="515" >
  <font-face 
    font-family="MrsEavesXLSerifOT"
    font-weight="400"
    font-stretch="normal"
    units-per-em="1000"
    panose-1="2 0 6 3 6 0 0 2 0 4"
    ascent="800"
    descent="-200"
    x-height="432"
    cap-height="600"
    bbox="-139 -254 927 839"
    underline-thickness="31"
    underline-position="-77"
    unicode-range="U+0020-U+FB02"
  />
<missing-glyph horiz-adv-x="500" 
 />
    <glyph glyph-name="fi" unicode="fi" horiz-adv-x="611" 
d="M344 570q0 -18 -12 -31.5t-33 -13.5q-13 0 -22.5 8t-14 18t-13.5 17.5t-21 7.5q-23 -1 -28.5 -30t-5.5 -114h115v-36h-115v-259q0 -74 15 -95.5t66 -21.5v-20h-240v20q51 0 66 21.5t15 95.5v259h-95v36h95q0 94 48 142t114 48q30 0 48 -15.5t18 -36.5zM595 0h-240v20
q51 0 66 21.5t15 95.5v148q0 75 -14.5 96t-66.5 21v20l159 23v-308q0 -74 15 -95.5t66 -21.5v-20zM470 608q20 0 33.5 -14t13.5 -33t-13.5 -33t-33.5 -14t-33.5 14t-13.5 33t13.5 33t33.5 14z" />
    <glyph glyph-name="fl" unicode="fl" horiz-adv-x="588" 
d="M309 432v-36h-115v-259q0 -74 15 -95.5t66 -21.5v-20h-240v20q51 0 66 21.5t15 95.5v259h-95v36h95q0 88 51 139t134 51q29 0 77 -19l113 21v-487q0 -74 14.5 -95.5t61.5 -21.5v-20h-230v20q47 0 61.5 21.5t14.5 95.5v321q0 127 -108 127q-111 0 -111 -145v-8h115z" />
    <glyph glyph-name=".notdef" horiz-adv-x="500" 
 />
    <glyph glyph-name=".null" horiz-adv-x="0" 
 />
    <glyph glyph-name="nonmarkingreturn" horiz-adv-x="333" 
 />
    <glyph glyph-name="space" unicode=" " horiz-adv-x="205" 
 />
    <glyph glyph-name="exclam" unicode="!" horiz-adv-x="270" 
d="M152 160h-34q-5 166 -19 280t-14 126q0 20 15 35.5t35 15.5t35 -15.5t15 -35.5q0 -12 -14 -126t-19 -280zM135 -8q-22 0 -37 15t-15 37t15 37t37 15t37 -15t15 -37t-15 -37t-37 -15z" />
    <glyph glyph-name="quotedbl" unicode="&#x22;" horiz-adv-x="384" 
d="M99 393q-5 63 -22 116t-17 59q0 20 14.5 34.5t33.5 14.5t33.5 -14.5t14.5 -34.5q0 -6 -17.5 -59t-22.5 -116h-17zM266 393q-5 63 -22 116t-17 59q0 19 14.5 34t33.5 15t33.5 -14.5t14.5 -34.5q0 -6 -17.5 -59t-22.5 -116h-17z" />
    <glyph glyph-name="numbersign" unicode="#" horiz-adv-x="407" 
d="M68 94l22 134h-79l12 60h77l20 118h-77l11 61h77l22 133h40l-22 -133h106l22 133h40l-22 -133h79l-12 -61h-78l-20 -118h78l-11 -60h-78l-21 -134h-40l22 134h-107l-21 -134h-40zM140 288h106l20 118h-106z" />
    <glyph glyph-name="dollar" unicode="$" horiz-adv-x="479" 
d="M227 27v248l-59 30q-112 56 -112 163q0 64 48 106.5t123 42.5v66h36v-70q42 -7 83 -37q20 13 29 41h18v-195h-21q-24 125 -109 147v-218l72 -37q109 -57 109 -151q0 -77 -52.5 -126.5t-128.5 -53.5v-71h-36v73q-18 2 -34.5 6t-33 10t-25 10t-23 12t-15.5 8
q-18 -16 -30 -43h-18v215h21q0 -6 1.5 -17t11 -39.5t24.5 -51t47 -43t74 -25.5zM263 26q50 3 83.5 32.5t33.5 74.5q0 64 -117 124v-231zM227 370v204h-8q-42 0 -70.5 -24.5t-28.5 -61.5q0 -36 23.5 -61t83.5 -57z" />
    <glyph glyph-name="percent" unicode="%" horiz-adv-x="655" 
d="M154 -18l-36 18l383 618l36 -18zM174 330q-54 0 -93 42t-39 101t39 101.5t93 42.5q53 0 92 -42.5t39 -101.5q0 -58 -39 -100.5t-92 -42.5zM174 363q32 0 48.5 31t16.5 79q0 49 -16.5 80t-48.5 31q-33 0 -50 -31t-17 -80q0 -48 17 -79t50 -31zM481 -16q-54 0 -93 42
t-39 101t39 101.5t93 42.5q53 0 92 -42.5t39 -101.5q0 -58 -39 -100.5t-92 -42.5zM481 17q32 0 48.5 31t16.5 79q0 49 -16.5 80t-48.5 31q-33 0 -50 -31t-17 -80q0 -48 17 -79t50 -31z" />
    <glyph glyph-name="ampersand" unicode="&#x26;" horiz-adv-x="643" 
d="M234 350q63 35 97 69.5t34 82.5q0 33 -23 54.5t-59 21.5q-47 0 -70.5 -27.5t-23.5 -61.5q0 -63 45 -139zM188 283q-60 -57 -60 -133q0 -51 38 -89.5t98 -38.5q67 0 111 39q-40 38 -96 103.5t-91 118.5zM418 122q14 32 19 68q7 55 -10.5 72.5t-81.5 17.5v21h235v-21
q-62 0 -80.5 -17t-27.5 -73q-8 -52 -29 -94q41 -42 69 -57.5t56 -15.5q40 0 67 35l18 -17q-38 -58 -102 -58q-80 0 -149 55q-55 -55 -146 -55q-86 0 -148 45t-62 130q0 52 32 88.5t89 68.5q-55 90 -55 158q0 62 49.5 103t121.5 41q62 0 106.5 -32.5t44.5 -82.5
q0 -24 -9.5 -44.5t-32 -40t-39 -30.5t-53 -32.5t-50.5 -30.5q48 -68 168 -202z" />
    <glyph glyph-name="quotesingle" unicode="'" horiz-adv-x="221" 
d="M99 393q-5 63 -21.5 116t-16.5 59q0 20 14 34.5t33 14.5t33.5 -14.5t14.5 -34.5q0 -6 -17.5 -59t-22.5 -116h-17z" />
    <glyph glyph-name="parenleft" unicode="(" horiz-adv-x="312" 
d="M277 -111q-205 168 -205 406t204 406l19 -21q-157 -174 -157 -385t157 -385z" />
    <glyph glyph-name="parenright" unicode=")" horiz-adv-x="312" 
d="M36 -111l-19 21q158 175 158 385t-158 385l20 21q203 -168 203 -406q0 -239 -204 -406z" />
    <glyph glyph-name="asterisk" unicode="*" horiz-adv-x="379" 
d="M189 243q-19 0 -32.5 14.5t-13.5 34.5q0 7 17.5 42t19.5 80q-38 -25 -59.5 -58.5t-26.5 -36.5q-17 -10 -36.5 -4.5t-29.5 22.5t-4.5 35.5t22.5 28.5q6 4 45.5 6.5t79.5 22.5q-40 20 -79.5 22.5t-45.5 6.5q-17 11 -22.5 29t4.5 35q11 17 29.5 22.5t36.5 -4.5
q5 -3 26.5 -36.5t59.5 -58.5q-2 45 -19.5 80t-17.5 42q0 20 13.5 34.5t32.5 14.5t34 -14.5t15 -34.5q0 -7 -18 -42.5t-21 -80.5q28 19 45.5 39.5t25.5 35t16 19.5q17 10 35.5 5.5t29.5 -21.5q10 -17 5 -36t-22 -29q-7 -4 -46.5 -6t-79.5 -22q40 -20 80 -21.5t46 -5.5
q17 -11 22 -30t-5 -36q-11 -17 -29.5 -21.5t-35.5 5.5q-8 5 -16.5 19.5t-25.5 35t-46 39.5q3 -45 21.5 -80.5t18.5 -42.5q0 -20 -15 -34.5t-34 -14.5z" />
    <glyph glyph-name="plus" unicode="+" horiz-adv-x="430" 
d="M193 110v157h-157v44h157v157h44v-157h157v-44h-157v-157h-44z" />
    <glyph glyph-name="comma" unicode="," horiz-adv-x="270" 
d="M91 -124l-12 12q52 54 60 110q-2 -1 -9 -1q-20 0 -34 15t-14 36q0 20 14.5 35t34.5 15q23 0 39.5 -16.5t16.5 -48.5q0 -38 -25.5 -83.5t-70.5 -73.5z" />
    <glyph glyph-name="hyphen" unicode="-" horiz-adv-x="390" 
d="M69 227v46h252v-46h-252z" />
    <glyph glyph-name="period" unicode="." horiz-adv-x="270" 
d="M135 -8q-23 0 -38.5 16t-15.5 38t15.5 38t38.5 16t38.5 -16t15.5 -38t-15.5 -38t-38.5 -16z" />
    <glyph glyph-name="slash" unicode="/" horiz-adv-x="320" 
d="M36 -18l-40 14l288 622l40 -14z" />
    <glyph glyph-name="zero" unicode="0" horiz-adv-x="558" 
d="M509 302q0 -140 -65 -228t-165 -88q-98 0 -164 88.5t-66 227.5t66 227t164 88q100 0 165 -87.5t65 -227.5zM279 577q-72 0 -105.5 -75.5t-33.5 -199.5q0 -81 13 -140.5t45 -97.5t81 -38q71 0 105 76t34 200t-34 199.5t-105 75.5z" />
    <glyph glyph-name="one" unicode="1" horiz-adv-x="350" 
d="M215 138q0 -74 17 -95.5t72 -21.5v-21h-259v21q55 0 72 21.5t17 95.5v316q0 70 -22.5 90t-81.5 19v20l185 34v-479z" />
    <glyph glyph-name="two" unicode="2" horiz-adv-x="497" 
d="M46 0v24l171 199q120 139 120 227q0 55 -32 91t-86 36q-46 0 -74.5 -26t-28.5 -65q0 -30 23 -63l-25 -30q-73 40 -73 103q0 50 49 85.5t135 35.5q90 0 144.5 -49.5t54.5 -116.5q0 -54 -34 -105t-108 -128l-144 -151h171q68 0 89.5 14.5t34.5 61.5h21l-27 -143h-381z" />
    <glyph glyph-name="three" unicode="3" horiz-adv-x="512" 
d="M258 288q-7 -6 -18 -18.5t-20.5 -20t-18.5 -7.5q-8 0 -15 6t-7 16q0 18 27 38l78 58q68 51 68 123q0 43 -31 68.5t-82 25.5q-45 0 -78 -26.5t-33 -66.5q0 -25 17 -57l-28 -29q-64 36 -64 93q0 51 50 88.5t136 37.5q80 0 140 -37t60 -97q0 -36 -24.5 -69.5t-48.5 -49.5
l-24 -16l-48 -35q76 -15 120 -57.5t44 -100.5q0 -69 -60.5 -119t-148.5 -50q-86 0 -142.5 35.5t-56.5 69.5q0 31 32 31q11 0 18.5 -9t16 -25t17.5 -25q37 -39 107 -39q62 0 92 36.5t30 94.5q0 48 -25.5 85t-79.5 48z" />
    <glyph glyph-name="four" unicode="4" horiz-adv-x="530" 
d="M352 618v-413h4q65 0 83.5 14.5t30.5 61.5l5 20h20l-11 -133h-132v-30q0 -74 17 -95.5t72 -21.5v-21h-256v21q56 0 72.5 21.5t16.5 95.5v30h-257v19l316 431h19zM274 205v273l-200 -273h200z" />
    <glyph glyph-name="five" unicode="5" horiz-adv-x="493" 
d="M114 347q17 19 52.5 31.5t69.5 12.5q90 0 149 -57.5t59 -144.5q0 -85 -64 -144t-153 -59q-76 0 -126 35.5t-50 70.5q0 30 32 30q13 0 24 -15.5t20 -33.5t35 -33.5t65 -15.5q62 0 94.5 45.5t32.5 119.5t-31.5 117t-95.5 43q-106 0 -123 -98h-39l31 349h322l-13 -75h-276z
" />
    <glyph glyph-name="six" unicode="6" horiz-adv-x="507" 
d="M49 269q0 88 26 165.5t82.5 130t131.5 52.5q61 0 108 -25t47 -54q0 -12 -8 -20.5t-20 -8.5q-13 0 -26.5 11t-24 24t-30.5 24t-46 11q-41 0 -70.5 -20t-46 -57t-24.5 -80t-10 -100q18 24 56.5 41.5t80.5 17.5q84 0 140 -54t56 -143q0 -88 -62 -143t-149 -55q-26 0 -52 6.5
t-55.5 26t-51.5 50t-37 82t-15 118.5zM137 267q0 -131 37 -187.5t86 -56.5q64 0 93.5 44.5t29.5 117.5q0 66 -27.5 111t-85.5 45q-42 0 -83 -22t-50 -52z" />
    <glyph glyph-name="seven" unicode="7" horiz-adv-x="426" 
d="M200 51q-5 -36 -16.5 -51t-32.5 -15q-17 0 -29 11.5t-12 32.5q0 45 35 110l209 386h-190q-45 0 -67.5 -8.5t-29.5 -21.5t-15 -46l-5 -20h-21l29 171h355v-28l-145 -319q-53 -115 -65 -202z" />
    <glyph glyph-name="eight" unicode="8" horiz-adv-x="533" 
d="M279 359q40 21 65 56.5t25 75.5q0 36 -26.5 62.5t-73.5 26.5q-48 0 -75.5 -26.5t-27.5 -62.5q0 -44 29.5 -73.5t83.5 -58.5zM266 23q63 0 101 35t38 83q0 66 -86 120q-18 11 -82 46q-107 -59 -107 -158q0 -54 36.5 -90t99.5 -36zM266 -14q-89 0 -153 47t-64 116
q0 37 12.5 66t37 49.5t48 33.5t57.5 27q-56 33 -87.5 68t-31.5 82q0 61 55 101.5t129 40.5q73 0 125.5 -39.5t52.5 -94.5q0 -48 -36 -80t-99 -60q41 -20 63.5 -32.5t51.5 -35.5t42.5 -52t13.5 -66q0 -74 -64 -122.5t-153 -48.5z" />
    <glyph glyph-name="nine" unicode="9" 
d="M466 334q0 -88 -26 -165.5t-82.5 -130t-131.5 -52.5q-61 0 -108 25t-47 54q0 13 8.5 21t19.5 8q13 0 26.5 -11t24 -24t30.5 -24t46 -11q41 0 70.5 20t46 57t24.5 80t10 100q-18 -24 -56.5 -41.5t-80.5 -17.5q-84 0 -140 54t-56 143q0 88 62 143t149 55q26 0 52 -6.5
t55.5 -26t51.5 -50t37 -82t15 -118.5zM378 336q0 131 -37 187.5t-86 56.5q-64 0 -93.5 -44.5t-29.5 -117.5q0 -66 27.5 -111t85.5 -45q42 0 83 22t50 52z" />
    <glyph glyph-name="colon" unicode=":" horiz-adv-x="270" 
d="M135 -8q-22 0 -37 15t-15 37t15 37t37 15t37 -15t15 -37t-15 -37t-37 -15zM135 326q-22 0 -37 15t-15 37t15 37t37 15t37 -15t15 -37t-15 -37t-37 -15z" />
    <glyph glyph-name="semicolon" unicode=";" horiz-adv-x="270" 
d="M135 326q-22 0 -37 15t-15 37t15 37t37 15t37 -15t15 -37t-15 -37t-37 -15zM94 -119l-11 11q49 53 57 106q-2 -1 -8 -1q-19 0 -33 14.5t-14 34.5t14.5 34t33.5 14q22 0 37.5 -16t15.5 -47q0 -37 -24.5 -80t-67.5 -70z" />
    <glyph glyph-name="less" unicode="&#x3c;" horiz-adv-x="435" 
d="M365 72l-314 218l314 217l22 -32l-256 -185l256 -185z" />
    <glyph glyph-name="equal" unicode="=" horiz-adv-x="430" 
d="M69 330v45h292v-45h-292zM69 205v45h292v-45h-292z" />
    <glyph glyph-name="greater" unicode="&#x3e;" horiz-adv-x="435" 
d="M70 72l-22 33l256 185l-256 185l22 32l314 -217z" />
    <glyph glyph-name="question" unicode="?" horiz-adv-x="470" 
d="M216 -8q-22 0 -37 15t-15 37t15 37t37 15t37 -15t15 -37t-15 -37t-37 -15zM244 334q91 66 91 138q0 47 -31 74.5t-82 27.5q-48 0 -78.5 -23t-30.5 -62q0 -30 17 -56l-28 -29q-63 30 -63 92q0 47 49.5 84t133.5 37q90 0 145 -40t55 -104q0 -82 -129 -164l-54 -34v-115h-46
v137z" />
    <glyph glyph-name="at" unicode="@" horiz-adv-x="680" 
d="M323 56q29 0 55.5 27t33.5 66l31 177q-23 25 -62 25q-42 0 -73.5 -44t-42.5 -107q-11 -64 3 -104t55 -40zM348 -128q-135 0 -229 88t-94 218q0 145 103.5 248t248.5 103q120 0 199.5 -73t79.5 -190q0 -95 -60 -170.5t-126 -75.5q-27 0 -44.5 15t-21.5 36
q-16 -22 -46 -38.5t-53 -16.5q-61 0 -89.5 53.5t-14.5 130.5q13 76 67.5 129.5t117.5 53.5q34 0 64 -17h56l-44 -250q-11 -60 32 -60q41 0 85.5 64.5t44.5 143.5q0 104 -68 165t-164 61q-125 0 -213 -92.5t-88 -216.5q0 -125 74 -200t191 -75q108 0 212 64l11 -18
q-112 -80 -231 -80z" />
    <glyph glyph-name="A" unicode="A" horiz-adv-x="589" 
d="M-52 0v21q59 0 76.5 14.5t42.5 72.5l216 500h23l217 -500q25 -58 42 -72.5t76 -14.5v-21h-282v21q62 0 79.5 17.5t-1.5 58.5l-48 110h-235l-47 -110q-18 -41 -0.5 -58.5t78.5 -17.5v-21h-237zM171 245h201l-100 238z" />
    <glyph glyph-name="B" unicode="B" horiz-adv-x="570" 
d="M298 37h22q62 0 95 37t33 94q0 58 -33 95.5t-95 37.5h-117v-148q0 -75 16.5 -95.5t78.5 -20.5zM203 338h85q54 0 82 31.5t28 80.5t-28 81t-82 32h-85v-225zM24 0v21q62 0 78.5 21t16.5 96v325q0 75 -16.5 95.5t-78.5 20.5v21h269q92 0 142.5 -42.5t50.5 -107.5
q0 -78 -78 -124q58 -18 93 -61t35 -97q0 -73 -57 -120.5t-158 -47.5h-297z" />
    <glyph glyph-name="C" unicode="C" horiz-adv-x="664" 
d="M364 -17q-132 0 -219.5 92.5t-87.5 224.5t87.5 224.5t219.5 92.5q115 0 191 -80q24 18 31 54h18v-220h-20q-21 97 -77 149t-139 52q-57 0 -100.5 -24.5t-67.5 -65.5t-35.5 -87t-11.5 -95t11.5 -95t35.5 -87t67.5 -65.5t100.5 -24.5q83 0 139 52.5t77 148.5h20v-220h-18
q-8 38 -31 54q-77 -80 -191 -80z" />
    <glyph glyph-name="D" unicode="D" horiz-adv-x="695" 
d="M24 0v21q62 0 78.5 21t16.5 96v325q0 75 -16.5 95.5t-78.5 20.5v21h281q166 0 250 -84t84 -216t-84 -216t-250 -84h-281zM292 39h14q56 0 99 16t68.5 41.5t42 61.5t22 70t5.5 72t-5.5 72t-22 70t-42 61.5t-68.5 41.5t-99 16h-103v-406q0 -76 15 -96t74 -20z" />
    <glyph glyph-name="E" unicode="E" horiz-adv-x="555" 
d="M24 0v21q62 0 78.5 21t16.5 96v325q0 75 -16.5 95.5t-78.5 20.5v21h456l9 -134h-21l-5 20q-11 43 -31.5 59t-84.5 16h-144v-224h46q76 0 96 16t20 78h21v-227h-21q0 62 -20 78t-96 16h-46v-145q0 -75 16.5 -94.5t78.5 -19.5h82q64 0 84.5 16.5t31.5 59.5l5 20h21l-8 -135
h-490z" />
    <glyph glyph-name="F" unicode="F" horiz-adv-x="522" 
d="M24 0v21q62 0 78.5 21t16.5 96v325q0 75 -16.5 95.5t-78.5 20.5v21h473l8 -134h-21l-5 20q-11 43 -31.5 59t-83.5 16h-161v-224h46q75 0 95.5 16.5t20.5 79.5h21v-231h-21q0 63 -20.5 79.5t-95.5 16.5h-46v-160q0 -75 16.5 -96t78.5 -21v-21h-274z" />
    <glyph glyph-name="G" unicode="G" horiz-adv-x="707" 
d="M374 -17q-141 0 -229 91.5t-88 225.5q0 132 87.5 224.5t219.5 92.5q115 0 191 -80q24 18 31 54h18v-220h-20q-20 97 -76.5 149t-140.5 52q-57 0 -100.5 -24.5t-67 -65.5t-35 -86.5t-11.5 -95.5q0 -40 6.5 -76.5t22.5 -73t41.5 -63.5t67.5 -43.5t95 -16.5q70 0 117.5 35.5
t47.5 99.5q0 34 -17.5 49.5t-66.5 15.5v21h232v-21q-45 0 -60 -21.5t-15 -94.5v-76q-56 0 -127.5 -26t-122.5 -26z" />
    <glyph glyph-name="H" unicode="H" horiz-adv-x="737" 
d="M24 0v21q62 0 78.5 21t16.5 96v325q0 75 -16.5 95.5t-78.5 20.5v21h274v-21q-62 0 -78.5 -20.5t-16.5 -95.5v-125h331v125q0 75 -17 95.5t-79 20.5v21h276v-21q-63 0 -79.5 -20.5t-16.5 -95.5v-325q0 -76 16.5 -96.5t79.5 -20.5v-21h-276v21q62 0 79 21t17 96v161h-331
v-161q0 -75 16.5 -96t78.5 -21v-21h-274z" />
    <glyph glyph-name="I" unicode="I" horiz-adv-x="322" 
d="M24 0v21q62 0 78.5 21t16.5 96v325q0 75 -16.5 95.5t-78.5 20.5v21h274v-21q-62 0 -78.5 -20.5t-16.5 -95.5v-325q0 -75 16.5 -96t78.5 -21v-21h-274z" />
    <glyph glyph-name="J" unicode="J" horiz-adv-x="318" 
d="M23 -199q-31 0 -50.5 16.5t-19.5 35.5t13 33t35 14t39.5 -27.5t37.5 -27.5q27 0 33 42t6 189v387q0 75 -16.5 95.5t-78.5 20.5v21h274v-21q-62 0 -78.5 -20.5t-16.5 -95.5v-396q0 -138 -52 -202t-126 -64z" />
    <glyph glyph-name="K" unicode="K" horiz-adv-x="687" 
d="M24 0v21q62 0 78.5 21t16.5 96v325q0 75 -16.5 95.5t-78.5 20.5v21h274v-21q-62 0 -78.5 -20.5t-16.5 -95.5v-140l209 175q98 81 4 81v21h234v-21q-55 0 -91 -17t-92 -64l-180 -151l275 -268q25 -24 65.5 -41t63.5 -17v-21h-281v21q96 0 38 58l-218 221l-27 -23v-139
q0 -75 16.5 -96t78.5 -21v-21h-274z" />
    <glyph glyph-name="L" unicode="L" horiz-adv-x="539" 
d="M24 0v21q62 0 78.5 21t16.5 96v325q0 75 -16.5 95.5t-78.5 20.5v21h274v-21q-62 0 -78.5 -20.5t-16.5 -95.5v-308q0 -75 16.5 -95.5t78.5 -20.5h88q63 0 83.5 16.5t31.5 59.5l5 20h21l-8 -135h-495z" />
    <glyph glyph-name="M" unicode="M" horiz-adv-x="843" 
d="M391 -8l-229 502v-356q0 -75 17 -96t79 -21v-21h-234v21q62 0 78.5 21t16.5 96v325q0 75 -16.5 95.5t-78.5 20.5v21h180l220 -485l221 485h175v-21q-63 0 -79.5 -20.5t-16.5 -95.5v-325q0 -76 16.5 -96.5t79.5 -20.5v-21h-274v21q62 0 78.5 21t16.5 96v356l-229 -502h-21
z" />
    <glyph glyph-name="N" unicode="N" horiz-adv-x="697" 
d="M563 -12l-401 483v-333q0 -75 17 -96t79 -21v-21h-234v21q62 0 78.5 21t16.5 96v325q0 75 -16.5 95.5t-78.5 20.5v21h141l378 -455v318q0 75 -16.5 95.5t-78.5 20.5v21h234v-21q-62 0 -79 -20.5t-17 -95.5v-475h-23z" />
    <glyph glyph-name="O" unicode="O" horiz-adv-x="747" 
d="M374 -17q-144 0 -239 92.5t-95 224.5t95 224.5t239 92.5q143 0 238 -92.5t95 -224.5t-95 -224.5t-238 -92.5zM374 24q62 0 109.5 25.5t74 66.5t40 88t13.5 96t-13.5 96t-40 88t-74 66.5t-109.5 25.5t-109.5 -25.5t-74.5 -66.5t-40.5 -88t-13.5 -96t13.5 -96t40.5 -88
t74.5 -66.5t109.5 -25.5z" />
    <glyph glyph-name="P" unicode="P" horiz-adv-x="522" 
d="M24 0v21q62 0 78.5 21t16.5 96v325q0 75 -16.5 95.5t-78.5 20.5v21h264q101 0 158 -48t57 -121t-57 -121t-158 -48h-85v-124q0 -75 16.5 -96t78.5 -21v-21h-274zM203 300h84q62 0 94.5 36.5t32.5 94.5q0 57 -32.5 94t-94.5 37h-84v-262z" />
    <glyph glyph-name="Q" unicode="Q" horiz-adv-x="747" 
d="M643 -253q-42 0 -90 24.5t-84 54t-78 54t-74 24.5q-33 0 -54.5 -10t-29 -22t-16.5 -22.5t-20 -12.5q-14 -2 -24 7t-10 25q0 24 46 61.5t110 56.5q-123 17 -201 106.5t-78 206.5q0 132 95.5 224.5t238.5 92.5q144 0 238.5 -92.5t94.5 -224.5q0 -126 -86 -215.5t-214 -99.5
q-78 -6 -133 -57q62 10 103 4t81.5 -24t70.5 -37t69 -34t78 -15q104 0 159 99l16 -8q-22 -65 -75 -115.5t-133 -50.5zM374 24q62 0 109.5 25.5t74 66.5t40 88t13.5 96t-13.5 96t-40 88t-74 66.5t-109.5 25.5t-109.5 -25.5t-74.5 -66.5t-40.5 -88t-13.5 -96t13.5 -96
t40.5 -88t74.5 -66.5t109.5 -25.5z" />
    <glyph glyph-name="R" unicode="R" horiz-adv-x="596" 
d="M203 300h88q62 0 94.5 36.5t32.5 94.5q0 57 -32.5 94t-94.5 37h-88v-262zM24 0v21q62 0 78.5 21t16.5 96v325q0 75 -16.5 95.5t-78.5 20.5v21h268q101 0 158 -48t57 -121q0 -67 -47.5 -113t-130.5 -55l98 -115q100 -117 186 -127v-21h-165l-198 263h-47v-125
q0 -75 16.5 -96t78.5 -21v-21h-274z" />
    <glyph glyph-name="S" unicode="S" horiz-adv-x="479" 
d="M48 -12v215h20q3 -30 13 -57.5t30 -56t56.5 -46t85.5 -17.5q54 0 89.5 29.5t35.5 74.5q0 41 -28 66t-89 57l-96 49q-109 54 -109 166q0 63 47 106t119 43q68 0 124 -41q22 17 30 41h17v-195h-20q-13 66 -46.5 109t-107.5 43q-42 0 -69.5 -24.5t-27.5 -61.5t26 -61.5
t95 -60.5l95 -49q53 -28 79.5 -69t26.5 -85q0 -80 -55.5 -130t-135.5 -50q-21 0 -42 3.5t-39.5 10.5t-30 12t-27 13l-17.5 9q-18 -13 -31 -43h-18z" />
    <glyph glyph-name="T" unicode="T" horiz-adv-x="553" 
d="M138 0v21q62 0 79 21t17 96v423h-98q-64 0 -84.5 -16t-31.5 -59l-5 -20h-21l9 134h546l9 -134h-21l-5 20q-11 43 -31.5 59t-84.5 16h-98v-423q0 -75 17 -96t79 -21v-21h-276z" />
    <glyph glyph-name="U" unicode="U" horiz-adv-x="688" 
d="M344 -17q-104 0 -172 63.5t-68 176.5v240q0 75 -16.5 95.5t-78.5 20.5v21h274v-21q-62 0 -78.5 -20.5t-16.5 -95.5v-245q0 -92 48 -140t123 -48q79 0 129.5 48.5t50.5 139.5v245q0 75 -17 95.5t-79 20.5v21h238v-21q-62 0 -79 -20.5t-17 -95.5v-240q0 -114 -68.5 -177
t-172.5 -63z" />
    <glyph glyph-name="V" unicode="V" horiz-adv-x="589" 
d="M317 121l164 382q18 41 0.5 58.5t-78.5 17.5v21h237v-21q-59 0 -76.5 -14.5t-42.5 -72.5l-216 -500h-23l-217 500q-25 57 -37 68q-20 19 -80 19v21h281v-21q-62 0 -79.5 -17.5t1.5 -58.5z" />
    <glyph glyph-name="W" unicode="W" horiz-adv-x="860" 
d="M429 438l-160 -446h-23l-181 500q-20 54 -41.5 70.5t-75.5 16.5v21h276v-21q-56 0 -72 -16.5t-1 -59.5l128 -362l162 459h23l160 -459l130 362q17 41 2.5 58.5t-70.5 17.5v21h227v-21q-56 0 -78 -16.5t-41 -70.5l-180 -500h-23z" />
    <glyph glyph-name="X" unicode="X" horiz-adv-x="635" 
d="M301 258l-121 -161q-57 -76 53 -76v-21h-239v21q48 0 81 23t64 64l140 185l-132 199q-30 46 -59.5 66.5t-78.5 20.5v21h287v-21q-59 0 -72 -20.5t13 -55.5l97 -146l109 146q29 35 17.5 55.5t-70.5 20.5v21h238v-21q-30 0 -51 -5t-39 -20.5t-26 -25t-28 -36.5l-127 -170
l141 -214q29 -45 61.5 -66t82.5 -21v-21h-288v21q59 0 69.5 20t-16.5 56z" />
    <glyph glyph-name="Y" unicode="Y" horiz-adv-x="597" 
d="M162 0v21q62 0 78.5 21t16.5 96v104l-162 250q-33 51 -61 69t-80 18v21h285v-21q-59 0 -69.5 -20.5t15.5 -55.5l141 -216l143 216q28 40 17.5 58t-71.5 18v21h233v-21q-41 0 -67 -11t-38.5 -25.5t-36.5 -50.5l-165 -250v-104q0 -75 16.5 -96t78.5 -21v-21h-274z" />
    <glyph glyph-name="Z" unicode="Z" horiz-adv-x="527" 
d="M29 0v23l334 538h-181q-64 0 -84.5 -16t-31.5 -59l-5 -20h-21l9 134h426v-12l-342 -549h222q64 0 84.5 16.5t31.5 59.5l5 20h21l-8 -135h-460z" />
    <glyph glyph-name="bracketleft" unicode="[" horiz-adv-x="306" 
d="M106 -88v766h162v-32h-101v-702h101v-32h-162z" />
    <glyph glyph-name="backslash" unicode="\" horiz-adv-x="320" 
d="M283 -18l-288 622l40 14l288 -622z" />
    <glyph glyph-name="bracketright" unicode="]" horiz-adv-x="306" 
d="M38 -88v32h102v702h-102v32h163v-766h-163z" />
    <glyph glyph-name="asciicircum" unicode="^" horiz-adv-x="457" 
d="M45 323l-17 15l201 279l200 -279l-18 -15l-182 182z" />
    <glyph glyph-name="underscore" unicode="_" horiz-adv-x="330" 
d="M-15 -44v44h360v-44h-360z" />
    <glyph glyph-name="grave" unicode="`" horiz-adv-x="300" 
d="M228 499l-138 58q-7 3 -14.5 11.5t-7.5 18.5q0 12 9 21t21 9q8 0 15 -3t11.5 -7l15.5 -14l92 -87z" />
    <glyph glyph-name="a" unicode="a" horiz-adv-x="476" 
d="M459 26q-30 -33 -79 -33q-60 0 -70 67q-77 -69 -155 -69q-52 0 -83 29t-31 76q0 128 267 172v29q0 56 -18.5 84t-64.5 28q-32 0 -57 -16t-25 -43q0 -16 -10.5 -27t-25.5 -11q-17 0 -27.5 11t-10.5 27q0 37 51 65.5t111 28.5q84 0 119.5 -39t35.5 -109v-222q0 -45 26 -45
q15 0 32 17zM308 93v144q-186 -38 -186 -132q0 -31 16.5 -48.5t47.5 -17.5q61 0 122 54z" />
    <glyph glyph-name="b" unicode="b" horiz-adv-x="549" 
d="M510 216q0 -96 -58 -162t-148 -66q-97 0 -158 87l-46 -87h-22v475q0 75 -14.5 96t-65.5 21v20l158 24v-259q56 79 148 79q90 0 148 -66t58 -162zM423 216q0 81 -35 133.5t-102 52.5q-39 0 -76.5 -27.5t-53.5 -72.5v-172q16 -45 53.5 -72.5t76.5 -27.5q67 0 102 52.5
t35 133.5z" />
    <glyph glyph-name="c" unicode="c" horiz-adv-x="446" 
d="M421 65q-71 -77 -177 -77q-100 0 -153 61.5t-53 157.5q0 103 65 170t148 67q69 0 109.5 -26t40.5 -60q0 -16 -11.5 -31t-36.5 -15q-17 0 -29 12.5t-12 30.5q0 26 -18.5 40.5t-42.5 14.5q-55 0 -90.5 -58t-35.5 -145q0 -79 36.5 -126.5t112.5 -47.5q65 0 126 58z" />
    <glyph glyph-name="d" unicode="d" horiz-adv-x="568" 
d="M550 14l-137 -23q-15 33 -20 75q-59 -78 -149 -78t-148 66t-58 162t58 162t148 66q92 0 148 -79v98q0 75 -14.5 96t-65.5 21v20l158 24v-473q0 -75 14 -96t66 -21v-20zM392 130v172q-16 45 -53 72.5t-76 27.5q-67 0 -102.5 -53t-35.5 -133t35.5 -133t102.5 -53
q39 0 76 27.5t53 72.5z" />
    <glyph glyph-name="e" unicode="e" horiz-adv-x="481" 
d="M443 65q-72 -77 -191 -77q-94 0 -154 65.5t-60 164.5q0 98 65 162t147 64q77 0 128.5 -45.5t51.5 -112.5q0 -17 -5 -39h-301q-2 -18 -2 -28q0 -80 36.5 -133t123.5 -53q77 0 141 58zM352 312q0 40 -28 65.5t-72 25.5t-77.5 -30.5t-46.5 -87.5h222q2 14 2 27z" />
    <glyph glyph-name="f" unicode="f" horiz-adv-x="328" 
d="M344 570q0 -18 -12 -31.5t-33 -13.5q-13 0 -22.5 8t-14 18t-13.5 17.5t-21 7.5q-23 -1 -28.5 -30t-5.5 -114h115v-36h-115v-259q0 -74 15 -95.5t66 -21.5v-20h-240v20q51 0 66 21.5t15 95.5v259h-95v36h95q0 94 48 142t114 48q30 0 48 -15.5t18 -36.5z" />
    <glyph glyph-name="g" unicode="g" horiz-adv-x="484" 
d="M505 389q0 -17 -9.5 -27.5t-25.5 -10.5q-20 0 -33 30q-8 20 -30 20q-18 0 -37 -19q34 -39 34 -89q0 -62 -47 -103.5t-112 -47.5q-87 -9 -115 -17.5t-28 -24.5q0 -30 109 -30q224 0 224 -122q0 -64 -59.5 -105.5t-158.5 -41.5q-97 0 -147.5 30.5t-50.5 74.5
q0 25 22.5 46.5t50.5 26.5l16 -13q-36 -18 -36 -53q0 -31 43 -51t102 -20q71 0 115.5 24t44.5 61q0 71 -173 71q-163 0 -163 80q0 27 29.5 48t75.5 29q-48 18 -76.5 55t-28.5 83q0 65 53 108t129 43q79 0 128 -44q37 44 87 44q32 0 49.5 -16.5t17.5 -38.5zM319 293
q0 52 -26 84.5t-70 32.5t-70.5 -32.5t-26.5 -84.5q0 -50 26.5 -83.5t70.5 -33.5t70 33t26 84z" />
    <glyph glyph-name="h" unicode="h" horiz-adv-x="581" 
d="M574 0h-239v20q50 0 65 21.5t15 95.5v134q0 124 -104 124q-49 0 -93 -40t-44 -96v-122q0 -74 15 -95.5t65 -21.5v-20h-233v20q47 0 61 21.5t14 95.5v326q0 75 -14 96t-66 21v20l158 24v-272q26 37 71 64.5t94 27.5q75 0 114.5 -45.5t39.5 -126.5v-135q0 -74 15 -95.5
t66 -21.5v-20z" />
    <glyph glyph-name="i" unicode="i" horiz-adv-x="283" 
d="M267 0h-240v20q51 0 66 21.5t15 95.5v148q0 75 -14.5 96t-66.5 21v20l159 23v-308q0 -74 15 -95.5t66 -21.5v-20zM142 608q20 0 33.5 -14t13.5 -33t-13.5 -33t-33.5 -14t-33.5 14t-13.5 33t13.5 33t33.5 14z" />
    <glyph glyph-name="j" unicode="j" horiz-adv-x="248" 
d="M174 44q0 -125 -46 -184t-116 -59q-28 0 -47 15t-19 33t12 31.5t33 13.5q13 0 22.5 -8t14 -18t13.5 -17.5t21 -7.5q24 1 29 34t5 147v24v237q0 75 -14.5 96t-65.5 21v20l158 23v-401zM130 608q20 0 33.5 -14t13.5 -33t-13.5 -33t-33.5 -14t-33.5 14t-13.5 33t13.5 33
t33.5 14z" />
    <glyph glyph-name="k" unicode="k" horiz-adv-x="505" 
d="M502 0h-122l-189 216l-17 -12v-67q0 -74 14.5 -95.5t61.5 -21.5v-20h-229v20q46 0 60.5 21.5t14.5 95.5v326q0 75 -14.5 96t-65.5 21v20l158 24v-382l146 115q27 21 19.5 38t-44.5 17v20h202v-20q-54 0 -105 -39l-145 -113l192 -213q24 -27 63 -27v-20z" />
    <glyph glyph-name="l" unicode="l" horiz-adv-x="272" 
d="M251 0h-230v20q47 0 61.5 21.5t14.5 95.5v326q0 75 -14.5 96t-66.5 21v20l159 24v-487q0 -74 14.5 -95.5t61.5 -21.5v-20z" />
    <glyph glyph-name="m" unicode="m" horiz-adv-x="875" 
d="M869 0h-238v20q49 0 64 21.5t15 95.5v134q0 124 -95 124q-48 0 -88 -39.5t-40 -96.5v-122q0 -74 15 -95.5t64 -21.5v-20h-236v20q49 0 64 21.5t15 95.5v134q0 124 -95 124q-48 0 -88 -39.5t-40 -96.5v-122q0 -74 15 -95.5t64 -21.5v-20h-238v20q51 0 66 21.5t15 95.5v148
q0 75 -14 96t-66 21v20l138 23q6 -12 13 -41t7 -52q63 92 156 92q104 0 137 -102q28 46 71 74t92 28q72 0 109 -45.5t37 -126.5v-135q0 -74 15 -95.5t66 -21.5v-20z" />
    <glyph glyph-name="n" unicode="n" horiz-adv-x="593" 
d="M586 0h-239v20q50 0 65 21.5t15 95.5v134q0 124 -104 124q-49 0 -93 -40t-44 -96v-122q0 -74 15 -95.5t65 -21.5v-20h-239v20q51 0 66 21.5t15 95.5v148q0 75 -14 96t-66 21v20l138 23q6 -12 13 -41t7 -52q26 37 71 64.5t94 27.5q75 0 114.5 -45.5t39.5 -126.5v-135
q0 -74 15 -95.5t66 -21.5v-20z" />
    <glyph glyph-name="o" unicode="o" horiz-adv-x="537" 
d="M504 216q0 -95 -69 -163.5t-167 -68.5q-99 0 -167.5 68.5t-68.5 163.5t68.5 163.5t167.5 68.5q98 0 167 -68.5t69 -163.5zM417 216q0 85 -38.5 140t-110.5 55t-110.5 -55t-38.5 -140t38.5 -140t110.5 -55t110.5 55t38.5 140z" />
    <glyph glyph-name="p" unicode="p" horiz-adv-x="567" 
d="M528 216q0 -96 -58 -162t-148 -66q-92 0 -148 79v-121q0 -74 15 -95.5t66 -21.5v-20h-239v20q50 0 65 21.5t15 95.5v339q0 75 -14 96t-65 21v20l137 23q5 -9 12 -35t8 -43q60 77 148 77q90 0 148 -66t58 -162zM441 216q0 81 -35 133.5t-102 52.5q-39 0 -76.5 -27.5
t-53.5 -72.5v-172q16 -45 53.5 -72.5t76.5 -27.5q67 0 102 52.5t35 133.5z" />
    <glyph glyph-name="q" unicode="q" horiz-adv-x="549" 
d="M551 -191h-239v20q50 0 65 21.5t15 95.5v121q-56 -79 -148 -79q-90 0 -148 66t-58 162t58 162t148 66q98 0 159 -87l46 87h21v-498q0 -74 15 -95.5t66 -21.5v-20zM392 130v172q-16 45 -53 72.5t-76 27.5q-67 0 -102.5 -53t-35.5 -133t35.5 -133t102.5 -53q39 0 76 27.5
t53 72.5z" />
    <glyph glyph-name="r" unicode="r" horiz-adv-x="416" 
d="M404 370q0 -50 -43 -50q-15 0 -26 11.5t-11 26.5q0 42 -42 42q-28 0 -62 -43t-34 -105v-115q0 -74 15 -95.5t66 -21.5v-20h-240v20q51 0 66 21.5t15 95.5v148q0 75 -14 96t-66 21v20l138 23q20 -40 20 -93q16 39 53 65.5t73 26.5q47 0 69.5 -24t22.5 -50z" />
    <glyph glyph-name="s" unicode="s" horiz-adv-x="385" 
d="M349 117q0 -57 -40 -93t-106 -36q-70 0 -128 47q-14 -22 -18 -42h-18v159h20q7 -49 47 -87.5t99 -38.5q40 0 59.5 19t19.5 49q0 42 -79 81l-67 32q-90 44 -90 124q0 45 38 79t92 34q72 0 109 -37q13 17 14 32h19v-125h-20q-5 41 -35.5 67.5t-75.5 26.5q-38 0 -56.5 -18.5
t-18.5 -44.5q0 -23 19 -40t65 -38l59 -27q92 -42 92 -123z" />
    <glyph glyph-name="t" unicode="t" horiz-adv-x="332" 
d="M318 54q-53 -64 -124 -64q-104 0 -104 130v276h-65v28q51 11 73 43.5t28 92.5h42v-128h112v-36h-112v-276q0 -83 55 -83q37 0 77 36z" />
    <glyph glyph-name="u" unicode="u" horiz-adv-x="581" 
d="M563 14l-137 -23q-20 40 -20 90q-25 -38 -70.5 -65.5t-94.5 -27.5q-75 0 -115 45.5t-40 126.5v135q0 74 -15 95.5t-65 21.5v20h158v-271q0 -63 27.5 -93.5t76.5 -30.5t93 40t44 96v122q0 74 -15 95.5t-65 21.5v20h158v-281q0 -75 14 -96t66 -21v-20z" />
    <glyph glyph-name="v" unicode="v" horiz-adv-x="468" 
d="M497 412q-62 0 -92 -67l-158 -352h-26l-158 352q-30 67 -88 67v20h219v-20q-41 0 -51.5 -13.5t5.5 -53.5l107 -241l107 241q16 37 6 52t-49 15v20h178v-20z" />
    <glyph glyph-name="w" unicode="w" horiz-adv-x="727" 
d="M756 412q-65 0 -92 -67l-145 -352h-25l-130 315l-131 -315h-25l-145 352q-27 67 -88 67v20h219v-20q-42 0 -51.5 -12t5.5 -55l94 -232l130 319h25l131 -319l94 232q15 40 5.5 53.5t-48.5 13.5v20h177v-20z" />
    <glyph glyph-name="x" unicode="x" horiz-adv-x="522" 
d="M518 0h-253v20q42 0 55 16t-4 36l-76 107l-91 -107q-18 -17 -8.5 -34.5t51.5 -17.5v-20h-187v20q49 0 107 66l107 123l-98 137q-28 39 -52 52.5t-55 13.5v20h241v-20q-39 0 -51.5 -16t5.5 -40l66 -93l80 93q22 22 12.5 39t-51.5 17v20h197v-20q-60 0 -118 -66l-99 -113
l105 -147q27 -38 53.5 -52t63.5 -14v-20z" />
    <glyph glyph-name="y" unicode="y" horiz-adv-x="462" 
d="M491 412q-65 0 -92 -66l-199 -470q-32 -75 -79 -75q-14 0 -25.5 10t-11.5 28q0 24 31 38q59 26 83 88l16 41l-152 340q-17 38 -36.5 52t-50.5 14v20h219v-20q-40 0 -51 -13t4 -53l106 -244l104 244q15 39 4.5 52.5t-47.5 13.5v20h177v-20z" />
    <glyph glyph-name="z" unicode="z" horiz-adv-x="408" 
d="M382 124l-9 -124h-347v19l249 380h-84q-52 0 -79 -8.5t-36 -20.5t-16 -38l-6 -23h-20l9 123h331v-18l-247 -379h98q52 0 79 7.5t36 20t16 38.5l6 23h20z" />
    <glyph glyph-name="braceleft" unicode="{" horiz-adv-x="312" 
d="M264 -111q-66 38 -86.5 79.5t-20.5 145.5q0 48 -8 80.5t-25 49.5t-32.5 25t-40.5 16q-7 2 -10 3v16q54 19 71 33q45 37 45 141t20.5 145.5t86.5 79.5l13 -21q-19 -13 -30.5 -26t-18 -23t-9 -29t-2.5 -31t1 -42.5t1 -50.5q0 -53 -8 -87t-26 -53t-36.5 -28t-49.5 -16
q31 -7 49.5 -16t36.5 -28t26 -53t8 -87q0 -20 -1 -50.5t-1 -42.5t2.5 -31t9 -29t18 -23t30.5 -26z" />
    <glyph glyph-name="bar" unicode="|" horiz-adv-x="246" 
d="M101 -96v782h44v-782h-44z" />
    <glyph glyph-name="braceright" unicode="}" horiz-adv-x="312" 
d="M48 -111l-13 21q19 13 30.5 26t18 23t9 29t2.5 31t-1 42.5t-1 50.5q0 53 8 87t26 53t36.5 28t49.5 16q-31 7 -49.5 16t-36.5 28t-26 53t-8 87q0 20 1 50.5t1 42.5t-2.5 31t-9 29t-18 23t-30.5 26l13 21q66 -38 86.5 -79.5t20.5 -145.5q0 -48 8 -80.5t25 -49.5t32.5 -25
t40.5 -16q7 -2 10 -3v-16q-54 -19 -71 -33q-45 -37 -45 -141t-20.5 -145.5t-86.5 -79.5z" />
    <glyph glyph-name="asciitilde" unicode="~" horiz-adv-x="435" 
d="M286 192q-24 0 -76 30.5t-73 30.5q-38 0 -52 -57h-19q0 113 81 113q25 0 76 -30.5t73 -30.5q38 0 52 57h19q0 -113 -81 -113z" />
    <glyph glyph-name="nbspace" unicode="&#xa0;" horiz-adv-x="205" 
 />
    <glyph glyph-name="exclamdown" unicode="&#xa1;" horiz-adv-x="270" 
d="M135 446q22 0 37 -15t15 -37t-15 -37t-37 -15t-37 15t-15 37t15 37t37 15zM152 278q5 -166 19 -280t14 -126q0 -20 -15 -35.5t-35 -15.5t-35 15.5t-15 35.5q0 12 14 126t19 280h34z" />
    <glyph glyph-name="cent" unicode="&#xa2;" horiz-adv-x="460" 
d="M260 39v-122h-36v124q-85 12 -132.5 71.5t-47.5 145.5q0 88 53.5 151.5t126.5 80.5v127h36v-122h7q69 0 109.5 -26t40.5 -60q0 -16 -11.5 -31t-36.5 -15q-17 0 -29 12.5t-12 30.5q0 26 -18.5 40.5t-42.5 14.5h-7v-375q18 -2 30 -2q65 0 126 58l21 -26q-71 -77 -177 -77z
M224 95v356q-43 -20 -71 -73t-28 -120q0 -58 26 -101t73 -62z" />
    <glyph glyph-name="sterling" unicode="&#xa3;" horiz-adv-x="507" 
d="M24 0v21q62 0 78.5 21t16.5 96v160h-81v35h81v63q0 112 57.5 166.5t139.5 54.5q53 0 86.5 -26.5t33.5 -57.5q0 -38 -35 -38q-19 0 -30 14.5t-14.5 31.5t-17.5 31.5t-40 14.5q-49 0 -74 -44t-25 -147v-63h154v-35h-154v-53q0 -161 -57 -198h183q64 0 84.5 16.5t31.5 59.5
l5 20h21l-9 -143h-435z" />
    <glyph glyph-name="currency" unicode="&#xa4;" horiz-adv-x="546" 
d="M308 -17q-83 0 -146 67.5t-80 177.5h-58v35h54q0 6 -0.5 18t-0.5 19q0 25 1 37h-54v35h58q17 110 80 177.5t146 67.5q85 0 138 -72q23 19 28 52h20v-207h-21q-35 184 -155 184q-126 0 -148 -202h193v-35h-195q-1 -12 -1 -37t1 -37h195v-35h-193q20 -201 148 -201
q119 0 155 183h21v-208h-20q-6 35 -28 53q-51 -72 -138 -72z" />
    <glyph glyph-name="yen" unicode="&#xa5;" horiz-adv-x="577" 
d="M158 0v21q62 0 79 21t17 96v20h-145v35h145v64h-145v35h130l-130 200q-33 50 -62.5 68.5t-81.5 18.5v21h284v-21q-58 0 -68.5 -20.5t15.5 -55.5l117 -187l123 187q28 40 17.5 58t-70.5 18v21h233v-21q-58 0 -84.5 -18.5t-59.5 -68.5l-133 -200h135v-35h-145v-64h145v-35
h-145v-20q0 -75 16.5 -96t78.5 -21v-21h-266z" />
    <glyph glyph-name="brokenbar" unicode="&#xa6;" horiz-adv-x="246" 
d="M101 349v337h44v-337h-44zM101 -96v337h44v-337h-44z" />
    <glyph glyph-name="section" unicode="&#xa7;" horiz-adv-x="470" 
d="M138 338q-33 -28 -33 -75q0 -56 103 -109l86 -44q16 -7 36 -22q34 28 34 75q0 56 -103 109l-86 44q-13 6 -37 22zM364 60q45 -45 45 -102q0 -63 -46.5 -106t-116.5 -43q-78 0 -115 41q-19 -14 -28 -41h-18v183h21q22 -143 143 -143q40 0 67 25.5t27 63.5q0 37 -27 63.5
t-90 57.5l-87 44q-93 47 -93 137q0 72 58 126q-44 46 -44 102q0 63 46.5 106t116.5 43q78 0 115 -41q19 14 28 41h18v-183h-21q-22 143 -143 143q-40 0 -67 -25.5t-27 -63.5q0 -37 27 -63.5t90 -57.5l87 -44q93 -47 93 -137q0 -73 -59 -126z" />
    <glyph glyph-name="dieresis" unicode="&#xa8;" horiz-adv-x="300" 
d="M233 581q17 0 28.5 -11.5t11.5 -28.5q0 -16 -11.5 -27.5t-28.5 -11.5t-28.5 11.5t-11.5 27.5q0 17 11.5 28.5t28.5 11.5zM67 581q17 0 28.5 -11.5t11.5 -28.5q0 -16 -11.5 -27.5t-28.5 -11.5t-28.5 11.5t-11.5 27.5q0 17 11.5 28.5t28.5 11.5z" />
    <glyph glyph-name="copyright" unicode="&#xa9;" horiz-adv-x="665" 
d="M338 -17q-131 0 -224 93t-93 224t93 224t224 93t223.5 -93t92.5 -224t-92.5 -224t-223.5 -93zM338 15q118 0 201.5 83.5t83.5 201.5t-83.5 201.5t-201.5 83.5t-201.5 -83.5t-83.5 -201.5t83.5 -201.5t201.5 -83.5zM350 90q-83 0 -143 61.5t-60 148.5q0 86 60 148t143 62
q32 0 65 -17t54 -42q9 11 16 44h17v-156h-18q-13 64 -48 100.5t-86 36.5q-69 0 -102.5 -54t-33.5 -122t33.5 -122t102.5 -54q51 0 86 37t48 101h18v-157h-17q-6 34 -16 44q-21 -25 -54 -42t-65 -17z" />
    <glyph glyph-name="ordfeminine" unicode="&#xaa;" horiz-adv-x="382" 
d="M299 274q-47 0 -54 48q-58 -50 -117 -50q-41 0 -65 22.5t-24 58.5q0 98 203 131v20q0 42 -13.5 62t-47.5 20q-24 0 -42 -11.5t-18 -30.5q0 -13 -8.5 -22t-21.5 -9t-22 9t-9 22q0 28 39.5 50t86.5 22q119 0 119 -113v-166q0 -32 18 -32q10 0 24 12l13 -16q-23 -27 -61 -27
zM242 457q-137 -29 -137 -97q0 -48 46 -48q45 0 91 39v106z" />
    <glyph glyph-name="guillemotleft" unicode="&#xab;" horiz-adv-x="472" 
d="M415 97l-204 154l204 153l14 -18l-127 -136l127 -135zM290 52l-247 199l247 198l14 -19l-170 -180l170 -179z" />
    <glyph glyph-name="logicalnot" unicode="&#xac;" horiz-adv-x="542" 
d="M401 140v128h-332v44h376v-172h-44z" />
    <glyph glyph-name="registered" unicode="&#xae;" horiz-adv-x="484" 
d="M241 155q-95 0 -163 67.5t-68 163.5t68 163.5t163 67.5q96 0 164 -67.5t68 -163.5t-68 -163.5t-164 -67.5zM216 392h32q24 0 36.5 14t12.5 36t-12.5 36.5t-36.5 14.5h-32v-101zM241 185q95 0 157 75h-84l-85 108h-13v-29q0 -40 8 -52t34 -12v-15h-144v15q32 0 41 12t9 52
v99q0 41 -9 52.5t-41 11.5v14h135q49 0 76.5 -20.5t27.5 -53.5q0 -26 -19.5 -46t-54.5 -27l35 -38q47 -51 86 -56v-12q43 56 43 123q0 83 -59 142t-143 59q-83 0 -142 -59t-59 -142t59 -142t142 -59z" />
    <glyph glyph-name="macron" unicode="&#xaf;" horiz-adv-x="300" 
d="M45 502v35h210v-35h-210z" />
    <glyph glyph-name="degree" unicode="&#xb0;" horiz-adv-x="372" 
d="M185 311q-62 0 -106 44t-44 106q0 61 44.5 105.5t105.5 44.5q62 0 106 -44t44 -106t-44 -106t-106 -44zM185 359q42 0 72 30t30 72t-30 72t-72 30t-71.5 -30t-29.5 -72t29.5 -72t71.5 -30z" />
    <glyph glyph-name="plusminus" unicode="&#xb1;" horiz-adv-x="400" 
d="M21 0v39h358v-39h-358zM178 110v157h-157v44h157v157h44v-157h157v-44h-157v-157h-44z" />
    <glyph glyph-name="twosuperior" unicode="&#xb2;" horiz-adv-x="318" 
d="M278 435l-17 -83h-218v18l96 106q61 68 61 118q0 29 -14.5 47t-42.5 18q-25 0 -39.5 -13t-14.5 -32q0 -17 14 -34l-18 -20q-45 23 -45 59q0 28 28 48t78 20q52 0 83.5 -27.5t31.5 -64.5q0 -29 -19.5 -56.5t-61.5 -68.5l-75 -74h88q36 0 48 7.5t19 31.5h18z" />
    <glyph glyph-name="threesuperior" unicode="&#xb3;" horiz-adv-x="327" 
d="M280 438q0 -38 -35 -65.5t-86 -27.5q-50 0 -82 20t-32 39q0 21 21 21q6 0 10.5 -5t10 -14t10.5 -14q18 -20 58 -20q59 0 59 66q0 56 -49 67l-7 -7t-8.5 -8t-8 -5.5t-8.5 -2.5q-16 0 -16 16q0 10 16 21l27 19q48 34 48 72q0 22 -14 35.5t-40 13.5q-24 0 -41 -13.5
t-17 -32.5q0 -16 10 -30l-20 -20q-39 21 -39 53q0 28 28.5 49.5t78.5 21.5q46 0 81 -21t35 -54q0 -44 -58 -77l-21 -12q40 -7 64.5 -31t24.5 -54z" />
    <glyph glyph-name="acute" unicode="&#xb4;" horiz-adv-x="300" 
d="M73 499l-4 7l92 87q25 24 42 24q12 0 21 -9t9 -21q0 -10 -7.5 -18.5t-14.5 -11.5z" />
    <glyph glyph-name="mu" unicode="&#xb5;" horiz-adv-x="581" 
d="M164 5v-59q0 -74 14.5 -95.5t61.5 -21.5v-20h-230v20q47 0 61.5 21.5t14.5 95.5v349q0 74 -15 95.5t-65 21.5v20h158v-271q0 -63 27.5 -93.5t76.5 -30.5t93 40t44 96v122q0 74 -15 95.5t-65 21.5v20h158v-281q0 -75 14 -96t66 -21v-20l-137 -23q-20 40 -20 90
q-25 -38 -70.5 -65.5t-94.5 -27.5q-45 0 -77 17z" />
    <glyph glyph-name="paragraph" unicode="&#xb6;" horiz-adv-x="485" 
d="M79 -191v21q63 0 79.5 20.5t16.5 95.5v316q-64 7 -107.5 55t-43.5 113q0 70 50 120t120 50h271v-21q-62 0 -79 -20.5t-17 -95.5v-517q0 -75 17 -95.5t79 -20.5v-21h-149v747h-87v-747h-150z" />
    <glyph glyph-name="periodcentered" unicode="&#xb7;" horiz-adv-x="270" 
d="M135 213q-23 0 -38.5 15.5t-15.5 38.5t15.5 38.5t38.5 15.5t38.5 -15.5t15.5 -38.5t-15.5 -38.5t-38.5 -15.5z" />
    <glyph glyph-name="cedilla" unicode="&#xb8;" horiz-adv-x="300" 
d="M84 -244v22q87 19 87 68q0 31 -34 42.5t-69 -1.5v13l105 106h39l-73 -74q31 -2 59 -21.5t28 -54.5q0 -33 -29 -56.5t-57 -32t-56 -11.5z" />
    <glyph glyph-name="onesuperior" unicode="&#xb9;" horiz-adv-x="262" 
d="M216 371v-19h-170v19q32 0 44 11t12 47v168q0 35 -14.5 44.5t-49.5 9.5v16l122 20v-258q0 -36 11.5 -47t44.5 -11z" />
    <glyph glyph-name="ordmasculine" unicode="&#xba;" horiz-adv-x="428" 
d="M214 270q-76 0 -129 50.5t-53 122.5t53 122.5t129 50.5t128.5 -50.5t52.5 -122.5t-53 -122.5t-128 -50.5zM214 582q-54 0 -83 -38.5t-29 -100.5t29 -100.5t83 -38.5t82.5 38t28.5 101q0 62 -28.5 100.5t-82.5 38.5z" />
    <glyph glyph-name="guillemotright" unicode="&#xbb;" horiz-adv-x="472" 
d="M182 52l-14 19l170 179l-170 180l14 19l247 -198zM57 97l-14 18l127 135l-127 136l14 18l204 -153z" />
    <glyph glyph-name="onequarter" unicode="&#xbc;" horiz-adv-x="690" 
d="M159 -18l-36 18l383 618l36 -18zM216 301v-19h-170v19q32 0 44 11t12 47v168q0 35 -14.5 44.5t-49.5 9.5v16l122 20v-258q0 -36 11.5 -47t44.5 -11zM492 116v131l-103 -131h103zM549 116q33 0 42 7.5t17 31.5l4 12h16l-6 -78h-73v-12q0 -38 9 -48.5t41 -10.5v-18h-157v18
q32 0 41 10.5t9 48.5v12h-143v15l183 231h17v-219z" />
    <glyph glyph-name="onehalf" unicode="&#xbd;" horiz-adv-x="705" 
d="M159 -18l-36 18l383 618l36 -18zM656 83l-17 -83h-218v18l96 106q61 68 61 118q0 29 -14.5 47t-42.5 18q-25 0 -39.5 -13t-14.5 -32q0 -17 14 -34l-18 -20q-45 23 -45 59q0 28 28 48t78 20q52 0 83.5 -27.5t31.5 -64.5q0 -29 -19.5 -56t-61.5 -69l-75 -74h88q36 0 48 7.5
t19 31.5h18zM216 301v-19h-170v19q32 0 44 11t12 47v168q0 35 -14.5 44.5t-49.5 9.5v16l122 20v-258q0 -36 11.5 -47t44.5 -11z" />
    <glyph glyph-name="threequarters" unicode="&#xbe;" horiz-adv-x="710" 
d="M179 -18l-36 18l383 618l36 -18zM512 116v131l-103 -131h103zM569 116q33 0 42 7.5t17 31.5l4 12h16l-6 -78h-73v-12q0 -38 9 -48.5t41 -10.5v-18h-157v18q32 0 41 10.5t9 48.5v12h-143v15l183 231h17v-219zM280 368q0 -38 -35 -65.5t-86 -27.5q-50 0 -82 20t-32 39
q0 21 21 21q6 0 10.5 -5t10 -14t10.5 -14q18 -20 58 -20q59 0 59 66q0 56 -49 67l-7 -7t-8.5 -8t-8 -5.5t-8.5 -2.5q-16 0 -16 16q0 10 16 21l27 19q48 34 48 72q0 22 -14 35.5t-40 13.5q-24 0 -41 -13.5t-17 -32.5q0 -16 10 -30l-20 -20q-39 21 -39 53q0 28 28.5 49.5
t78.5 21.5q46 0 81 -21t35 -54q0 -44 -58 -77l-21 -12q40 -7 64.5 -31t24.5 -54z" />
    <glyph glyph-name="questiondown" unicode="&#xbf;" horiz-adv-x="470" 
d="M254 446q22 0 37 -15t15 -37t-15 -37t-37 -15t-37 15t-15 37t15 37t37 15zM226 104q-91 -66 -91 -138q0 -47 31 -74.5t82 -27.5q48 0 78.5 23t30.5 62q0 30 -17 56l28 29q63 -30 63 -92q0 -47 -49.5 -84t-133.5 -37q-90 0 -145 40t-55 104q0 84 129 164l54 34v115h46
v-137z" />
    <glyph glyph-name="Agrave" unicode="&#xc0;" horiz-adv-x="589" 
d="M-52 0v21q59 0 76.5 14.5t42.5 72.5l216 500h23l217 -500q25 -58 42 -72.5t76 -14.5v-21h-282v21q62 0 79.5 17.5t-1.5 58.5l-48 110h-235l-47 -110q-18 -41 -0.5 -58.5t78.5 -17.5v-21h-237zM171 245h201l-100 238zM332 671l-138 58q-7 3 -14.5 11.5t-7.5 18.5
q0 12 9 21t21 9q8 0 15 -3t11.5 -7l15.5 -14l92 -87z" />
    <glyph glyph-name="Aacute" unicode="&#xc1;" horiz-adv-x="589" 
d="M-52 0v21q59 0 76.5 14.5t42.5 72.5l216 500h23l217 -500q25 -58 42 -72.5t76 -14.5v-21h-282v21q62 0 79.5 17.5t-1.5 58.5l-48 110h-235l-47 -110q-18 -41 -0.5 -58.5t78.5 -17.5v-21h-237zM171 245h201l-100 238zM257 671l-4 7l92 87q25 24 42 24q12 0 21 -9t9 -21
q0 -10 -7.5 -18.5t-14.5 -11.5z" />
    <glyph glyph-name="Acircumflex" unicode="&#xc2;" horiz-adv-x="589" 
d="M-52 0v21q59 0 76.5 14.5t42.5 72.5l216 500h23l217 -500q25 -58 42 -72.5t76 -14.5v-21h-282v21q62 0 79.5 17.5t-1.5 58.5l-48 110h-235l-47 -110q-18 -41 -0.5 -58.5t78.5 -17.5v-21h-237zM171 245h201l-100 238zM188 674l-13 11l119 130l119 -130l-13 -11l-106 76z
" />
    <glyph glyph-name="Atilde" unicode="&#xc3;" horiz-adv-x="589" 
d="M-52 0v21q59 0 76.5 14.5t42.5 72.5l216 500h23l217 -500q25 -58 42 -72.5t76 -14.5v-21h-282v21q62 0 79.5 17.5t-1.5 58.5l-48 110h-235l-47 -110q-18 -41 -0.5 -58.5t78.5 -17.5v-21h-237zM171 245h201l-100 238zM350 678q-20 0 -62 26t-60 26q-32 0 -43 -48h-16
q0 94 68 94q21 0 63 -26t59 -26q32 0 43 48h16q0 -94 -68 -94z" />
    <glyph glyph-name="Adieresis" unicode="&#xc4;" horiz-adv-x="589" 
d="M-52 0v21q59 0 76.5 14.5t42.5 72.5l216 500h23l217 -500q25 -58 42 -72.5t76 -14.5v-21h-282v21q62 0 79.5 17.5t-1.5 58.5l-48 110h-235l-47 -110q-18 -41 -0.5 -58.5t78.5 -17.5v-21h-237zM171 245h201l-100 238zM377 753q17 0 28.5 -11.5t11.5 -28.5
q0 -16 -11.5 -27.5t-28.5 -11.5t-28.5 11.5t-11.5 27.5q0 17 11.5 28.5t28.5 11.5zM211 753q17 0 28.5 -11.5t11.5 -28.5q0 -16 -11.5 -27.5t-28.5 -11.5t-28.5 11.5t-11.5 27.5q0 17 11.5 28.5t28.5 11.5z" />
    <glyph glyph-name="Aring" unicode="&#xc5;" horiz-adv-x="589" 
d="M-52 0v21q59 0 76.5 14.5t42.5 72.5l216 500h23l217 -500q25 -58 42 -72.5t76 -14.5v-21h-282v21q62 0 79.5 17.5t-1.5 58.5l-48 110h-235l-47 -110q-18 -41 -0.5 -58.5t78.5 -17.5v-21h-237zM171 245h201l-100 238zM294 839q34 0 58.5 -24.5t24.5 -58.5t-24 -58t-59 -24
t-59 24t-24 58t24.5 58.5t58.5 24.5zM294 805q-20 0 -34.5 -14.5t-14.5 -34.5t14.5 -34t34.5 -14t34.5 14t14.5 34t-14.5 34.5t-34.5 14.5z" />
    <glyph glyph-name="AE" unicode="&#xc6;" horiz-adv-x="770" 
d="M188 245h156v302zM-60 0v21q55 0 81.5 17t54.5 70l254 492h365l9 -134h-21l-5 20q-11 43 -31.5 59t-84.5 16h-134v-224h48q73 0 88.5 14.5t15.5 79.5h21v-227h-21q0 65 -15.5 79.5t-88.5 14.5h-48v-145q0 -76 14.5 -95t76.5 -19h76q64 0 84.5 16.5t31.5 59.5l5 20h21
l-8 -135h-480v21q62 0 78.5 21t16.5 96v70h-175l-57 -111q-23 -42 -9.5 -59t71.5 -17v-21h-234z" />
    <glyph glyph-name="Ccedilla" unicode="&#xc7;" horiz-adv-x="664" 
d="M342 -16q-124 8 -204.5 98.5t-80.5 217.5q0 132 87.5 224.5t219.5 92.5q115 0 191 -80q24 18 31 54h18v-220h-20q-21 97 -77 149t-139 52q-57 0 -100.5 -24.5t-67.5 -65.5t-35.5 -87t-11.5 -95t11.5 -95t35.5 -87t67.5 -65.5t100.5 -24.5q83 0 139 52.5t77 148.5h20v-220
h-18q-8 38 -31 54q-71 -74 -174 -79l-61 -62q31 -2 59 -21.5t28 -54.5q0 -33 -29 -56.5t-57 -32t-56 -11.5v22q87 19 87 68q0 31 -34 42.5t-69 -1.5v13z" />
    <glyph glyph-name="Egrave" unicode="&#xc8;" horiz-adv-x="555" 
d="M335 671l-138 58q-7 3 -14.5 11.5t-7.5 18.5q0 12 9 21t21 9q17 0 42 -24l92 -87zM24 0v21q62 0 78.5 21t16.5 96v325q0 75 -16.5 95.5t-78.5 20.5v21h456l9 -134h-21l-5 20q-11 43 -31.5 59t-84.5 16h-144v-224h46q76 0 96 16t20 78h21v-227h-21q0 62 -20 78t-96 16h-46
v-145q0 -75 16.5 -94.5t78.5 -19.5h82q64 0 84.5 16.5t31.5 59.5l5 20h21l-8 -135h-490z" />
    <glyph glyph-name="Eacute" unicode="&#xc9;" horiz-adv-x="555" 
d="M240 671l-4 7l92 87l15.5 14t11.5 7t15 3q12 0 21 -9t9 -21q0 -10 -7.5 -18.5t-14.5 -11.5zM24 0v21q62 0 78.5 21t16.5 96v325q0 75 -16.5 95.5t-78.5 20.5v21h456l9 -134h-21l-5 20q-11 43 -31.5 59t-84.5 16h-144v-224h46q76 0 96 16t20 78h21v-227h-21q0 62 -20 78
t-96 16h-46v-145q0 -75 16.5 -94.5t78.5 -19.5h82q64 0 84.5 16.5t31.5 59.5l5 20h21l-8 -135h-490z" />
    <glyph glyph-name="Ecircumflex" unicode="&#xca;" horiz-adv-x="555" 
d="M171 674l-13 11l119 130l119 -130l-13 -11l-106 76zM24 0v21q62 0 78.5 21t16.5 96v325q0 75 -16.5 95.5t-78.5 20.5v21h456l9 -134h-21l-5 20q-11 43 -31.5 59t-84.5 16h-144v-224h46q76 0 96 16t20 78h21v-227h-21q0 62 -20 78t-96 16h-46v-145q0 -75 16.5 -94.5
t78.5 -19.5h82q64 0 84.5 16.5t31.5 59.5l5 20h21l-8 -135h-490z" />
    <glyph glyph-name="Edieresis" unicode="&#xcb;" horiz-adv-x="555" 
d="M370 753q16 0 28 -11.5t12 -28.5q0 -16 -11.5 -27.5t-28.5 -11.5t-28.5 11.5t-11.5 27.5q0 17 12 28.5t28 11.5zM204 753q16 0 28 -11.5t12 -28.5q0 -16 -11.5 -27.5t-28.5 -11.5t-28.5 11.5t-11.5 27.5q0 17 12 28.5t28 11.5zM24 0v21q62 0 78.5 21t16.5 96v325
q0 75 -16.5 95.5t-78.5 20.5v21h456l9 -134h-21l-5 20q-11 43 -31.5 59t-84.5 16h-144v-224h46q76 0 96 16t20 78h21v-227h-21q0 62 -20 78t-96 16h-46v-145q0 -75 16.5 -94.5t78.5 -19.5h82q64 0 84.5 16.5t31.5 59.5l5 20h21l-8 -135h-490z" />
    <glyph glyph-name="Igrave" unicode="&#xcc;" horiz-adv-x="322" 
d="M219 671l-138 58q-7 3 -14.5 11.5t-7.5 18.5q0 12 9 21t21 9q17 0 42 -24l92 -87zM24 0v21q62 0 78.5 21t16.5 96v325q0 75 -16.5 95.5t-78.5 20.5v21h274v-21q-62 0 -78.5 -20.5t-16.5 -95.5v-325q0 -75 16.5 -96t78.5 -21v-21h-274z" />
    <glyph glyph-name="Iacute" unicode="&#xcd;" horiz-adv-x="322" 
d="M104 671l-4 7l92 87q25 24 42 24q12 0 21 -9t9 -21q0 -10 -7.5 -18.5t-14.5 -11.5zM24 0v21q62 0 78.5 21t16.5 96v325q0 75 -16.5 95.5t-78.5 20.5v21h274v-21q-62 0 -78.5 -20.5t-16.5 -95.5v-325q0 -75 16.5 -96t78.5 -21v-21h-274z" />
    <glyph glyph-name="Icircumflex" unicode="&#xce;" horiz-adv-x="322" 
d="M55 674l-13 11l119 130l119 -130l-13 -11l-106 76zM24 0v21q62 0 78.5 21t16.5 96v325q0 75 -16.5 95.5t-78.5 20.5v21h274v-21q-62 0 -78.5 -20.5t-16.5 -95.5v-325q0 -75 16.5 -96t78.5 -21v-21h-274z" />
    <glyph glyph-name="Idieresis" unicode="&#xcf;" horiz-adv-x="322" 
d="M244 753q16 0 28 -11.5t12 -28.5q0 -16 -11.5 -27.5t-28.5 -11.5t-28.5 11.5t-11.5 27.5q0 17 12 28.5t28 11.5zM78 753q16 0 28 -11.5t12 -28.5q0 -16 -11.5 -27.5t-28.5 -11.5t-28.5 11.5t-11.5 27.5q0 17 12 28.5t28 11.5zM24 0v21q62 0 78.5 21t16.5 96v325
q0 75 -16.5 95.5t-78.5 20.5v21h274v-21q-62 0 -78.5 -20.5t-16.5 -95.5v-325q0 -75 16.5 -96t78.5 -21v-21h-274z" />
    <glyph glyph-name="Eth" unicode="&#xd0;" horiz-adv-x="695" 
d="M203 324h111v-45h-111v-124q0 -76 15 -96t74 -20h14q56 0 99 16t68.5 41.5t42 61.5t22 70t5.5 72t-5.5 72t-22 70t-42 61.5t-68.5 41.5t-99 16h-103v-237zM119 279h-96v45h96v139q0 75 -16.5 95.5t-78.5 20.5v21h281q166 0 250 -84t84 -216t-84 -216t-250 -84h-281v21
q62 0 78.5 21t16.5 96v141z" />
    <glyph glyph-name="Ntilde" unicode="&#xd1;" horiz-adv-x="697" 
d="M563 -12l-401 483v-333q0 -75 17 -96t79 -21v-21h-234v21q62 0 78.5 21t16.5 96v325q0 75 -16.5 95.5t-78.5 20.5v21h141l378 -455v318q0 75 -16.5 95.5t-78.5 20.5v21h234v-21q-62 0 -79 -20.5t-17 -95.5v-475h-23zM404 678q-20 0 -62 26t-60 26q-32 0 -43 -48h-16
q0 94 68 94q21 0 63 -26t59 -26q32 0 43 48h16q0 -94 -68 -94z" />
    <glyph glyph-name="Ograve" unicode="&#xd2;" horiz-adv-x="747" 
d="M374 -17q-144 0 -239 92.5t-95 224.5t95 224.5t239 92.5q143 0 238 -92.5t95 -224.5t-95 -224.5t-238 -92.5zM432 671l-138 58q-7 3 -14.5 11.5t-7.5 18.5q0 12 9 21t21 9q8 0 15 -3t11.5 -7l15.5 -14l92 -87zM374 24q62 0 109.5 25.5t74 66.5t40 88t13.5 96t-13.5 96
t-40 88t-74 66.5t-109.5 25.5t-109.5 -25.5t-74.5 -66.5t-40.5 -88t-13.5 -96t13.5 -96t40.5 -88t74.5 -66.5t109.5 -25.5z" />
    <glyph glyph-name="Oacute" unicode="&#xd3;" horiz-adv-x="747" 
d="M374 -17q-144 0 -239 92.5t-95 224.5t95 224.5t239 92.5q143 0 238 -92.5t95 -224.5t-95 -224.5t-238 -92.5zM317 671l-4 7l92 87q25 24 42 24q12 0 21 -9t9 -21q0 -10 -7.5 -18.5t-14.5 -11.5zM374 24q62 0 109.5 25.5t74 66.5t40 88t13.5 96t-13.5 96t-40 88t-74 66.5
t-109.5 25.5t-109.5 -25.5t-74.5 -66.5t-40.5 -88t-13.5 -96t13.5 -96t40.5 -88t74.5 -66.5t109.5 -25.5z" />
    <glyph glyph-name="Ocircumflex" unicode="&#xd4;" horiz-adv-x="747" 
d="M374 -17q-144 0 -239 92.5t-95 224.5t95 224.5t239 92.5q143 0 238 -92.5t95 -224.5t-95 -224.5t-238 -92.5zM268 674l-13 11l119 130l119 -130l-13 -11l-106 76zM374 24q62 0 109.5 25.5t74 66.5t40 88t13.5 96t-13.5 96t-40 88t-74 66.5t-109.5 25.5t-109.5 -25.5
t-74.5 -66.5t-40.5 -88t-13.5 -96t13.5 -96t40.5 -88t74.5 -66.5t109.5 -25.5z" />
    <glyph glyph-name="Otilde" unicode="&#xd5;" horiz-adv-x="747" 
d="M374 -17q-144 0 -239 92.5t-95 224.5t95 224.5t239 92.5q143 0 238 -92.5t95 -224.5t-95 -224.5t-238 -92.5zM430 678q-20 0 -62 26t-60 26q-32 0 -43 -48h-16q0 94 68 94q21 0 63 -26t59 -26q32 0 43 48h16q0 -94 -68 -94zM374 24q62 0 109.5 25.5t74 66.5t40 88
t13.5 96t-13.5 96t-40 88t-74 66.5t-109.5 25.5t-109.5 -25.5t-74.5 -66.5t-40.5 -88t-13.5 -96t13.5 -96t40.5 -88t74.5 -66.5t109.5 -25.5z" />
    <glyph glyph-name="Odieresis" unicode="&#xd6;" horiz-adv-x="747" 
d="M374 -17q-144 0 -239 92.5t-95 224.5t95 224.5t239 92.5q143 0 238 -92.5t95 -224.5t-95 -224.5t-238 -92.5zM457 753q17 0 28.5 -11.5t11.5 -28.5q0 -16 -11.5 -27.5t-28.5 -11.5t-28.5 11.5t-11.5 27.5q0 17 11.5 28.5t28.5 11.5zM291 753q17 0 28.5 -11.5t11.5 -28.5
q0 -16 -11.5 -27.5t-28.5 -11.5t-28.5 11.5t-11.5 27.5q0 17 11.5 28.5t28.5 11.5zM374 24q62 0 109.5 25.5t74 66.5t40 88t13.5 96t-13.5 96t-40 88t-74 66.5t-109.5 25.5t-109.5 -25.5t-74.5 -66.5t-40.5 -88t-13.5 -96t13.5 -96t40.5 -88t74.5 -66.5t109.5 -25.5z" />
    <glyph glyph-name="multiply" unicode="&#xd7;" horiz-adv-x="430" 
d="M95 138l-31 31l120 120l-120 119l32 31l119 -119l119 119l31 -31l-119 -119l120 -120l-32 -31l-119 120z" />
    <glyph glyph-name="Oslash" unicode="&#xd8;" horiz-adv-x="747" 
d="M216 84l285 456q-52 36 -127 36q-62 0 -109.5 -25.5t-74.5 -66.5t-40.5 -88t-13.5 -96q0 -136 80 -216zM532 514l-284 -455q52 -35 126 -35q62 0 109.5 25.5t74 66.5t40 88t13.5 96q0 136 -79 214zM563 564q67 -43 105.5 -113t38.5 -151q0 -132 -95 -224.5t-238 -92.5
q-82 0 -153 33l-37 -59l-35 20l37 58q-68 43 -107 113t-39 152q0 132 95 224.5t239 92.5q83 0 154 -34l37 60l35 -20z" />
    <glyph glyph-name="Ugrave" unicode="&#xd9;" horiz-adv-x="688" 
d="M344 -17q-104 0 -172 63.5t-68 176.5v240q0 75 -16.5 95.5t-78.5 20.5v21h274v-21q-62 0 -78.5 -20.5t-16.5 -95.5v-245q0 -92 48 -140t123 -48q79 0 129.5 48.5t50.5 139.5v245q0 75 -17 95.5t-79 20.5v21h238v-21q-62 0 -79 -20.5t-17 -95.5v-240q0 -114 -68.5 -177
t-172.5 -63zM392 671l-138 58q-7 3 -14.5 11.5t-7.5 18.5q0 12 9 21t21 9q8 0 15 -3t11.5 -7l15.5 -14l92 -87z" />
    <glyph glyph-name="Uacute" unicode="&#xda;" horiz-adv-x="688" 
d="M344 -17q-104 0 -172 63.5t-68 176.5v240q0 75 -16.5 95.5t-78.5 20.5v21h274v-21q-62 0 -78.5 -20.5t-16.5 -95.5v-245q0 -92 48 -140t123 -48q79 0 129.5 48.5t50.5 139.5v245q0 75 -17 95.5t-79 20.5v21h238v-21q-62 0 -79 -20.5t-17 -95.5v-240q0 -114 -68.5 -177
t-172.5 -63zM307 671l-4 7l92 87q25 24 42 24q12 0 21 -9t9 -21q0 -10 -7.5 -18.5t-14.5 -11.5z" />
    <glyph glyph-name="Ucircumflex" unicode="&#xdb;" horiz-adv-x="688" 
d="M344 -17q-104 0 -172 63.5t-68 176.5v240q0 75 -16.5 95.5t-78.5 20.5v21h274v-21q-62 0 -78.5 -20.5t-16.5 -95.5v-245q0 -92 48 -140t123 -48q79 0 129.5 48.5t50.5 139.5v245q0 75 -17 95.5t-79 20.5v21h238v-21q-62 0 -79 -20.5t-17 -95.5v-240q0 -114 -68.5 -177
t-172.5 -63zM248 674l-13 11l119 130l119 -130l-13 -11l-106 76z" />
    <glyph glyph-name="Udieresis" unicode="&#xdc;" horiz-adv-x="688" 
d="M344 -17q-104 0 -172 63.5t-68 176.5v240q0 75 -16.5 95.5t-78.5 20.5v21h274v-21q-62 0 -78.5 -20.5t-16.5 -95.5v-245q0 -92 48 -140t123 -48q79 0 129.5 48.5t50.5 139.5v245q0 75 -17 95.5t-79 20.5v21h238v-21q-62 0 -79 -20.5t-17 -95.5v-240q0 -114 -68.5 -177
t-172.5 -63zM437 753q17 0 28.5 -11.5t11.5 -28.5q0 -16 -11.5 -27.5t-28.5 -11.5t-28.5 11.5t-11.5 27.5q0 17 11.5 28.5t28.5 11.5zM271 753q17 0 28.5 -11.5t11.5 -28.5q0 -16 -11.5 -27.5t-28.5 -11.5t-28.5 11.5t-11.5 27.5q0 17 11.5 28.5t28.5 11.5z" />
    <glyph glyph-name="Yacute" unicode="&#xdd;" horiz-adv-x="597" 
d="M162 0v21q62 0 78.5 21t16.5 96v104l-162 250q-33 51 -61 69t-80 18v21h285v-21q-59 0 -69.5 -20.5t15.5 -55.5l141 -216l143 216q28 40 17.5 58t-71.5 18v21h233v-21q-41 0 -67 -11t-38.5 -25.5t-36.5 -50.5l-165 -250v-104q0 -75 16.5 -96t78.5 -21v-21h-274zM261 671
l-4 7l92 87q25 24 42 24q12 0 21 -9t9 -21q0 -10 -7.5 -18.5t-14.5 -11.5z" />
    <glyph glyph-name="Thorn" unicode="&#xde;" horiz-adv-x="522" 
d="M203 185h84q63 0 95 34.5t32 91.5t-32 91.5t-95 34.5h-84v-252zM119 475q-1 67 -18 85.5t-77 18.5v21h274v-21q-60 0 -77 -18.5t-18 -85.5h85q101 0 158 -46t57 -118t-57 -118t-158 -46h-85v-9q0 -75 16.5 -96t78.5 -21v-21h-274v21q62 0 78.5 21t16.5 96v337z" />
    <glyph glyph-name="germandbls" unicode="&#xdf;" horiz-adv-x="507" 
d="M233 -17v146h21q0 -38 32 -75t82 -37q26 0 43.5 16t17.5 47q0 36 -55 77l-56 41q-67 48 -67 111q0 31 14.5 57.5t32 42.5t32 43t14.5 60t-21 52.5t-55 19.5q-42 0 -68 -37t-26 -118v-429h-150v21q50 0 64.5 21t14.5 96v175h-79v20q45 0 62 17t17 79q0 95 49 141.5
t117 46.5q59 0 97.5 -32.5t38.5 -80.5q0 -25 -9.5 -45.5t-23.5 -34l-28 -26.5t-23.5 -31.5t-9.5 -40.5q0 -21 13.5 -37t47.5 -41l48 -36q69 -51 69 -113q0 -53 -36.5 -84.5t-87.5 -31.5q-18 0 -37.5 7t-31.5 13.5t-22.5 10t-15 -3.5t-4.5 -27h-21z" />
    <glyph glyph-name="agrave" unicode="&#xe0;" horiz-adv-x="476" 
d="M459 26q-30 -33 -79 -33q-60 0 -70 67q-77 -69 -155 -69q-52 0 -83 29t-31 76q0 128 267 172v29q0 56 -18.5 84t-64.5 28q-32 0 -57 -16t-25 -43q0 -16 -10.5 -27t-25.5 -11q-17 0 -27.5 11t-10.5 27q0 37 51 65.5t111 28.5q84 0 119.5 -39t35.5 -109v-222q0 -45 26 -45
q15 0 32 17zM308 93v144q-186 -38 -186 -132q0 -31 16.5 -48.5t47.5 -17.5q61 0 122 54zM296 499l-138 58q-7 3 -14.5 11.5t-7.5 18.5q0 12 9 21t21 9q8 0 15 -3t11.5 -7l15.5 -14l92 -87z" />
    <glyph glyph-name="aacute" unicode="&#xe1;" horiz-adv-x="476" 
d="M459 26q-30 -33 -79 -33q-60 0 -70 67q-77 -69 -155 -69q-52 0 -83 29t-31 76q0 128 267 172v29q0 56 -18.5 84t-64.5 28q-32 0 -57 -16t-25 -43q0 -16 -10.5 -27t-25.5 -11q-17 0 -27.5 11t-10.5 27q0 37 51 65.5t111 28.5q84 0 119.5 -39t35.5 -109v-222q0 -45 26 -45
q15 0 32 17zM308 93v144q-186 -38 -186 -132q0 -31 16.5 -48.5t47.5 -17.5q61 0 122 54zM161 499l-4 7l92 87q25 24 42 24q12 0 21 -9t9 -21q0 -10 -7.5 -18.5t-14.5 -11.5z" />
    <glyph glyph-name="acircumflex" unicode="&#xe2;" horiz-adv-x="476" 
d="M459 26q-30 -33 -79 -33q-60 0 -70 67q-77 -69 -155 -69q-52 0 -83 29t-31 76q0 128 267 172v29q0 56 -18.5 84t-64.5 28q-32 0 -57 -16t-25 -43q0 -16 -10.5 -27t-25.5 -11q-17 0 -27.5 11t-10.5 27q0 37 51 65.5t111 28.5q84 0 119.5 -39t35.5 -109v-222q0 -45 26 -45
q15 0 32 17zM308 93v144q-186 -38 -186 -132q0 -31 16.5 -48.5t47.5 -17.5q61 0 122 54zM122 502l-13 11l119 130l119 -130l-13 -11l-106 76z" />
    <glyph glyph-name="atilde" unicode="&#xe3;" horiz-adv-x="476" 
d="M459 26q-30 -33 -79 -33q-60 0 -70 67q-77 -69 -155 -69q-52 0 -83 29t-31 76q0 128 267 172v29q0 56 -18.5 84t-64.5 28q-32 0 -57 -16t-25 -43q0 -16 -10.5 -27t-25.5 -11q-17 0 -27.5 11t-10.5 27q0 37 51 65.5t111 28.5q84 0 119.5 -39t35.5 -109v-222q0 -45 26 -45
q15 0 32 17zM308 93v144q-186 -38 -186 -132q0 -31 16.5 -48.5t47.5 -17.5q61 0 122 54zM284 506q-20 0 -62 26t-60 26q-32 0 -43 -48h-16q0 94 68 94q21 0 63 -26t59 -26q32 0 43 48h16q0 -94 -68 -94z" />
    <glyph glyph-name="adieresis" unicode="&#xe4;" horiz-adv-x="476" 
d="M459 26q-30 -33 -79 -33q-60 0 -70 67q-77 -69 -155 -69q-52 0 -83 29t-31 76q0 128 267 172v29q0 56 -18.5 84t-64.5 28q-32 0 -57 -16t-25 -43q0 -16 -10.5 -27t-25.5 -11q-17 0 -27.5 11t-10.5 27q0 37 51 65.5t111 28.5q84 0 119.5 -39t35.5 -109v-222q0 -45 26 -45
q15 0 32 17zM308 93v144q-186 -38 -186 -132q0 -31 16.5 -48.5t47.5 -17.5q61 0 122 54zM311 581q17 0 28.5 -11.5t11.5 -28.5q0 -16 -11.5 -27.5t-28.5 -11.5t-28.5 11.5t-11.5 27.5q0 17 11.5 28.5t28.5 11.5zM145 581q17 0 28.5 -11.5t11.5 -28.5q0 -16 -11.5 -27.5
t-28.5 -11.5t-28.5 11.5t-11.5 27.5q0 17 11.5 28.5t28.5 11.5z" />
    <glyph glyph-name="aring" unicode="&#xe5;" horiz-adv-x="476" 
d="M459 26q-30 -33 -79 -33q-60 0 -70 67q-77 -69 -155 -69q-52 0 -83 29t-31 76q0 128 267 172v29q0 56 -18.5 84t-64.5 28q-32 0 -57 -16t-25 -43q0 -16 -10.5 -27t-25.5 -11q-17 0 -27.5 11t-10.5 27q0 37 51 65.5t111 28.5q84 0 119.5 -39t35.5 -109v-222q0 -45 26 -45
q15 0 32 17zM308 93v144q-186 -38 -186 -132q0 -31 16.5 -48.5t47.5 -17.5q61 0 122 54zM228 667q34 0 58.5 -24.5t24.5 -58.5t-24 -58t-59 -24t-59 24t-24 58t24.5 58.5t58.5 24.5zM228 633q-20 0 -34.5 -14.5t-14.5 -34.5t14.5 -34t34.5 -14t34.5 14t14.5 34t-14.5 34.5
t-34.5 14.5z" />
    <glyph glyph-name="ae" unicode="&#xe6;" horiz-adv-x="751" 
d="M370 377q62 67 150 67q77 0 128.5 -45.5t51.5 -112.5q0 -17 -5 -39h-301q-2 -18 -2 -28q0 -80 36.5 -133t123.5 -53q77 0 141 58l20 -26q-72 -77 -191 -77q-114 0 -176 93q-98 -90 -191 -90q-52 0 -83 29t-31 76q0 128 267 172v29q0 56 -18.5 84t-64.5 28q-32 0 -57 -16
t-25 -43q0 -16 -10.5 -27t-25.5 -11q-17 0 -27.5 11t-10.5 27q0 37 51 65.5t111 28.5q107 0 139 -67zM308 237q-186 -38 -186 -132q0 -31 16.5 -48.5t47.5 -17.5q70 0 143 74q-21 47 -21 105v19zM622 312q0 40 -28 65.5t-72 25.5t-77.5 -30.5t-46.5 -87.5h222q2 14 2 27z
" />
    <glyph glyph-name="ccedilla" unicode="&#xe7;" horiz-adv-x="446" 
d="M229 -12q-93 5 -142 66t-49 153q0 103 65 170t148 67q69 0 109.5 -26t40.5 -60q0 -16 -11.5 -31t-36.5 -15q-17 0 -29 12.5t-12 30.5q0 26 -18.5 40.5t-42.5 14.5q-55 0 -90.5 -58t-35.5 -145q0 -79 36.5 -126.5t112.5 -47.5q65 0 126 58l21 -26q-62 -67 -153 -76
l-14 -15l-28 -28l-14 -14q31 -2 59 -21.5t28 -54.5q0 -33 -29 -56.5t-57 -32t-56 -11.5v22q87 19 87 68q0 31 -34 42.5t-69 -1.5v13z" />
    <glyph glyph-name="egrave" unicode="&#xe8;" horiz-adv-x="481" 
d="M443 65q-72 -77 -191 -77q-94 0 -154 65.5t-60 164.5q0 98 65 162t147 64q77 0 128.5 -45.5t51.5 -112.5q0 -17 -5 -39h-301q-2 -18 -2 -28q0 -80 36.5 -133t123.5 -53q77 0 141 58zM352 312q0 40 -28 65.5t-72 25.5t-77.5 -30.5t-46.5 -87.5h222q2 14 2 27zM308 499
l-138 58q-7 3 -14.5 11.5t-7.5 18.5q0 12 9 21t21 9q8 0 15 -3t11.5 -7l15.5 -14l92 -87z" />
    <glyph glyph-name="eacute" unicode="&#xe9;" horiz-adv-x="481" 
d="M443 65q-72 -77 -191 -77q-94 0 -154 65.5t-60 164.5q0 98 65 162t147 64q77 0 128.5 -45.5t51.5 -112.5q0 -17 -5 -39h-301q-2 -18 -2 -28q0 -80 36.5 -133t123.5 -53q77 0 141 58zM352 312q0 40 -28 65.5t-72 25.5t-77.5 -30.5t-46.5 -87.5h222q2 14 2 27zM173 499
l-4 7l92 87q25 24 42 24q12 0 21 -9t9 -21q0 -10 -7.5 -18.5t-14.5 -11.5z" />
    <glyph glyph-name="ecircumflex" unicode="&#xea;" horiz-adv-x="481" 
d="M443 65q-72 -77 -191 -77q-94 0 -154 65.5t-60 164.5q0 98 65 162t147 64q77 0 128.5 -45.5t51.5 -112.5q0 -17 -5 -39h-301q-2 -18 -2 -28q0 -80 36.5 -133t123.5 -53q77 0 141 58zM352 312q0 40 -28 65.5t-72 25.5t-77.5 -30.5t-46.5 -87.5h222q2 14 2 27zM134 502
l-13 11l119 130l119 -130l-13 -11l-106 76z" />
    <glyph glyph-name="edieresis" unicode="&#xeb;" horiz-adv-x="481" 
d="M443 65q-72 -77 -191 -77q-94 0 -154 65.5t-60 164.5q0 98 65 162t147 64q77 0 128.5 -45.5t51.5 -112.5q0 -17 -5 -39h-301q-2 -18 -2 -28q0 -80 36.5 -133t123.5 -53q77 0 141 58zM352 312q0 40 -28 65.5t-72 25.5t-77.5 -30.5t-46.5 -87.5h222q2 14 2 27zM323 581
q17 0 28.5 -11.5t11.5 -28.5q0 -16 -11.5 -27.5t-28.5 -11.5t-28.5 11.5t-11.5 27.5q0 17 11.5 28.5t28.5 11.5zM157 581q17 0 28.5 -11.5t11.5 -28.5q0 -16 -11.5 -27.5t-28.5 -11.5t-28.5 11.5t-11.5 27.5q0 17 11.5 28.5t28.5 11.5z" />
    <glyph glyph-name="igrave" unicode="&#xec;" horiz-adv-x="283" 
d="M267 0h-240v20q51 0 66 21.5t15 95.5v148q0 75 -14.5 96t-66.5 21v20l159 23v-308q0 -74 15 -95.5t66 -21.5v-20zM199 499l-138 58q-7 3 -14.5 11.5t-7.5 18.5q0 12 9 21t21 9q17 0 42 -24l92 -87z" />
    <glyph glyph-name="iacute" unicode="&#xed;" horiz-adv-x="283" 
d="M267 0h-240v20q51 0 66 21.5t15 95.5v148q0 75 -14.5 96t-66.5 21v20l159 23v-308q0 -74 15 -95.5t66 -21.5v-20zM64 499l-4 7l92 87l15.5 14t11.5 7t15 3q12 0 21 -9t9 -21q0 -10 -7.5 -18.5t-14.5 -11.5z" />
    <glyph glyph-name="icircumflex" unicode="&#xee;" horiz-adv-x="283" 
d="M267 0h-240v20q51 0 66 21.5t15 95.5v148q0 75 -14.5 96t-66.5 21v20l159 23v-308q0 -74 15 -95.5t66 -21.5v-20zM30 502l-13 11l119 130l119 -130l-13 -11l-106 76z" />
    <glyph glyph-name="idieresis" unicode="&#xef;" horiz-adv-x="283" 
d="M267 0h-240v20q51 0 66 21.5t15 95.5v148q0 75 -14.5 96t-66.5 21v20l159 23v-308q0 -74 15 -95.5t66 -21.5v-20zM219 581q17 0 28.5 -11.5t11.5 -28.5q0 -16 -11.5 -27.5t-28.5 -11.5t-28.5 11.5t-11.5 27.5q0 17 11.5 28.5t28.5 11.5zM53 581q17 0 28.5 -11.5
t11.5 -28.5q0 -16 -11.5 -27.5t-28.5 -11.5t-28.5 11.5t-11.5 27.5q0 17 11.5 28.5t28.5 11.5z" />
    <glyph glyph-name="eth" unicode="&#xf0;" horiz-adv-x="537" 
d="M417 216q0 84 -38.5 138t-110.5 54t-110.5 -54t-38.5 -138q0 -85 38.5 -138.5t110.5 -53.5t110.5 53.5t38.5 138.5zM363 424q-28 33 -109 98l-93 -56l-18 31l81 49q-28 22 -71 47l26 29q49 -29 83 -53l87 52l19 -31l-76 -45q113 -84 162.5 -155.5t49.5 -168.5
q0 -100 -68.5 -168.5t-167.5 -68.5t-167.5 68.5t-68.5 163.5t68.5 163.5t167.5 68.5q52 0 95 -24z" />
    <glyph glyph-name="ntilde" unicode="&#xf1;" horiz-adv-x="593" 
d="M586 0h-239v20q50 0 65 21.5t15 95.5v134q0 124 -104 124q-49 0 -93 -40t-44 -96v-122q0 -74 15 -95.5t65 -21.5v-20h-239v20q51 0 66 21.5t15 95.5v148q0 75 -14 96t-66 21v20l138 23q6 -12 13 -41t7 -52q26 37 71 64.5t94 27.5q75 0 114.5 -45.5t39.5 -126.5v-135
q0 -74 15 -95.5t66 -21.5v-20zM352 506q-20 0 -62 26t-60 26q-32 0 -43 -48h-16q0 94 68 94q21 0 63 -26t59 -26q32 0 43 48h16q0 -94 -68 -94z" />
    <glyph glyph-name="ograve" unicode="&#xf2;" horiz-adv-x="537" 
d="M504 216q0 -95 -69 -163.5t-167 -68.5q-99 0 -167.5 68.5t-68.5 163.5t68.5 163.5t167.5 68.5q98 0 167 -68.5t69 -163.5zM326 499l-138 58q-7 3 -14.5 11.5t-7.5 18.5q0 12 9 21t21 9q8 0 15 -3t11.5 -7l15.5 -14l92 -87zM417 216q0 85 -38.5 140t-110.5 55t-110.5 -55
t-38.5 -140t38.5 -140t110.5 -55t110.5 55t38.5 140z" />
    <glyph glyph-name="oacute" unicode="&#xf3;" horiz-adv-x="537" 
d="M504 216q0 -95 -69 -163.5t-167 -68.5q-99 0 -167.5 68.5t-68.5 163.5t68.5 163.5t167.5 68.5q98 0 167 -68.5t69 -163.5zM211 499l-4 7l92 87q25 24 42 24q12 0 21 -9t9 -21q0 -10 -7.5 -18.5t-14.5 -11.5zM417 216q0 85 -38.5 140t-110.5 55t-110.5 -55t-38.5 -140
t38.5 -140t110.5 -55t110.5 55t38.5 140z" />
    <glyph glyph-name="ocircumflex" unicode="&#xf4;" horiz-adv-x="537" 
d="M504 216q0 -95 -69 -163.5t-167 -68.5q-99 0 -167.5 68.5t-68.5 163.5t68.5 163.5t167.5 68.5q98 0 167 -68.5t69 -163.5zM162 502l-13 11l119 130l119 -130l-13 -11l-106 76zM417 216q0 85 -38.5 140t-110.5 55t-110.5 -55t-38.5 -140t38.5 -140t110.5 -55t110.5 55
t38.5 140z" />
    <glyph glyph-name="otilde" unicode="&#xf5;" horiz-adv-x="537" 
d="M504 216q0 -95 -69 -163.5t-167 -68.5q-99 0 -167.5 68.5t-68.5 163.5t68.5 163.5t167.5 68.5q98 0 167 -68.5t69 -163.5zM324 506q-20 0 -62.5 26t-59.5 26q-32 0 -43 -48h-16q0 94 68 94q21 0 63 -26t59 -26q32 0 43 48h16q0 -94 -68 -94zM417 216q0 85 -38.5 140
t-110.5 55t-110.5 -55t-38.5 -140t38.5 -140t110.5 -55t110.5 55t38.5 140z" />
    <glyph glyph-name="odieresis" unicode="&#xf6;" horiz-adv-x="537" 
d="M504 216q0 -95 -69 -163.5t-167 -68.5q-99 0 -167.5 68.5t-68.5 163.5t68.5 163.5t167.5 68.5q98 0 167 -68.5t69 -163.5zM351 581q17 0 28.5 -11.5t11.5 -28.5q0 -16 -11.5 -27.5t-28.5 -11.5t-28.5 11.5t-11.5 27.5q0 17 11.5 28.5t28.5 11.5zM185 581q17 0 28.5 -11.5
t11.5 -28.5q0 -16 -11.5 -27.5t-28.5 -11.5t-28.5 11.5t-11.5 27.5q0 17 11.5 28.5t28.5 11.5zM417 216q0 85 -38.5 140t-110.5 55t-110.5 -55t-38.5 -140t38.5 -140t110.5 -55t110.5 55t38.5 140z" />
    <glyph glyph-name="divide" unicode="&#xf7;" horiz-adv-x="430" 
d="M36 268v44h358v-44h-358zM214 105q-19 0 -32.5 14t-13.5 34t13.5 34.5t32.5 14.5q20 0 34.5 -15t14.5 -34t-14.5 -33.5t-34.5 -14.5zM214 379q-19 0 -32.5 14.5t-13.5 33.5q0 20 13.5 34.5t32.5 14.5q20 0 34.5 -15t14.5 -34t-15 -33.5t-34 -14.5z" />
    <glyph glyph-name="oslash" unicode="&#xf8;" horiz-adv-x="537" 
d="M378 356l-191 -310q33 -25 81 -25q72 0 110.5 55t38.5 140q0 88 -39 140zM158 75l191 310q-34 26 -81 26q-72 0 -110.5 -55t-38.5 -140q0 -87 39 -141zM129 28q-45 33 -71 82.5t-26 105.5q0 95 68.5 163.5t167.5 68.5q54 0 104 -24l32 51l35 -20l-32 -51q45 -33 71 -82.5
t26 -105.5q0 -95 -69 -163.5t-167 -68.5q-54 0 -105 24l-31 -51l-35 20z" />
    <glyph glyph-name="ugrave" unicode="&#xf9;" horiz-adv-x="581" 
d="M563 14l-137 -23q-20 40 -20 90q-25 -38 -70.5 -65.5t-94.5 -27.5q-75 0 -115 45.5t-40 126.5v135q0 74 -15 95.5t-65 21.5v20h158v-271q0 -63 27.5 -93.5t76.5 -30.5t93 40t44 96v122q0 74 -15 95.5t-65 21.5v20h158v-281q0 -75 14 -96t66 -21v-20zM328 499l-138 58
q-7 3 -14.5 11.5t-7.5 18.5q0 12 9 21t21 9q8 0 15 -3t11.5 -7l15.5 -14l92 -87z" />
    <glyph glyph-name="uacute" unicode="&#xfa;" horiz-adv-x="581" 
d="M563 14l-137 -23q-20 40 -20 90q-25 -38 -70.5 -65.5t-94.5 -27.5q-75 0 -115 45.5t-40 126.5v135q0 74 -15 95.5t-65 21.5v20h158v-271q0 -63 27.5 -93.5t76.5 -30.5t93 40t44 96v122q0 74 -15 95.5t-65 21.5v20h158v-281q0 -75 14 -96t66 -21v-20zM223 499l-4 7l92 87
q25 24 42 24q12 0 21 -9t9 -21q0 -10 -7.5 -18.5t-14.5 -11.5z" />
    <glyph glyph-name="ucircumflex" unicode="&#xfb;" horiz-adv-x="581" 
d="M563 14l-137 -23q-20 40 -20 90q-25 -38 -70.5 -65.5t-94.5 -27.5q-75 0 -115 45.5t-40 126.5v135q0 74 -15 95.5t-65 21.5v20h158v-271q0 -63 27.5 -93.5t76.5 -30.5t93 40t44 96v122q0 74 -15 95.5t-65 21.5v20h158v-281q0 -75 14 -96t66 -21v-20zM174 502l-13 11
l119 130l119 -130l-13 -11l-106 76z" />
    <glyph glyph-name="udieresis" unicode="&#xfc;" horiz-adv-x="581" 
d="M563 14l-137 -23q-20 40 -20 90q-25 -38 -70.5 -65.5t-94.5 -27.5q-75 0 -115 45.5t-40 126.5v135q0 74 -15 95.5t-65 21.5v20h158v-271q0 -63 27.5 -93.5t76.5 -30.5t93 40t44 96v122q0 74 -15 95.5t-65 21.5v20h158v-281q0 -75 14 -96t66 -21v-20zM363 581
q17 0 28.5 -11.5t11.5 -28.5q0 -16 -11.5 -27.5t-28.5 -11.5t-28.5 11.5t-11.5 27.5q0 17 11.5 28.5t28.5 11.5zM197 581q17 0 28.5 -11.5t11.5 -28.5q0 -16 -11.5 -27.5t-28.5 -11.5t-28.5 11.5t-11.5 27.5q0 17 11.5 28.5t28.5 11.5z" />
    <glyph glyph-name="yacute" unicode="&#xfd;" horiz-adv-x="462" 
d="M491 412q-65 0 -92 -66l-199 -470q-32 -75 -79 -75q-14 0 -25.5 10t-11.5 28q0 24 31 38q59 26 83 88l16 41l-152 340q-17 38 -36.5 52t-50.5 14v20h219v-20q-40 0 -51 -13t4 -53l106 -244l104 244q15 39 4.5 52.5t-47.5 13.5v20h177v-20zM196 499l-4 7l92 87l15.5 14
t11.5 7t15 3q12 0 21 -9t9 -21q0 -10 -7.5 -18.5t-14.5 -11.5z" />
    <glyph glyph-name="thorn" unicode="&#xfe;" horiz-adv-x="549" 
d="M423 216q0 81 -35 133.5t-102 52.5q-39 0 -76.5 -27.5t-53.5 -72.5v-172q16 -45 53.5 -72.5t76.5 -27.5q67 0 102 52.5t35 133.5zM156 67v-121q0 -74 15 -95.5t66 -21.5v-20h-239v20q50 0 65 21.5t15 95.5v517q0 75 -14.5 96t-65.5 21v20l158 24v-257q26 36 65.5 56.5
t82.5 20.5q90 0 148 -66t58 -162t-58 -162t-148 -66q-93 0 -148 79z" />
    <glyph glyph-name="ydieresis" unicode="&#xff;" horiz-adv-x="462" 
d="M491 412q-65 0 -92 -66l-199 -470q-32 -75 -79 -75q-14 0 -25.5 10t-11.5 28q0 24 31 38q59 26 83 88l16 41l-152 340q-17 38 -36.5 52t-50.5 14v20h219v-20q-40 0 -51 -13t4 -53l106 -244l104 244q15 39 4.5 52.5t-47.5 13.5v20h177v-20zM331 581q17 0 28.5 -11.5
t11.5 -28.5q0 -16 -11.5 -27.5t-28.5 -11.5t-28.5 11.5t-11.5 27.5q0 17 11.5 28.5t28.5 11.5zM165 581q17 0 28.5 -11.5t11.5 -28.5q0 -16 -11.5 -27.5t-28.5 -11.5t-28.5 11.5t-11.5 27.5q0 17 11.5 28.5t28.5 11.5z" />
    <glyph glyph-name="dotlessi" unicode="&#x131;" horiz-adv-x="283" 
d="M267 0h-240v20q51 0 66 21.5t15 95.5v148q0 75 -14.5 96t-66.5 21v20l159 23v-308q0 -74 15 -95.5t66 -21.5v-20z" />
    <glyph glyph-name="Lslash" unicode="&#x141;" horiz-adv-x="539" 
d="M119 264l-68 -51l-25 29l93 69v152q0 75 -16.5 95.5t-78.5 20.5v21h274v-21q-62 0 -78.5 -20.5t-16.5 -95.5v-89l72 54l26 -29l-98 -73v-171q0 -75 16.5 -95.5t78.5 -20.5h88q63 0 83.5 16.5t31.5 59.5l5 20h21l-8 -135h-495v21q62 0 78.5 21t16.5 96v126z" />
    <glyph glyph-name="lslash" unicode="&#x142;" horiz-adv-x="272" 
d="M175 331v-194q0 -74 14.5 -95.5t61.5 -21.5v-20h-230v20q47 0 61.5 21.5t14.5 95.5v131l-68 -55l-25 29l93 75v146q0 75 -14.5 96t-66.5 21v20l159 24v-243l58 47l26 -29z" />
    <glyph glyph-name="OE" unicode="&#x152;" horiz-adv-x="900" 
d="M384 0q-167 0 -255.5 84.5t-88.5 215.5t88.5 215.5t255.5 84.5h441l9 -134h-21l-5 20q-11 43 -31.5 59t-84.5 16h-144v-224h46q76 0 96 16t20 78h21v-227h-21q0 62 -20 78t-96 16h-46v-145q0 -75 16.5 -94.5t78.5 -19.5h82q64 0 84.5 16.5t31.5 59.5l5 20h21l-8 -135
h-475zM383 39h6q40 0 57.5 19t17.5 80v332q0 55 -19 73t-62 18q-56 0 -100 -16t-71 -42t-45 -61t-24.5 -69.5t-6.5 -72.5t6.5 -72.5t24.5 -69.5t45 -61t71 -42t100 -16z" />
    <glyph glyph-name="oe" unicode="&#x153;" horiz-adv-x="860" 
d="M731 312q0 40 -28 65.5t-72 25.5t-77.5 -30.5t-46.5 -87.5h222q2 14 2 27zM457 79q-33 -43 -82.5 -69t-106.5 -26q-99 0 -167.5 68.5t-68.5 163.5t68.5 163.5t167.5 68.5q57 0 107 -26t83 -70q30 43 76 67.5t95 24.5q77 0 128.5 -45.5t51.5 -112.5q0 -17 -5 -39h-301
q-2 -18 -2 -28q0 -80 36.5 -133t123.5 -53q77 0 141 58l20 -26q-72 -77 -191 -77q-114 0 -174 91zM417 216q0 85 -38.5 140t-110.5 55t-110.5 -55t-38.5 -140t38.5 -140t110.5 -55t110.5 55t38.5 140z" />
    <glyph glyph-name="Scaron" unicode="&#x160;" horiz-adv-x="479" 
d="M133 814l106 -76l106 76l13 -11l-119 -130l-119 130zM48 -12v215h20q3 -30 13 -57.5t30 -56t56.5 -46t85.5 -17.5q54 0 89.5 29.5t35.5 74.5q0 41 -28 66t-89 57l-96 49q-109 54 -109 166q0 63 47 106t119 43q68 0 124 -41q22 17 30 41h17v-195h-20q-13 66 -46.5 109
t-107.5 43q-42 0 -69.5 -24.5t-27.5 -61.5t26 -61.5t95 -60.5l95 -49q53 -28 79.5 -69t26.5 -85q0 -80 -55.5 -130t-135.5 -50q-21 0 -42 3.5t-39.5 10.5t-30 12t-27 13l-17.5 9q-18 -13 -31 -43h-18z" />
    <glyph glyph-name="scaron" unicode="&#x161;" horiz-adv-x="385" 
d="M87 642l106 -76l106 76l13 -11l-119 -130l-119 130zM349 117q0 -57 -40 -93t-106 -36q-70 0 -128 47q-14 -22 -18 -42h-18v159h21q0 -43 43 -84.5t102 -41.5q40 0 59.5 19t19.5 49q0 42 -79 81l-67 32q-90 44 -90 124q0 45 38 79t92 34q72 0 109 -37q13 17 14 32h19v-125
h-21q-1 38 -33 66t-77 28q-38 0 -56.5 -18.5t-18.5 -44.5q0 -23 19 -40t65 -38l59 -27q92 -42 92 -123z" />
    <glyph glyph-name="Ydieresis" unicode="&#x178;" horiz-adv-x="597" 
d="M162 0v21q62 0 78.5 21t16.5 96v104l-162 250q-33 51 -61 69t-80 18v21h285v-21q-59 0 -69.5 -20.5t15.5 -55.5l141 -216l143 216q28 40 17.5 58t-71.5 18v21h233v-21q-41 0 -67 -11t-38.5 -25.5t-36.5 -50.5l-165 -250v-104q0 -75 16.5 -96t78.5 -21v-21h-274zM406 753
q16 0 28 -11.5t12 -28.5q0 -16 -11.5 -27.5t-28.5 -11.5t-28.5 11.5t-11.5 27.5q0 17 12 28.5t28 11.5zM240 753q16 0 28 -11.5t12 -28.5q0 -16 -11.5 -27.5t-28.5 -11.5t-28.5 11.5t-11.5 27.5q0 17 12 28.5t28 11.5z" />
    <glyph glyph-name="Zcaron" unicode="&#x17d;" horiz-adv-x="527" 
d="M157 814l106 -76l106 76l13 -11l-119 -130l-119 130zM29 0v23l334 538h-181q-64 0 -84.5 -16t-31.5 -59l-5 -20h-21l9 134h426v-12l-342 -549h222q64 0 84.5 16.5t31.5 59.5l5 20h21l-8 -135h-460z" />
    <glyph glyph-name="zcaron" unicode="&#x17e;" horiz-adv-x="408" 
d="M382 124l-9 -124h-347v19l249 380h-84q-52 0 -79 -8.5t-36 -20.5t-16 -38l-6 -23h-20l9 123h331v-18l-247 -379h98q52 0 79 7.5t36 20t16 38.5l6 23h20zM98 642l106 -76l106 76l13 -11l-119 -130l-119 130z" />
    <glyph glyph-name="florin" unicode="&#x192;" horiz-adv-x="288" 
d="M-5 -199q-30 0 -50.5 14t-22.5 34q-1 17 10.5 29t28.5 12q25 0 36 -26q9 -23 30 -23q25 0 35.5 31.5t18.5 117.5l27 308h-80l3 35h81l6 80q8 97 53 153t104 56q30 0 50.5 -14t22.5 -34q1 -17 -10.5 -29t-28.5 -12q-23 0 -36 26q-11 23 -31 23q-25 0 -33.5 -26t-15.5 -112
l-10 -111h101l-3 -35h-101l-26 -298q-9 -101 -53.5 -150t-105.5 -49z" />
    <glyph glyph-name="circumflex" unicode="&#x2c6;" horiz-adv-x="300" 
d="M44 502l-13 11l119 130l119 -130l-13 -11l-106 76z" />
    <glyph glyph-name="caron" unicode="&#x2c7;" horiz-adv-x="300" 
d="M44 642l106 -76l106 76l13 -11l-119 -130l-119 130z" />
    <glyph glyph-name="breve" unicode="&#x2d8;" horiz-adv-x="300" 
d="M150 502q-38 0 -62.5 25t-24.5 65h16q8 -21 27 -34.5t44 -13.5t44.5 13.5t26.5 34.5h16q0 -40 -24.5 -65t-62.5 -25z" />
    <glyph glyph-name="dotaccent" unicode="&#x2d9;" horiz-adv-x="300" 
d="M150 581q16 0 28 -11.5t12 -28.5q0 -16 -11.5 -27.5t-28.5 -11.5t-28.5 11.5t-11.5 27.5q0 17 12 28.5t28 11.5z" />
    <glyph glyph-name="ring" unicode="&#x2da;" horiz-adv-x="300" 
d="M150 667q34 0 58.5 -24.5t24.5 -58.5t-24 -58t-59 -24t-59 24t-24 58t24.5 58.5t58.5 24.5zM150 633q-20 0 -34.5 -14.5t-14.5 -34.5t14.5 -34t34.5 -14t34.5 14t14.5 34t-14.5 34.5t-34.5 14.5z" />
    <glyph glyph-name="ogonek" unicode="&#x2db;" horiz-adv-x="300" 
d="M97 -135q-30 0 -50 20.5t-20 49.5q0 36 33.5 60t69.5 13l8 -1l-5 -13h-7q-19 0 -35.5 -12.5t-16.5 -29.5q0 -19 11 -32t31 -13q30 0 41 23l7 15l7 -19l1 -3q-4 -26 -25 -42t-50 -16z" />
    <glyph glyph-name="tilde" unicode="&#x2dc;" horiz-adv-x="300" 
d="M206 506q-20 0 -62 26t-60 26q-32 0 -43 -48h-16q0 94 68 94q21 0 63 -26t59 -26q32 0 43 48h16q0 -94 -68 -94z" />
    <glyph glyph-name="hungarumlaut" unicode="&#x2dd;" horiz-adv-x="300" 
d="M124 501l-5 7l93 87q26 24 45 24q11 0 19.5 -8.5t8.5 -19.5q0 -22 -23 -31zM7 501l-5 7l93 87q26 24 45 24q11 0 19.5 -8.5t8.5 -19.5q0 -22 -23 -31z" />
    <glyph glyph-name="Delta" unicode="&#x394;" horiz-adv-x="549" 
d="M93 43h337l-165 446zM31 0l238 617h21l228 -617h-487z" />
    <glyph glyph-name="Omega" unicode="&#x3a9;" horiz-adv-x="547" 
d="M59 0l-6 158h24l3 -20q6 -44 22.5 -60t65.5 -16h17v109q-64 26 -102.5 83t-38.5 124q0 90 65.5 157.5t164.5 67.5q98 0 163.5 -67.5t65.5 -157.5q0 -66 -39 -123.5t-102 -82.5v-110h17q50 0 66 16t22 60l3 20h24l-6 -158h-164v204q100 30 100 177q0 33 -6.5 62t-21.5 58
t-46.5 46t-75.5 17q-45 0 -76.5 -17t-47 -46t-22 -58t-6.5 -62q0 -147 100 -177v-204h-163z" />
    <glyph glyph-name="pi" unicode="&#x3c0;" horiz-adv-x="555" 
d="M131 -12q-31 0 -55 41l7 27q25 -35 38 -35q24 0 27 48l22 299h-57q-64 0 -47 -63l-20 -5q-26 56 -4.5 94t75.5 38h338q35 0 44 19t2 45l21 5q25 -56 3.5 -94.5t-75.5 -38.5h-59v-290q0 -49 22 -49q9 0 22.5 9.5t19.5 17.5l4 -27q-31 -41 -68 -41q-30 0 -47 22.5t-17 58.5
v299h-117l-22 -299q-3 -41 -19 -61t-38 -20z" />
    <glyph glyph-name="endash" unicode="&#x2013;" horiz-adv-x="397" 
d="M-5 229v42h406v-42h-406z" />
    <glyph glyph-name="emdash" unicode="&#x2014;" horiz-adv-x="639" 
d="M-5 229v42h648v-42h-648z" />
    <glyph glyph-name="quoteleft" unicode="&#x2018;" horiz-adv-x="223" 
d="M153 619l11 -11q-49 -53 -57 -107q2 1 8 1q19 0 33 -14.5t14 -34.5q0 -19 -14 -33.5t-34 -14.5q-22 0 -37.5 16t-15.5 47q0 37 24.5 80.5t67.5 70.5z" />
    <glyph glyph-name="quoteright" unicode="&#x2019;" horiz-adv-x="223" 
d="M70 403l-11 11q49 53 57 107q-2 -1 -8 -1q-19 0 -33 14.5t-14 34.5q0 19 14.5 33.5t33.5 14.5q22 0 37.5 -16t15.5 -47q0 -37 -24.5 -80.5t-67.5 -70.5z" />
    <glyph glyph-name="quotesinglbase" unicode="&#x201a;" horiz-adv-x="223" 
d="M70 -117l-11 11q49 53 57 107q-2 -1 -8 -1q-19 0 -33 14.5t-14 34.5q0 19 14.5 33.5t33.5 14.5q22 0 37.5 -16t15.5 -47q0 -37 -24.5 -80.5t-67.5 -70.5z" />
    <glyph glyph-name="quotedblleft" unicode="&#x201c;" horiz-adv-x="390" 
d="M320 619l11 -11q-49 -53 -57 -107q2 1 8 1q19 0 33 -14.5t14 -34.5q0 -19 -14.5 -33.5t-33.5 -14.5q-22 0 -37.5 16t-15.5 47q0 37 24.5 80.5t67.5 70.5zM153 619l11 -11q-49 -53 -57 -107q2 1 8 1q19 0 33 -14.5t14 -34.5q0 -19 -14 -33.5t-34 -14.5q-22 0 -37.5 16
t-15.5 47q0 37 24.5 80.5t67.5 70.5z" />
    <glyph glyph-name="quotedblright" unicode="&#x201d;" horiz-adv-x="390" 
d="M237 403l-11 11q49 53 57 107q-2 -1 -8 -1q-19 0 -33 14.5t-14 34.5q0 19 14 33.5t34 14.5q22 0 37.5 -16t15.5 -47q0 -37 -24.5 -80.5t-67.5 -70.5zM70 403l-11 11q49 53 57 107q-2 -1 -8 -1q-19 0 -33 14.5t-14 34.5q0 19 14.5 33.5t33.5 14.5q22 0 37.5 -16t15.5 -47
q0 -37 -24.5 -80.5t-67.5 -70.5z" />
    <glyph glyph-name="quotedblbase" unicode="&#x201e;" horiz-adv-x="390" 
d="M237 -117l-11 11q49 53 57 107q-2 -1 -8 -1q-19 0 -33 14.5t-14 34.5q0 19 14 33.5t34 14.5q22 0 37.5 -16t15.5 -47q0 -37 -24.5 -80.5t-67.5 -70.5zM70 -117l-11 11q49 53 57 107q-2 -1 -8 -1q-19 0 -33 14.5t-14 34.5q0 19 14.5 33.5t33.5 14.5q22 0 37.5 -16
t15.5 -47q0 -37 -24.5 -80.5t-67.5 -70.5z" />
    <glyph glyph-name="dagger" unicode="&#x2020;" horiz-adv-x="420" 
d="M203 -197l-34 415l28 209l-92 -30q-21 -7 -39 7.5t-18 38.5t18 37.5t39 7.5l94 -30l-35 101q-6 22 8 40t38 18t38 -18t8 -40l-34 -101l92 30q21 7 39.5 -7t18.5 -38t-18.5 -38.5t-39.5 -7.5l-90 29l27 -208l-34 -415h-14z" />
    <glyph glyph-name="daggerdbl" unicode="&#x2021;" horiz-adv-x="420" 
d="M210 -196q-24 0 -38 18.5t-8 39.5l35 101l-94 -31q-20 -7 -38.5 8t-18.5 38q0 24 18 38.5t39 7.5l92 -30l-26 216l26 217l-92 -31q-21 -7 -39 8t-18 39q0 23 18.5 37.5t38.5 7.5l94 -31l-35 102q-7 20 7.5 39t38.5 19t38.5 -19t7.5 -39l-34 -102l92 31q21 7 39.5 -7.5
t18.5 -37.5q0 -24 -18.5 -39t-39.5 -8l-90 30l25 -215l-25 -216l90 29q21 7 39.5 -7.5t18.5 -38.5q0 -23 -18.5 -38t-39.5 -8l-92 31l34 -101q7 -20 -7.5 -39t-38.5 -19z" />
    <glyph glyph-name="bullet" unicode="&#x2022;" horiz-adv-x="242" 
d="M121 213q-32 0 -54.5 22.5t-22.5 53.5q0 32 22.5 54.5t54.5 22.5t54.5 -22.5t22.5 -54.5t-22.5 -54t-54.5 -22z" />
    <glyph glyph-name="ellipsis" unicode="&#x2026;" horiz-adv-x="810" 
d="M135 -8q-23 0 -38.5 16t-15.5 38t15.5 38t38.5 16t38.5 -16t15.5 -38t-15.5 -38t-38.5 -16zM405 -8q-23 0 -38.5 16t-15.5 38t15.5 38t38.5 16t38.5 -16t15.5 -38t-15.5 -38t-38.5 -16zM675 -8q-23 0 -38.5 16t-15.5 38t15.5 38t38.5 16t38.5 -16t15.5 -38t-15.5 -38
t-38.5 -16z" />
    <glyph glyph-name="perthousand" unicode="&#x2030;" horiz-adv-x="970" 
d="M154 -18l-36 18l383 618l36 -18zM174 330q-54 0 -93 42t-39 101t39 101.5t93 42.5q53 0 92 -42.5t39 -101.5q0 -58 -39 -100.5t-92 -42.5zM174 363q32 0 48.5 31t16.5 79q0 49 -16.5 80t-48.5 31q-33 0 -50 -31t-17 -80q0 -48 17 -79t50 -31zM796 -16q-54 0 -93 42
t-39 101t39 101.5t93 42.5q53 0 92 -42.5t39 -101.5q0 -58 -39 -100.5t-92 -42.5zM796 17q32 0 48.5 31t16.5 79q0 49 -16.5 80t-48.5 31q-33 0 -50 -31t-17 -80q0 -48 17 -79t50 -31zM481 -16q-54 0 -93 42t-39 101t39 101.5t93 42.5q53 0 92 -42.5t39 -101.5
q0 -58 -39 -100.5t-92 -42.5zM481 17q32 0 48.5 31t16.5 79q0 49 -16.5 80t-48.5 31q-33 0 -50 -31t-17 -80q0 -48 17 -79t50 -31z" />
    <glyph glyph-name="guilsinglleft" unicode="&#x2039;" horiz-adv-x="345" 
d="M290 52l-247 199l247 198l14 -19l-170 -180l170 -179z" />
    <glyph glyph-name="guilsinglright" unicode="&#x203a;" horiz-adv-x="345" 
d="M55 52l-14 19l170 179l-170 180l14 19l247 -198z" />
    <glyph glyph-name="fraction" unicode="&#x2044;" horiz-adv-x="141" 
d="M-103 -18l-36 18l383 618l36 -18z" />
    <glyph glyph-name="zerosuperior" unicode="&#x2070;" horiz-adv-x="352" 
d="M309 516q0 -76 -37.5 -123.5t-95.5 -47.5q-56 0 -94 48t-38 123t38 123t94 48q58 0 95.5 -47.5t37.5 -123.5zM245 516q0 143 -69 143q-68 0 -68 -143t68 -143q69 0 69 143z" />
    <glyph glyph-name="foursuperior" unicode="&#x2074;" horiz-adv-x="343" 
d="M170 468v131l-103 -131h103zM227 468q23 0 34.5 5t15 11t9.5 23l4 12h16l-6 -78h-73v-12q0 -38 9 -48.5t41 -10.5v-18h-157v18q32 0 41 10.5t9 48.5v12h-143v15l183 231h17v-219z" />
    <glyph glyph-name="fivesuperior" unicode="&#x2075;" horiz-adv-x="316" 
d="M273 456q0 -46 -37.5 -78.5t-88.5 -32.5q-44 0 -72.5 20.5t-28.5 39.5q0 20 21 20q8 0 14 -8.5t10.5 -18t19 -18t36.5 -8.5q62 0 62 84q0 81 -62 81q-56 0 -67 -52h-27l18 192h187l-10 -53h-154l-6 -76q26 18 64 18q52 0 86.5 -31.5t34.5 -78.5z" />
    <glyph glyph-name="sixsuperior" unicode="&#x2076;" horiz-adv-x="324" 
d="M288 454q0 -48 -36 -78.5t-86 -30.5q-46 0 -84 35t-38 119q0 75 37 131t101 56q35 0 63 -14.5t28 -30.5q0 -9 -6 -15t-15 -6t-28 19.5t-42 19.5q-41 0 -56 -31.5t-19 -91.5q29 25 76 25q45 0 75 -29.5t30 -77.5zM225 454q0 79 -54 79q-22 0 -41.5 -10t-23.5 -25
q0 -127 60 -127q59 0 59 83z" />
    <glyph glyph-name="sevensuperior" unicode="&#x2077;" horiz-adv-x="279" 
d="M253 677v-19l-82 -169q-28 -58 -36 -107q-6 -40 -30 -40q-11 0 -18.5 8t-7.5 21q0 28 19 61l113 192h-99q-34 0 -44 -8t-16 -29l-4 -14h-17l18 104h204z" />
    <glyph glyph-name="eightsuperior" unicode="&#x2078;" horiz-adv-x="338" 
d="M294 439q0 -40 -37 -67t-88 -27t-88 26t-37 64q0 37 21.5 57.5t58.5 33.5q-59 38 -59 82q0 34 31.5 56.5t74.5 22.5q42 0 72.5 -22t30.5 -53q0 -43 -69 -72q42 -19 65.5 -42t23.5 -59zM220 616q0 18 -12 31t-37 13t-37.5 -13t-12.5 -31q0 -22 14.5 -35.5t42.5 -28.5
q42 22 42 64zM240 431q0 18 -13 33t-26 23t-40 21q-7 3 -10 5q-50 -27 -50 -78q0 -28 17 -46t51 -18t52.5 17.5t18.5 42.5z" />
    <glyph glyph-name="ninesuperior" unicode="&#x2079;" horiz-adv-x="328" 
d="M41 577q0 48 36 78.5t86 30.5q46 0 84 -35t38 -119q0 -75 -37 -131t-101 -56q-35 0 -63 14.5t-28 30.5q0 9 6 15t15 6t28 -19.5t42 -19.5q41 0 56 31.5t19 91.5q-29 -25 -76 -25q-45 0 -75 29.5t-30 77.5zM104 577q0 -79 54 -79q22 0 41.5 10t23.5 25q0 127 -60 127
q-59 0 -59 -83z" />
    <glyph glyph-name="zeroinferior" unicode="&#x2080;" horiz-adv-x="352" 
d="M309 54q0 -76 -37.5 -123.5t-95.5 -47.5q-56 0 -94 48t-38 123t38 123t94 48q58 0 95.5 -47.5t37.5 -123.5zM245 54q0 143 -69 143q-68 0 -68 -143t68 -143q69 0 69 143z" />
    <glyph glyph-name="oneinferior" unicode="&#x2081;" horiz-adv-x="262" 
d="M216 -91v-19h-170v19q32 0 44 11t12 47v168q0 35 -14.5 44.5t-49.5 9.5v16l122 20v-258q0 -36 11.5 -47t44.5 -11z" />
    <glyph glyph-name="twoinferior" unicode="&#x2082;" horiz-adv-x="318" 
d="M278 -27l-17 -83h-218v18l96 106q61 68 61 118q0 29 -14.5 47t-42.5 18q-25 0 -39.5 -13t-14.5 -32q0 -17 14 -34l-18 -20q-45 23 -45 59q0 28 28 48t78 20q52 0 83.5 -27.5t31.5 -64.5q0 -29 -19.5 -56.5t-61.5 -68.5l-75 -74h88q36 0 48 7.5t19 31.5h18z" />
    <glyph glyph-name="threeinferior" unicode="&#x2083;" horiz-adv-x="327" 
d="M280 -24q0 -38 -35 -65.5t-86 -27.5q-50 0 -82 20t-32 39q0 21 21 21q6 0 10.5 -5t10 -14t10.5 -14q18 -20 58 -20q59 0 59 66q0 56 -49 67l-7 -7t-8.5 -8t-8 -5.5t-8.5 -2.5q-16 0 -16 16q0 10 16 21l27 19q48 34 48 72q0 22 -14 35.5t-40 13.5q-24 0 -41 -13.5
t-17 -32.5q0 -16 10 -30l-20 -20q-39 21 -39 53q0 28 28.5 49.5t78.5 21.5q46 0 81 -21t35 -54q0 -44 -58 -77l-21 -12q40 -7 64.5 -31t24.5 -54z" />
    <glyph glyph-name="fourinferior" unicode="&#x2084;" horiz-adv-x="343" 
d="M170 6v131l-103 -131h103zM227 6q23 0 34.5 5t15 11t9.5 23l4 12h16l-6 -78h-73v-12q0 -38 9 -48.5t41 -10.5v-18h-157v18q32 0 41 10.5t9 48.5v12h-143v15l183 231h17v-219z" />
    <glyph glyph-name="fiveinferior" unicode="&#x2085;" horiz-adv-x="316" 
d="M273 -6q0 -46 -37.5 -78.5t-88.5 -32.5q-44 0 -72.5 20.5t-28.5 39.5q0 20 21 20q8 0 14 -8.5t10.5 -18t19 -18t36.5 -8.5q62 0 62 84q0 81 -62 81q-56 0 -67 -52h-27l18 192h187l-10 -53h-154l-6 -76q26 18 64 18q52 0 86.5 -31.5t34.5 -78.5z" />
    <glyph glyph-name="sixinferior" unicode="&#x2086;" horiz-adv-x="324" 
d="M288 -8q0 -48 -36 -78.5t-86 -30.5q-46 0 -84 35t-38 119q0 75 37 131t101 56q35 0 63 -14.5t28 -30.5q0 -9 -6 -15t-15 -6t-28 19.5t-42 19.5q-41 0 -56 -31.5t-19 -91.5q29 25 76 25q45 0 75 -29.5t30 -77.5zM225 -8q0 79 -54 79q-22 0 -41.5 -10t-23.5 -25
q0 -127 60 -127q59 0 59 83z" />
    <glyph glyph-name="seveninferior" unicode="&#x2087;" horiz-adv-x="279" 
d="M253 215v-19l-82 -169q-28 -58 -36 -107q-6 -40 -30 -40q-11 0 -18.5 8t-7.5 21q0 28 19 61l113 192h-99q-23 0 -36 -5.5t-16.5 -11.5t-7.5 -20l-4 -14h-17l18 104h204z" />
    <glyph glyph-name="eightinferior" unicode="&#x2088;" horiz-adv-x="338" 
d="M294 -23q0 -40 -37 -67t-88 -27t-88 26t-37 64q0 37 21.5 57.5t58.5 33.5q-59 38 -59 82q0 34 31.5 56.5t74.5 22.5q42 0 72.5 -22t30.5 -53q0 -43 -69 -72q42 -19 65.5 -42t23.5 -59zM220 154q0 18 -12 31t-37 13t-37.5 -13t-12.5 -31q0 -22 14.5 -35.5t42.5 -28.5
q42 22 42 64zM240 -31q0 18 -13 33t-26 23t-40 21q-7 3 -10 5q-50 -27 -50 -78q0 -28 17 -46t51 -18t52.5 17.5t18.5 42.5z" />
    <glyph glyph-name="nineinferior" unicode="&#x2089;" horiz-adv-x="328" 
d="M41 115q0 48 36 78.5t86 30.5q46 0 84 -35t38 -119q0 -75 -37 -131t-101 -56q-35 0 -63 14.5t-28 30.5q0 9 6 15t15 6t28 -19.5t42 -19.5q41 0 56 31.5t19 91.5q-29 -25 -76 -25q-45 0 -75 29.5t-30 77.5zM104 115q0 -79 54 -79q22 0 41.5 10t23.5 25q0 127 -60 127
q-59 0 -59 -83z" />
    <glyph glyph-name="Euro" unicode="&#x20ac;" horiz-adv-x="546" 
d="M308 -17q-83 0 -146 67.5t-80 177.5h-58v35h54q0 6 -0.5 18t-0.5 19q0 25 1 37h-54v35h58q17 110 80 177.5t146 67.5q85 0 138 -72q23 19 28 52h20v-207h-21q-35 184 -155 184q-126 0 -148 -202h193v-35h-195q-1 -12 -1 -37t1 -37h195v-35h-193q20 -201 148 -201
q119 0 155 183h21v-208h-20q-6 35 -28 53q-51 -72 -138 -72z" />
    <glyph glyph-name="trademark" unicode="&#x2122;" horiz-adv-x="905" 
d="M89 226v17q43 0 55.5 18.5t12.5 82.5v224h-18q-55 0 -73.5 -12t-26.5 -43l-5 -19h-17l6 106h324l7 -106h-19l-4 19q-7 33 -25 44t-75 11h-17v-224q0 -64 12.5 -82.5t56.5 -18.5v-17h-194zM627 220l-132 297v-173q0 -64 12.5 -82.5t56.5 -18.5v-17h-170v17q44 0 56.5 18.5
t12.5 82.5v138q0 64 -12.5 82.5t-56.5 18.5v17h129l125 -292l126 292h116v-17q-43 0 -55 -18.5t-12 -82.5v-138q0 -64 12 -82.5t55 -18.5v-17h-193v17q43 0 55.5 18.5t12.5 82.5v160l-126 -284h-12z" />
    <glyph glyph-name="partialdiff" unicode="&#x2202;" 
d="M465 269q-7 -67 -27 -118.5t-45.5 -82t-57 -50t-58 -26t-52.5 -6.5q-87 0 -144 60t-47 148q9 88 70.5 137.5t146.5 49.5q42 0 78.5 -17.5t52.5 -41.5q5 52 0.5 99t-16.5 82t-39.5 55.5t-68.5 20.5q-33 0 -57.5 -17.5t-42.5 -35t-34 -17.5q-11 0 -18.5 8t-6.5 21
q2 29 52 54t111 25q75 0 125.5 -52.5t68.5 -130t9 -165.5zM377 267q-5 30 -44 52t-81 22q-58 0 -90.5 -45t-39.5 -111q-7 -72 18 -115.5t89 -43.5q50 0 92 55t56 186z" />
    <glyph glyph-name="product" unicode="&#x220f;" horiz-adv-x="664" 
d="M24 0v21q62 0 78.5 21t16.5 96v325q0 75 -16.5 95.5t-78.5 20.5v21h616v-21q-62 0 -79 -20.5t-17 -95.5v-325q0 -75 17 -96t79 -21v-21h-266v21q62 0 78.5 21t16.5 96v418h-275v-418q0 -75 17 -96t79 -21v-21h-266z" />
    <glyph glyph-name="summation" unicode="&#x2211;" horiz-adv-x="570" 
d="M35 -170v17l240 386l-238 350v17h482l9 -132h-21l-5 20q-11 43 -31.5 59t-84.5 16h-258l234 -344l-219 -352h268q64 0 84.5 16t31.5 59l5 20h21l-9 -132h-509z" />
    <glyph glyph-name="minus" unicode="&#x2212;" horiz-adv-x="430" 
d="M66 267v44h298v-44h-298z" />
    <glyph glyph-name="radical" unicode="&#x221a;" horiz-adv-x="421" 
d="M143 -22l-122 290l55 26l83 -205l242 652h41l-284 -763h-15z" />
    <glyph glyph-name="infinity" unicode="&#x221e;" horiz-adv-x="685" 
d="M167 158q-61 0 -98 37.5t-37 92.5q0 56 37 93.5t98 37.5q37 0 86 -30.5t90 -70.5q38 39 88 70t88 31q60 0 97.5 -37.5t37.5 -93.5q0 -55 -37.5 -92.5t-97.5 -37.5q-38 0 -88 30.5t-88 69.5q-40 -39 -89.5 -69.5t-86.5 -30.5zM164 203q49 0 142 85q-89 85 -142 85
q-36 0 -59 -24.5t-23 -60.5q0 -35 23.5 -60t58.5 -25zM522 203q35 0 58.5 25t23.5 60q0 36 -23 60.5t-59 24.5q-54 0 -143 -85q93 -85 143 -85z" />
    <glyph glyph-name="integral" unicode="&#x222b;" horiz-adv-x="233" 
d="M-15 -199q-28 0 -46 14.5t-18 32.5t12 32.5t32 14.5t36 -25t34 -25q24 0 30 33t6 145v407q0 116 46.5 169t112.5 53q28 0 46 -14.5t18 -32.5t-12 -32.5t-32 -14.5t-36 25t-34 25q-24 0 -30 -33t-6 -145v-407q0 -116 -46.5 -169t-112.5 -53z" />
    <glyph glyph-name="approxequal" unicode="&#x2248;" horiz-adv-x="430" 
d="M71 311v45q33 33 72 33q26 0 75 -16.5t68 -16.5q17 0 35 8t27 16l10 9v-45q-33 -33 -72 -33q-26 0 -75 16.5t-68 16.5q-17 0 -35 -8t-28 -16zM71 186v45q33 33 72 33q26 0 75 -16.5t68 -16.5q17 0 35 8.5t27 16.5l10 8v-45q-33 -33 -72 -33q-26 0 -75 16.5t-68 16.5
q-17 0 -35 -8.5t-28 -16.5z" />
    <glyph glyph-name="notequal" unicode="&#x2260;" horiz-adv-x="430" 
d="M101 97l-29 21l61 87h-64v45h96l56 80h-152v45h184l76 108l29 -22l-61 -86h64v-45h-96l-56 -80h152v-45h-184z" />
    <glyph glyph-name="lessequal" unicode="&#x2264;" horiz-adv-x="400" 
d="M343 102l-307 166l307 165l12 -33l-234 -132l234 -132zM379 0h-358v39h358v-39z" />
    <glyph glyph-name="greaterequal" unicode="&#x2265;" horiz-adv-x="400" 
d="M21 0v39h358v-39h-358zM57 102l-12 34l234 132l-234 132l12 33l307 -165z" />
    <glyph glyph-name="lozenge" unicode="&#x25ca;" horiz-adv-x="476" 
d="M236 -46l-202 341l202 331l202 -331zM236 34l151 262l-151 251l-152 -251z" />
    <glyph glyph-name="Lslashsmall" unicode="&#xf6f9;" horiz-adv-x="462" 
d="M105 187l-53 -39l-20 27l73 54v135q0 55 -13.5 73.5t-61.5 18.5v20h230v-20q-48 0 -61.5 -18.5t-13.5 -73.5v-75l60 45l21 -27l-81 -60v-129q0 -53 12 -67.5t56 -14.5h80q24 0 39.5 5t24.5 16t12.5 19.5t7.5 23.5l5 20h19l-6 -120h-405v20q48 0 61.5 18.5t13.5 74.5v74z
" />
    <glyph glyph-name="OEsmall" unicode="&#xf6fa;" horiz-adv-x="737" 
d="M315 34q29 0 41 13.5t12 55.5v276q0 38 -13.5 50.5t-43.5 12.5q-53 0 -91.5 -19t-58.5 -51t-29 -65t-9 -69t9 -69t29 -65t58.5 -51t91.5 -19h4zM667 476l7 -117h-19l-5 20q-5 20 -10.5 31t-24.5 21.5t-50 10.5h-117v-174h40q54 0 69 13.5t15 63.5h21v-188h-21
q0 49 -15 63t-69 14h-40v-119q0 -53 12 -67t56 -14h75q24 0 40 5t25 16t12.5 19.5t7.5 23.5l5 20h19l-6 -118h-383q-136 0 -207 67t-71 171t71 171t207 67h356z" />
    <glyph glyph-name="Scaronsmall" unicode="&#xf6fd;" horiz-adv-x="414" 
d="M49 165h20q6 -53 42.5 -96.5t106.5 -43.5q42 0 68.5 22t26.5 55q0 32 -18.5 49.5t-73.5 44.5l-76 38q-90 45 -90 133q0 51 39.5 86.5t98.5 35.5t104 -39q13 10 23 39h15v-159h-19q-24 121 -125 121q-32 0 -52.5 -18.5t-20.5 -44.5q0 -28 18 -46t77 -47l75 -38
q44 -22 66 -55.5t22 -68.5q0 -64 -46 -105t-112 -41q-70 0 -128 46q-9 -6 -26 -42h-15v174zM100 686l106 -76l106 76l13 -11l-119 -130l-119 130z" />
    <glyph glyph-name="Zcaronsmall" unicode="&#xf6ff;" horiz-adv-x="452" 
d="M34 27l263 413h-145q-31 0 -50 -10t-24.5 -20.5t-10.5 -30.5l-5 -20h-19l7 117h349v-18l-268 -422h177q24 0 40 5t25 15t12.5 18.5t7.5 23.5l5 20h20l-7 -118h-377v27zM127 686l106 -76l106 76l13 -11l-119 -130l-119 130z" />
    <glyph glyph-name="Asmall" unicode="&#xf761;" horiz-adv-x="501" 
d="M-30 20q10 0 18.5 1t15.5 1.5t13 3.5t9.5 4.5t8 7t6.5 7t6.5 10t5.5 11t5.5 13t6.5 14.5l173 389h26l173 -389q21 -47 30 -56q18 -17 64 -17v-20h-236v20q47 0 61.5 14.5t0.5 44.5l-38 85h-183l-37 -85q-14 -30 0.5 -44.5t61.5 -14.5v-20h-191v20zM304 198l-76 176
l-77 -176h153z" />
    <glyph glyph-name="Bsmall" unicode="&#xf762;" horiz-adv-x="476" 
d="M30 20q48 0 61.5 18.5t13.5 74.5v251q0 55 -13.5 73.5t-61.5 18.5v20h219q77 0 118.5 -33.5t41.5 -85.5q0 -62 -53 -97q42 -17 67 -50t25 -74q0 -58 -47 -97t-129 -39h-242v20zM246 269q38 0 58.5 26t20.5 62q0 35 -20.5 61t-58.5 26h-61v-175h61zM271 32q45 0 69.5 31
t24.5 73q0 43 -24 72t-70 29h-86v-122q0 -54 11.5 -68.5t56.5 -14.5h18z" />
    <glyph glyph-name="Csmall" unicode="&#xf763;" horiz-adv-x="550" 
d="M45 238q0 105 71 178t179 73q89 0 155 -66q19 15 24 46h17v-173h-19q-16 75 -62.5 114t-111.5 39q-83 0 -123 -64.5t-40 -146.5t40 -146.5t123 -64.5q64 0 111 40t63 113h19v-173h-17q-6 30 -23 47q-69 -67 -156 -67q-108 0 -179 73t-71 178z" />
    <glyph glyph-name="Dsmall" unicode="&#xf764;" horiz-adv-x="575" 
d="M30 20q48 0 61.5 18.5t13.5 74.5v251q0 55 -13.5 73.5t-61.5 18.5v20h229q135 0 203 -66.5t68 -171.5t-68 -171.5t-203 -66.5h-229v20zM260 34q53 0 90.5 19t55.5 51t26 64.5t8 69.5t-8 69.5t-26 64.5t-55.5 51t-90.5 19h-75v-326q0 -53 10.5 -67.5t53.5 -14.5h11z" />
    <glyph glyph-name="Esmall" unicode="&#xf765;" horiz-adv-x="474" 
d="M30 20q48 0 61.5 18.5t13.5 74.5v251q0 55 -13.5 73.5t-61.5 18.5v20h374l7 -117h-19l-5 20q-5 20 -10.5 31t-24.5 21.5t-50 10.5h-117v-174h40q54 0 69 13.5t15 63.5h21v-188h-21q0 49 -15 63t-69 14h-40v-119q0 -53 12 -67t56 -14h75q24 0 40 5t25 16t12.5 19.5
t7.5 23.5l5 20h19l-6 -118h-401v20z" />
    <glyph glyph-name="Fsmall" unicode="&#xf766;" horiz-adv-x="448" 
d="M30 20q48 0 61.5 18.5t13.5 74.5v251q0 55 -13.5 73.5t-61.5 18.5v20h388l6 -117h-20l-5 20q-5 20 -10.5 31t-24 21.5t-48.5 10.5h-131v-174h40q54 0 69 14t15 64h21v-190h-21q0 50 -15 64t-69 14h-40v-121q0 -56 13.5 -74.5t61.5 -18.5v-20h-230v20z" />
    <glyph glyph-name="Gsmall" unicode="&#xf767;" horiz-adv-x="584" 
d="M45 238q0 105 71 178t179 73q89 0 155 -66q19 15 24 46h17v-173h-19q-15 74 -62 113.5t-113 39.5q-43 0 -76 -19.5t-51 -52t-26.5 -67.5t-8.5 -72q0 -38 8.5 -72.5t27 -67.5t55 -53t86.5 -20q53 0 88 27t35 80q0 25 -14 39t-52 14v20h197v-20q-36 0 -47.5 -19.5
t-11.5 -73.5v-60q-49 0 -107 -22.5t-98 -22.5q-114 0 -185.5 72.5t-71.5 178.5z" />
    <glyph glyph-name="Hsmall" unicode="&#xf768;" horiz-adv-x="619" 
d="M30 20q48 0 61.5 18.5t13.5 74.5v251q0 55 -13.5 73.5t-61.5 18.5v20h230v-20q-48 0 -61.5 -18.5t-13.5 -73.5v-94h248v94q0 56 -13.5 74t-62.5 18v20h232v-20q-49 0 -62.5 -18t-13.5 -74v-251q0 -56 14 -74.5t62 -18.5v-20h-232v20q48 0 62 18.5t14 74.5v121h-248v-121
q0 -56 13.5 -74.5t61.5 -18.5v-20h-230v20z" />
    <glyph glyph-name="Ismall" unicode="&#xf769;" horiz-adv-x="290" 
d="M30 20q48 0 61.5 18.5t13.5 74.5v251q0 55 -13.5 73.5t-61.5 18.5v20h230v-20q-48 0 -61.5 -18.5t-13.5 -73.5v-251q0 -56 13.5 -74.5t61.5 -18.5v-20h-230v20z" />
    <glyph glyph-name="Jsmall" unicode="&#xf76a;" horiz-adv-x="286" 
d="M103 364q0 55 -13.5 73.5t-61.5 18.5v20h230v-20q-48 0 -61.5 -18.5t-13.5 -73.5v-286q0 -117 -45 -174t-110 -57q-28 0 -46 14.5t-18 32.5t12 31t33 13q19 0 33.5 -23t31.5 -23q21 0 25 26.5t4 117.5v42v286z" />
    <glyph glyph-name="Ksmall" unicode="&#xf76b;" horiz-adv-x="579" 
d="M30 20q48 0 61.5 18.5t13.5 74.5v251q0 55 -13.5 73.5t-61.5 18.5v20h230v-20q-48 0 -61.5 -18.5t-13.5 -73.5v-107l167 138q31 25 27.5 43t-39.5 18v20h198v-20q-31 0 -58 -11t-39 -20t-50 -40l-136 -111l212 -201q52 -50 104 -53v-20h-232v20q34 0 42 13t-10 30
l-169 170l-17 -16v-104q0 -56 13.5 -74.5t61.5 -18.5v-20h-230v20z" />
    <glyph glyph-name="Lsmall" unicode="&#xf76c;" horiz-adv-x="462" 
d="M30 20q48 0 61.5 18.5t13.5 74.5v251q0 55 -13.5 73.5t-61.5 18.5v20h230v-20q-48 0 -61.5 -18.5t-13.5 -73.5v-246q0 -53 12 -67.5t56 -14.5h80q24 0 39.5 5t24.5 16t12.5 19.5t7.5 23.5l5 20h19l-6 -120h-405v20z" />
    <glyph glyph-name="Msmall" unicode="&#xf76d;" horiz-adv-x="703" 
d="M355 104l169 372h149v-20q-49 0 -62.5 -18t-13.5 -74v-251q0 -56 13.5 -74.5t62.5 -18.5v-20h-231v20q48 0 61.5 18.5t13.5 74.5v270l-177 -389h-20l-177 389v-270q0 -56 14 -74.5t62 -18.5v-20h-189v20q48 0 61.5 18.5t13.5 74.5v251q0 55 -13.5 73.5t-61.5 18.5v20h156
z" />
    <glyph glyph-name="Nsmall" unicode="&#xf76e;" horiz-adv-x="582" 
d="M145 360v-247q0 -56 14 -74.5t62 -18.5v-20h-191v20q48 0 61.5 18.5t13.5 74.5v251q0 55 -13.5 73.5t-61.5 18.5v20h121l292 -348v236q0 55 -13.5 73.5t-61.5 18.5v20h191v-20q-49 0 -62.5 -18t-13.5 -74v-373h-28z" />
    <glyph glyph-name="Osmall" unicode="&#xf76f;" horiz-adv-x="606" 
d="M32 238q0 105 77.5 179.5t193.5 74.5t193.5 -74.5t77.5 -179.5t-77.5 -179.5t-193.5 -74.5t-193.5 74.5t-77.5 179.5zM484 238q0 50 -17 97.5t-60 83.5t-104 36t-104 -36t-60 -83.5t-17 -97.5t17 -97.5t60 -83.5t104 -36t104 36t60 83.5t17 97.5z" />
    <glyph glyph-name="Psmall" unicode="&#xf770;" horiz-adv-x="438" 
d="M30 20q48 0 61.5 18.5t13.5 74.5v251q0 55 -13.5 73.5t-61.5 18.5v20h216q82 0 129 -39.5t47 -97.5q0 -59 -47 -98t-129 -39h-61v-89q0 -56 13.5 -74.5t61.5 -18.5v-20h-230v20zM245 235q45 0 69 31t24 73t-24.5 73t-68.5 31h-60v-208h60z" />
    <glyph glyph-name="Qsmall" unicode="&#xf771;" horiz-adv-x="606" 
d="M257 -77q-25 0 -41.5 -7.5t-22 -16.5t-12.5 -17.5t-15 -9.5q-14 -2 -23.5 6t-9.5 23q0 17 33 45t77 45q-94 16 -152.5 87.5t-58.5 159.5q0 105 77.5 179.5t193.5 74.5t193.5 -74.5t77.5 -179.5q0 -101 -71.5 -174t-181.5 -79q-61 -3 -99 -40q50 13 106.5 -4.5t114 -42
t99.5 -24.5q77 0 123 78l14 -7q-52 -143 -163 -143q-34 0 -72 19t-66.5 41.5t-62 41.5t-58.5 19zM484 238q0 50 -17 97.5t-60 83.5t-104 36t-104 -36t-60 -83.5t-17 -97.5t17 -97.5t60 -83.5t104 -36t104 36t60 83.5t17 97.5z" />
    <glyph glyph-name="Rsmall" unicode="&#xf772;" horiz-adv-x="497" 
d="M30 20q48 0 61.5 18.5t13.5 74.5v251q0 55 -13.5 73.5t-61.5 18.5v20h219q82 0 129.5 -39.5t47.5 -97.5q0 -51 -35.5 -88t-98.5 -46l68 -79q44 -51 78 -76.5t71 -30.5v-19h-140l-152 203h-32v-90q0 -56 13.5 -74.5t61.5 -18.5v-20h-230v20zM248 235q45 0 69 30.5t24 73.5
q0 42 -24 73t-69 31h-63v-208h63z" />
    <glyph glyph-name="Ssmall" unicode="&#xf773;" horiz-adv-x="414" 
d="M49 165h20q6 -53 42.5 -96.5t106.5 -43.5q42 0 68.5 22t26.5 55q0 32 -18.5 49.5t-73.5 44.5l-76 38q-90 45 -90 133q0 51 39.5 86.5t98.5 35.5t104 -39q13 10 23 39h15v-159h-19q-24 121 -125 121q-32 0 -52.5 -18.5t-20.5 -44.5q0 -28 18 -46t77 -47l75 -38
q44 -22 66 -55.5t22 -68.5q0 -64 -46 -105t-112 -41q-70 0 -128 46q-9 -6 -26 -42h-15v174z" />
    <glyph glyph-name="Tsmall" unicode="&#xf774;" horiz-adv-x="473" 
d="M120 20q48 0 62 18.5t14 74.5v329h-81q-31 0 -49.5 -10.5t-24 -21.5t-10.5 -31l-5 -20h-20l7 117h446l7 -117h-20l-5 20q-5 20 -10.5 31t-24 21.5t-49.5 10.5h-81v-329q0 -56 14 -74.5t62 -18.5v-20h-232v20z" />
    <glyph glyph-name="Usmall" unicode="&#xf775;" horiz-adv-x="580" 
d="M93 174v190q0 55 -13.5 73.5t-61.5 18.5v20h230v-20q-48 0 -61.5 -18.5t-13.5 -73.5v-194q0 -67 38.5 -105t94.5 -38q59 0 99 38t40 105v194q0 56 -13.5 74t-62.5 18v20h194v-20q-49 0 -62.5 -18t-13.5 -74v-190q0 -91 -55.5 -139t-141.5 -48t-141.5 48t-55.5 139z" />
    <glyph glyph-name="Vsmall" unicode="&#xf776;" horiz-adv-x="501" 
d="M273 106l129 291q13 28 -2 43.5t-61 15.5v20h192v-20q-11 0 -20.5 -0.5t-17 -3t-12.5 -3.5t-10.5 -7t-8 -7.5t-7 -10.5t-6 -11t-6.5 -14t-7 -16l-173 -389h-26l-174 389q-2 5 -7 15.5t-6.5 14.5t-5.5 11.5t-7 10t-8 7.5t-10 6.5t-12.5 4t-16.5 3t-20 0.5v20h236v-20
q-46 0 -61 -15.5t-2 -43.5z" />
    <glyph glyph-name="Wsmall" unicode="&#xf777;" horiz-adv-x="719" 
d="M395 476l128 -353l98 273q12 28 0 44t-54 16v20h183v-20q-44 0 -61 -15t-33 -57l-142 -390h-25l-129 345l-126 -345h-25l-147 390q-15 41 -32 56.5t-60 15.5v20h232v-20q-80 0 -58 -60l99 -273l128 353h24z" />
    <glyph glyph-name="Xsmall" unicode="&#xf778;" horiz-adv-x="538" 
d="M252 199l-93 -121q-19 -21 -11 -39.5t51 -18.5v-20h-193v20q28 0 52.5 13t36.5 25.5t30 35.5l107 134l-104 154q-16 25 -27.5 38t-33 24.5t-49.5 11.5v20h241v-20q-44 0 -55 -17.5t7 -40.5l75 -110l83 110q43 58 -40 58v20h192v-20q-14 0 -26 -1.5t-23 -7l-17 -8.5
t-15.5 -13t-12 -13t-12.5 -16t-12 -15l-97 -123l111 -165q25 -37 50 -55.5t65 -18.5v-20h-241v20q43 0 52.5 17.5t-9.5 40.5z" />
    <glyph glyph-name="Ysmall" unicode="&#xf779;" horiz-adv-x="508" 
d="M281 234l112 164q39 58 -44 58v20h188v-20q-13 0 -24 -2t-18.5 -3t-16.5 -7t-12.5 -8t-11.5 -12t-9.5 -11.5t-10.5 -15t-10 -15.5l-130 -192v-77q0 -56 13.5 -74.5t61.5 -18.5v-20h-230v20q48 0 61.5 18.5t13.5 74.5v78l-127 191q-28 42 -49.5 58t-62.5 16v20h239v-20
q-44 0 -53 -18t9 -40z" />
    <glyph glyph-name="Zsmall" unicode="&#xf77a;" horiz-adv-x="452" 
d="M34 27l263 413h-145q-31 0 -50 -10t-24.5 -20.5t-10.5 -30.5l-5 -20h-19l7 117h349v-18l-268 -422h177q24 0 40 5t25 15t12.5 18.5t7.5 23.5l5 20h20l-7 -118h-377v27z" />
    <glyph glyph-name="Agravesmall" unicode="&#xf7e0;" horiz-adv-x="501" 
d="M-30 20q10 0 18.5 1t15.5 1.5t13 3.5t9.5 4.5t8 7t6.5 7t6.5 10t5.5 11t5.5 13t6.5 14.5l173 389h26l173 -389q21 -47 30 -56q18 -17 64 -17v-20h-236v20q47 0 61.5 14.5t0.5 44.5l-38 85h-183l-37 -85q-14 -30 0.5 -44.5t61.5 -14.5v-20h-191v20zM304 198l-76 176
l-77 -176h153zM328 543l-138 58q-7 3 -14.5 11.5t-7.5 18.5q0 12 9 21t21 9q8 0 15 -3t11.5 -7l15.5 -14l92 -87z" />
    <glyph glyph-name="Aacutesmall" unicode="&#xf7e1;" horiz-adv-x="501" 
d="M-30 20q10 0 18.5 1t15.5 1.5t13 3.5t9.5 4.5t8 7t6.5 7t6.5 10t5.5 11t5.5 13t6.5 14.5l173 389h26l173 -389q21 -47 30 -56q18 -17 64 -17v-20h-236v20q47 0 61.5 14.5t0.5 44.5l-38 85h-183l-37 -85q-14 -30 0.5 -44.5t61.5 -14.5v-20h-191v20zM304 198l-76 176
l-77 -176h153zM173 543l-4 7l92 87q25 24 42 24q12 0 21 -9t9 -21q0 -10 -7.5 -18.5t-14.5 -11.5z" />
    <glyph glyph-name="Acircumflexsmall" unicode="&#xf7e2;" horiz-adv-x="501" 
d="M-30 20q10 0 18.5 1t15.5 1.5t13 3.5t9.5 4.5t8 7t6.5 7t6.5 10t5.5 11t5.5 13t6.5 14.5l173 389h26l173 -389q21 -47 30 -56q18 -17 64 -17v-20h-236v20q47 0 61.5 14.5t0.5 44.5l-38 85h-183l-37 -85q-14 -30 0.5 -44.5t61.5 -14.5v-20h-191v20zM304 198l-76 176
l-77 -176h153zM144 546l-13 11l119 130l119 -130l-13 -11l-106 76z" />
    <glyph glyph-name="Atildesmall" unicode="&#xf7e3;" horiz-adv-x="501" 
d="M-30 20q10 0 18.5 1t15.5 1.5t13 3.5t9.5 4.5t8 7t6.5 7t6.5 10t5.5 11t5.5 13t6.5 14.5l173 389h26l173 -389q21 -47 30 -56q18 -17 64 -17v-20h-236v20q47 0 61.5 14.5t0.5 44.5l-38 85h-183l-37 -85q-14 -30 0.5 -44.5t61.5 -14.5v-20h-191v20zM304 198l-76 176
l-77 -176h153zM306 550q-20 0 -62 26t-60 26q-32 0 -43 -48h-16q0 94 68 94q21 0 63 -26t59 -26q32 0 43 48h16q0 -94 -68 -94z" />
    <glyph glyph-name="Adieresissmall" unicode="&#xf7e4;" horiz-adv-x="501" 
d="M-30 20q10 0 18.5 1t15.5 1.5t13 3.5t9.5 4.5t8 7t6.5 7t6.5 10t5.5 11t5.5 13t6.5 14.5l173 389h26l173 -389q21 -47 30 -56q18 -17 64 -17v-20h-236v20q47 0 61.5 14.5t0.5 44.5l-38 85h-183l-37 -85q-14 -30 0.5 -44.5t61.5 -14.5v-20h-191v20zM304 198l-76 176
l-77 -176h153zM333 625q17 0 28.5 -11.5t11.5 -28.5q0 -16 -11.5 -27.5t-28.5 -11.5t-28.5 11.5t-11.5 27.5q0 17 11.5 28.5t28.5 11.5zM167 625q17 0 28.5 -11.5t11.5 -28.5q0 -16 -11.5 -27.5t-28.5 -11.5t-28.5 11.5t-11.5 27.5q0 17 11.5 28.5t28.5 11.5z" />
    <glyph glyph-name="Aringsmall" unicode="&#xf7e5;" horiz-adv-x="501" 
d="M-30 20q10 0 18.5 1t15.5 1.5t13 3.5t9.5 4.5t8 7t6.5 7t6.5 10t5.5 11t5.5 13t6.5 14.5l173 389h26l173 -389q21 -47 30 -56q18 -17 64 -17v-20h-236v20q47 0 61.5 14.5t0.5 44.5l-38 85h-183l-37 -85q-14 -30 0.5 -44.5t61.5 -14.5v-20h-191v20zM304 198l-76 176
l-77 -176h153zM250 711q34 0 58.5 -24.5t24.5 -58.5t-24 -58t-59 -24t-59 24t-24 58t24.5 58.5t58.5 24.5zM250 677q-20 0 -34.5 -14.5t-14.5 -34.5t14.5 -34t34.5 -14t34.5 14t14.5 34t-14.5 34.5t-34.5 14.5z" />
    <glyph glyph-name="AEsmall" unicode="&#xf7e6;" horiz-adv-x="642" 
d="M273 198v220l-116 -220h116zM572 476l7 -117h-19l-5 20q-5 20 -10.5 31t-24.5 21.5t-50 10.5h-117v-174h40q54 0 69 13.5t15 63.5h21v-188h-21q0 49 -15 63t-69 14h-40v-119q0 -53 12 -67t56 -14h75q24 0 40 5t25 16t12.5 19.5t7.5 23.5l5 20h19l-6 -118h-401v20
q48 0 61.5 18.5t13.5 74.5v51h-133l-46 -85q-33 -59 50 -59v-20h-190v20q44 0 64.5 15.5t43.5 57.5l203 383h307z" />
    <glyph glyph-name="Ccedillasmall" unicode="&#xf7e7;" horiz-adv-x="550" 
d="M264 -11q-96 10 -157.5 81t-61.5 168q0 105 71 178t179 73q89 0 155 -66q19 15 24 46h17v-173h-19q-16 75 -62.5 114t-111.5 39q-83 0 -123 -64.5t-40 -146.5t40 -146.5t123 -64.5q64 0 111 40t63 113h19v-173h-17q-6 30 -23 47q-66 -64 -149 -67l-40 -40q31 -2 59 -21.5
t28 -54.5q0 -33 -29 -56.5t-57 -32t-56 -11.5v22q87 19 87 68q0 31 -34 42.5t-69 -1.5v13z" />
    <glyph glyph-name="Egravesmall" unicode="&#xf7e8;" horiz-adv-x="474" 
d="M30 20q48 0 61.5 18.5t13.5 74.5v251q0 55 -13.5 73.5t-61.5 18.5v20h374l7 -117h-19l-5 20q-5 20 -10.5 31t-24.5 21.5t-50 10.5h-117v-174h40q54 0 69 13.5t15 63.5h21v-188h-21q0 49 -15 63t-69 14h-40v-119q0 -53 12 -67t56 -14h75q24 0 40 5t25 16t12.5 19.5
t7.5 23.5l5 20h19l-6 -118h-401v20zM325 543l-138 58q-7 3 -14.5 11.5t-7.5 18.5q0 12 9 21t21 9q17 0 42 -24l92 -87z" />
    <glyph glyph-name="Eacutesmall" unicode="&#xf7e9;" horiz-adv-x="474" 
d="M30 20q48 0 61.5 18.5t13.5 74.5v251q0 55 -13.5 73.5t-61.5 18.5v20h374l7 -117h-19l-5 20q-5 20 -10.5 31t-24.5 21.5t-50 10.5h-117v-174h40q54 0 69 13.5t15 63.5h21v-188h-21q0 49 -15 63t-69 14h-40v-119q0 -53 12 -67t56 -14h75q24 0 40 5t25 16t12.5 19.5
t7.5 23.5l5 20h19l-6 -118h-401v20zM180 543l-4 7l92 87l15.5 14t11.5 7t15 3q12 0 21 -9t9 -21q0 -10 -7.5 -18.5t-14.5 -11.5z" />
    <glyph glyph-name="Ecircumflexsmall" unicode="&#xf7ea;" horiz-adv-x="474" 
d="M30 20q48 0 61.5 18.5t13.5 74.5v251q0 55 -13.5 73.5t-61.5 18.5v20h374l7 -117h-19l-5 20q-5 20 -10.5 31t-24.5 21.5t-50 10.5h-117v-174h40q54 0 69 13.5t15 63.5h21v-188h-21q0 49 -15 63t-69 14h-40v-119q0 -53 12 -67t56 -14h75q24 0 40 5t25 16t12.5 19.5
t7.5 23.5l5 20h19l-6 -118h-401v20zM141 546l-13 11l119 130l119 -130l-13 -11l-106 76z" />
    <glyph glyph-name="Edieresissmall" unicode="&#xf7eb;" horiz-adv-x="474" 
d="M30 20q48 0 61.5 18.5t13.5 74.5v251q0 55 -13.5 73.5t-61.5 18.5v20h374l7 -117h-19l-5 20q-5 20 -10.5 31t-24.5 21.5t-50 10.5h-117v-174h40q54 0 69 13.5t15 63.5h21v-188h-21q0 49 -15 63t-69 14h-40v-119q0 -53 12 -67t56 -14h75q24 0 40 5t25 16t12.5 19.5
t7.5 23.5l5 20h19l-6 -118h-401v20zM330 625q16 0 28 -11.5t12 -28.5q0 -16 -11.5 -27.5t-28.5 -11.5t-28.5 11.5t-11.5 27.5q0 17 12 28.5t28 11.5zM164 625q16 0 28 -11.5t12 -28.5q0 -16 -11.5 -27.5t-28.5 -11.5t-28.5 11.5t-11.5 27.5q0 17 12 28.5t28 11.5z" />
    <glyph glyph-name="Igravesmall" unicode="&#xf7ec;" horiz-adv-x="290" 
d="M30 20q48 0 61.5 18.5t13.5 74.5v251q0 55 -13.5 73.5t-61.5 18.5v20h230v-20q-48 0 -61.5 -18.5t-13.5 -73.5v-251q0 -56 13.5 -74.5t61.5 -18.5v-20h-230v20zM223 543l-138 58q-7 3 -14.5 11.5t-7.5 18.5q0 12 9 21t21 9q17 0 42 -24l92 -87z" />
    <glyph glyph-name="Iacutesmall" unicode="&#xf7ed;" horiz-adv-x="290" 
d="M30 20q48 0 61.5 18.5t13.5 74.5v251q0 55 -13.5 73.5t-61.5 18.5v20h230v-20q-48 0 -61.5 -18.5t-13.5 -73.5v-251q0 -56 13.5 -74.5t61.5 -18.5v-20h-230v20zM68 543l-4 7l92 87l15.5 14t11.5 7t15 3q12 0 21 -9t9 -21q0 -10 -7.5 -18.5t-14.5 -11.5z" />
    <glyph glyph-name="Icircumflexsmall" unicode="&#xf7ee;" horiz-adv-x="290" 
d="M30 20q48 0 61.5 18.5t13.5 74.5v251q0 55 -13.5 73.5t-61.5 18.5v20h230v-20q-48 0 -61.5 -18.5t-13.5 -73.5v-251q0 -56 13.5 -74.5t61.5 -18.5v-20h-230v20zM39 546l-13 11l119 130l119 -130l-13 -11l-106 76z" />
    <glyph glyph-name="Idieresissmall" unicode="&#xf7ef;" horiz-adv-x="290" 
d="M30 20q48 0 61.5 18.5t13.5 74.5v251q0 55 -13.5 73.5t-61.5 18.5v20h230v-20q-48 0 -61.5 -18.5t-13.5 -73.5v-251q0 -56 13.5 -74.5t61.5 -18.5v-20h-230v20zM228 625q16 0 28 -11.5t12 -28.5q0 -16 -11.5 -27.5t-28.5 -11.5t-28.5 11.5t-11.5 27.5q0 17 12 28.5
t28 11.5zM62 625q16 0 28 -11.5t12 -28.5q0 -16 -11.5 -27.5t-28.5 -11.5t-28.5 11.5t-11.5 27.5q0 17 12 28.5t28 11.5z" />
    <glyph glyph-name="Ethsmall" unicode="&#xf7f0;" horiz-adv-x="606" 
d="M185 260h84v-42h-84v-102q0 -53 10.5 -67.5t53.5 -14.5h11q53 0 90.5 19t55.5 51t26 64.5t8 69.5t-8 69.5t-26 64.5t-55.5 51t-90.5 19h-75v-182zM105 218h-77v42h77v104q0 55 -13.5 73.5t-61.5 18.5v20h229q135 0 203 -66.5t68 -171.5t-68 -171.5t-203 -66.5h-229v20
q48 0 61.5 18.5t13.5 74.5v105z" />
    <glyph glyph-name="Ntildesmall" unicode="&#xf7f1;" horiz-adv-x="582" 
d="M145 360v-247q0 -56 14 -74.5t62 -18.5v-20h-191v20q48 0 61.5 18.5t13.5 74.5v251q0 55 -13.5 73.5t-61.5 18.5v20h121l292 -348v236q0 55 -13.5 73.5t-61.5 18.5v20h191v-20q-49 0 -62.5 -18t-13.5 -74v-373h-28zM350 550q-20 0 -62 26t-60 26q-32 0 -43 -48h-16
q0 94 68 94q21 0 63 -26t59 -26q32 0 43 48h16q0 -94 -68 -94z" />
    <glyph glyph-name="Ogravesmall" unicode="&#xf7f2;" horiz-adv-x="606" 
d="M32 238q0 105 77.5 179.5t193.5 74.5t193.5 -74.5t77.5 -179.5t-77.5 -179.5t-193.5 -74.5t-193.5 74.5t-77.5 179.5zM484 238q0 50 -17 97.5t-60 83.5t-104 36t-104 -36t-60 -83.5t-17 -97.5t17 -97.5t60 -83.5t104 -36t104 36t60 83.5t17 97.5zM371 543l-138 58
q-7 3 -14.5 11.5t-7.5 18.5q0 12 9 21t21 9q17 0 42 -24l92 -87z" />
    <glyph glyph-name="Oacutesmall" unicode="&#xf7f3;" horiz-adv-x="606" 
d="M32 238q0 105 77.5 179.5t193.5 74.5t193.5 -74.5t77.5 -179.5t-77.5 -179.5t-193.5 -74.5t-193.5 74.5t-77.5 179.5zM484 238q0 50 -17 97.5t-60 83.5t-104 36t-104 -36t-60 -83.5t-17 -97.5t17 -97.5t60 -83.5t104 -36t104 36t60 83.5t17 97.5zM236 543l-4 7l92 87
l15.5 14t11.5 7t15 3q12 0 21 -9t9 -21q0 -10 -7.5 -18.5t-14.5 -11.5z" />
    <glyph glyph-name="Ocircumflexsmall" unicode="&#xf7f4;" horiz-adv-x="606" 
d="M32 238q0 105 77.5 179.5t193.5 74.5t193.5 -74.5t77.5 -179.5t-77.5 -179.5t-193.5 -74.5t-193.5 74.5t-77.5 179.5zM484 238q0 50 -17 97.5t-60 83.5t-104 36t-104 -36t-60 -83.5t-17 -97.5t17 -97.5t60 -83.5t104 -36t104 36t60 83.5t17 97.5zM197 546l-13 11l119 130
l119 -130l-13 -11l-106 76z" />
    <glyph glyph-name="Otildesmall" unicode="&#xf7f5;" horiz-adv-x="606" 
d="M32 238q0 105 77.5 179.5t193.5 74.5t193.5 -74.5t77.5 -179.5t-77.5 -179.5t-193.5 -74.5t-193.5 74.5t-77.5 179.5zM484 238q0 50 -17 97.5t-60 83.5t-104 36t-104 -36t-60 -83.5t-17 -97.5t17 -97.5t60 -83.5t104 -36t104 36t60 83.5t17 97.5zM357 550q-21 0 -63 26
t-59 26q-32 0 -43 -48h-16q0 94 68 94q20 0 62 -26t60 -26q32 0 43 48h16q0 -94 -68 -94z" />
    <glyph glyph-name="Odieresissmall" unicode="&#xf7f6;" horiz-adv-x="606" 
d="M32 238q0 105 77.5 179.5t193.5 74.5t193.5 -74.5t77.5 -179.5t-77.5 -179.5t-193.5 -74.5t-193.5 74.5t-77.5 179.5zM484 238q0 50 -17 97.5t-60 83.5t-104 36t-104 -36t-60 -83.5t-17 -97.5t17 -97.5t60 -83.5t104 -36t104 36t60 83.5t17 97.5zM386 625q16 0 28 -11.5
t12 -28.5q0 -16 -11.5 -27.5t-28.5 -11.5t-28.5 11.5t-11.5 27.5q0 17 12 28.5t28 11.5zM220 625q16 0 28 -11.5t12 -28.5q0 -16 -11.5 -27.5t-28.5 -11.5t-28.5 11.5t-11.5 27.5q0 17 12 28.5t28 11.5z" />
    <glyph glyph-name="Oslashsmall" unicode="&#xf7f8;" horiz-adv-x="606" 
d="M428 399l-219 -350q39 -28 94 -28q61 0 104 36t60 83.5t17 97.5q0 98 -56 161zM178 76l220 350q-40 29 -95 29q-61 0 -104 -36t-60 -83.5t-17 -97.5q0 -97 56 -162zM148 28q-54 35 -85 90.5t-31 119.5q0 105 77.5 179.5t193.5 74.5q64 0 120 -25l29 46l35 -20l-29 -45
q54 -36 85 -91t31 -119q0 -105 -77.5 -179.5t-193.5 -74.5q-64 0 -119 25l-29 -46l-35 20z" />
    <glyph glyph-name="Ugravesmall" unicode="&#xf7f9;" horiz-adv-x="580" 
d="M93 174v190q0 55 -13.5 73.5t-61.5 18.5v20h230v-20q-48 0 -61.5 -18.5t-13.5 -73.5v-194q0 -67 38.5 -105t94.5 -38q59 0 99 38t40 105v194q0 56 -13.5 74t-62.5 18v20h194v-20q-49 0 -62.5 -18t-13.5 -74v-190q0 -91 -55.5 -139t-141.5 -48t-141.5 48t-55.5 139z
M358 543l-138 58q-7 3 -14.5 11.5t-7.5 18.5q0 12 9 21t21 9q8 0 15 -3t11.5 -7l15.5 -14l92 -87z" />
    <glyph glyph-name="Uacutesmall" unicode="&#xf7fa;" horiz-adv-x="580" 
d="M93 174v190q0 55 -13.5 73.5t-61.5 18.5v20h230v-20q-48 0 -61.5 -18.5t-13.5 -73.5v-194q0 -67 38.5 -105t94.5 -38q59 0 99 38t40 105v194q0 56 -13.5 74t-62.5 18v20h194v-20q-49 0 -62.5 -18t-13.5 -74v-190q0 -91 -55.5 -139t-141.5 -48t-141.5 48t-55.5 139z
M253 543l-4 7l92 87l15.5 14t11.5 7t15 3q12 0 21 -9t9 -21q0 -10 -7.5 -18.5t-14.5 -11.5z" />
    <glyph glyph-name="Ucircumflexsmall" unicode="&#xf7fb;" horiz-adv-x="580" 
d="M93 174v190q0 55 -13.5 73.5t-61.5 18.5v20h230v-20q-48 0 -61.5 -18.5t-13.5 -73.5v-194q0 -67 38.5 -105t94.5 -38q59 0 99 38t40 105v194q0 56 -13.5 74t-62.5 18v20h194v-20q-49 0 -62.5 -18t-13.5 -74v-190q0 -91 -55.5 -139t-141.5 -48t-141.5 48t-55.5 139z
M199 546l-13 11l119 130l119 -130l-13 -11l-106 76z" />
    <glyph glyph-name="Udieresissmall" unicode="&#xf7fc;" horiz-adv-x="580" 
d="M93 174v190q0 55 -13.5 73.5t-61.5 18.5v20h230v-20q-48 0 -61.5 -18.5t-13.5 -73.5v-194q0 -67 38.5 -105t94.5 -38q59 0 99 38t40 105v194q0 56 -13.5 74t-62.5 18v20h194v-20q-49 0 -62.5 -18t-13.5 -74v-190q0 -91 -55.5 -139t-141.5 -48t-141.5 48t-55.5 139z
M388 625q16 0 28 -11.5t12 -28.5q0 -16 -11.5 -27.5t-28.5 -11.5t-28.5 11.5t-11.5 27.5q0 17 12 28.5t28 11.5zM222 625q16 0 28 -11.5t12 -28.5q0 -16 -11.5 -27.5t-28.5 -11.5t-28.5 11.5t-11.5 27.5q0 17 12 28.5t28 11.5z" />
    <glyph glyph-name="Yacutesmall" unicode="&#xf7fd;" horiz-adv-x="508" 
d="M281 234l112 164q39 58 -44 58v20h188v-20q-13 0 -24 -2t-18.5 -3t-16.5 -7t-12.5 -8t-11.5 -12t-9.5 -11.5t-10.5 -15t-10 -15.5l-130 -192v-77q0 -56 13.5 -74.5t61.5 -18.5v-20h-230v20q48 0 61.5 18.5t13.5 74.5v78l-127 191q-28 42 -49.5 58t-62.5 16v20h239v-20
q-44 0 -53 -18t9 -40zM224 543l-4 7l92 87l15.5 14t11.5 7t15 3q12 0 21 -9t9 -21q0 -10 -7.5 -18.5t-14.5 -11.5z" />
    <glyph glyph-name="Thornsmall" unicode="&#xf7fe;" horiz-adv-x="438" 
d="M245 146q45 0 69 26.5t24 67.5t-24 67.5t-69 26.5h-60v-188h60zM105 364q0 55 -13.5 73.5t-61.5 18.5v20h230v-20q-47 0 -61 -18t-14 -71h61q85 0 130.5 -31t45.5 -87q0 -59 -46.5 -97.5t-129.5 -38.5h-61q0 -56 13.5 -74.5t61.5 -18.5v-20h-230v20q48 0 61.5 18.5
t13.5 74.5v251z" />
    <glyph glyph-name="Ydieresissmall" unicode="&#xf7ff;" horiz-adv-x="508" 
d="M281 234l112 164q39 58 -44 58v20h188v-20q-13 0 -24 -2t-18.5 -3t-16.5 -7t-12.5 -8t-11.5 -12t-9.5 -11.5t-10.5 -15t-10 -15.5l-130 -192v-77q0 -56 13.5 -74.5t61.5 -18.5v-20h-230v20q48 0 61.5 18.5t13.5 74.5v78l-127 191q-28 42 -49.5 58t-62.5 16v20h239v-20
q-44 0 -53 -18t9 -40zM359 625q17 0 28.5 -11.5t11.5 -28.5q0 -16 -11.5 -27.5t-28.5 -11.5t-28.5 11.5t-11.5 27.5q0 17 11.5 28.5t28.5 11.5zM193 625q17 0 28.5 -11.5t11.5 -28.5q0 -16 -11.5 -27.5t-28.5 -11.5t-28.5 11.5t-11.5 27.5q0 17 11.5 28.5t28.5 11.5z" />
    <glyph glyph-name="DLE" horiz-adv-x="472" 
d="M350 209l76 -76l-35 -34l-76 76q-36 -25 -80 -25t-79 24l-76 -75l-34 35l75 74q-26 35 -26 81t25 80l-74 75l34 35l75 -75q36 25 80 25q46 0 80 -26l76 76l35 -34l-76 -76q25 -36 25 -80t-25 -80zM235 383q-39 0 -66.5 -27.5t-27.5 -66.5t27.5 -66t66.5 -27t66.5 27
t27.5 66t-27.5 66.5t-66.5 27.5z" />
    <glyph glyph-name="dotlessi.small" horiz-adv-x="290" 
d="M30 20q48 0 61.5 18.5t13.5 74.5v251q0 55 -13.5 73.5t-61.5 18.5v20h230v-20q-48 0 -61.5 -18.5t-13.5 -73.5v-251q0 -56 13.5 -74.5t61.5 -18.5v-20h-230v20z" />
    <glyph glyph-name="germandbls.small" horiz-adv-x="828" 
d="M49 165h20q6 -53 42.5 -96.5t106.5 -43.5q42 0 68.5 22t26.5 55q0 32 -18.5 49.5t-73.5 44.5l-76 38q-90 45 -90 133q0 51 39.5 86.5t98.5 35.5t104 -39q13 10 23 39h15v-159h-19q-24 121 -125 121q-32 0 -52.5 -18.5t-20.5 -44.5q0 -28 18 -46t77 -47l75 -38
q44 -22 66 -55.5t22 -68.5q0 -64 -46 -105t-112 -41q-70 0 -128 46q-9 -6 -26 -42h-15v174zM463 165h20q6 -53 42.5 -96.5t106.5 -43.5q42 0 68.5 22t26.5 55q0 32 -18.5 49.5t-73.5 44.5l-76 38q-90 45 -90 133q0 51 39.5 86.5t98.5 35.5t104 -39q13 10 23 39h15v-159h-19
q-24 121 -125 121q-32 0 -52.5 -18.5t-20.5 -44.5q0 -28 18 -46t77 -47l75 -38q44 -22 66 -55.5t22 -68.5q0 -64 -46 -105t-112 -41q-70 0 -128 46q-9 -6 -26 -42h-15v174z" />
    <glyph glyph-name="zero.oprp" horiz-adv-x="566" 
d="M283 -16q-99 0 -167.5 68.5t-68.5 163.5t68.5 163.5t167.5 68.5q98 0 167 -68.5t69 -163.5t-69 -163.5t-167 -68.5zM283 24q72 0 110.5 53.5t38.5 138.5q0 84 -38.5 138t-110.5 54t-110.5 -54t-38.5 -138q0 -85 38.5 -138.5t110.5 -53.5z" />
    <glyph glyph-name="one.oprp" horiz-adv-x="347" 
d="M45 0v21q55 0 72 21.5t17 95.5v148q0 70 -22.5 90t-81.5 19v20l182 34v-311q0 -74 17 -95.5t72 -21.5v-21h-256z" />
    <glyph glyph-name="two.oprp" horiz-adv-x="507" 
d="M409 -86q0 54 -23 70t-103 16h-230v26l192 135q104 73 104 144q0 46 -32.5 73.5t-84.5 27.5q-49 0 -78 -23.5t-29 -62.5q0 -32 20 -50l-26 -25q-28 5 -51 27.5t-23 52.5q0 53 50 87t137 34q84 0 145.5 -38t61.5 -102q0 -75 -100 -136l-176 -107h290l-26 -149h-18z" />
    <glyph glyph-name="three.oprp" horiz-adv-x="512" 
d="M249 -199q-86 0 -142.5 35.5t-56.5 69.5q0 31 32 31q11 0 18.5 -9t16 -25t17.5 -25q37 -39 107 -39q62 0 92 36.5t30 94.5q0 50 -25.5 93t-79.5 54q-7 -6 -18 -18.5t-20.5 -20t-18.5 -7.5q-8 0 -15 6t-7 16q0 18 27 38l78 58q68 51 68 123q0 43 -31 68.5t-82 25.5
q-45 0 -78 -26.5t-33 -66.5q0 -25 17 -57l-28 -29q-64 36 -64 93q0 51 50 88.5t136 37.5q80 0 140 -37t60 -97q0 -36 -24.5 -69.5t-48.5 -49.5l-24 -16l-48 -35q74 -15 119 -63.5t45 -108.5q0 -69 -60.5 -119t-148.5 -50z" />
    <glyph glyph-name="four.oprp" horiz-adv-x="530" 
d="M352 450v-413h4q65 0 83.5 14.5t30.5 61.5l5 20h20l-11 -133h-132v-53q0 -74 17 -95.5t72 -21.5v-21h-256v21q56 0 72.5 21.5t16.5 95.5v53h-257v19l316 431h19zM274 37v273l-200 -273h200z" />
    <glyph glyph-name="five.oprp" horiz-adv-x="493" 
d="M227 -199q-76 0 -126 35.5t-50 70.5q0 30 32 30q13 0 24 -15.5t20 -33.5t35 -33.5t65 -15.5q62 0 94.5 49.5t32.5 124.5t-32 121.5t-95 46.5q-106 0 -123 -98h-39l31 349h197q66 0 85.5 13t29.5 56h21l-24 -144h-276l-15 -178q17 19 52.5 31.5t69.5 12.5
q89 0 148.5 -61.5t59.5 -148.5q0 -86 -64.5 -149t-152.5 -63z" />
    <glyph glyph-name="six.oprp" 
d="M260 -14q-26 0 -52 6.5t-55.5 26t-51.5 50t-37 82t-15 118.5q0 88 26 165.5t82.5 130t131.5 52.5q61 0 108 -25t47 -54q0 -12 -8 -20.5t-20 -8.5q-13 0 -26.5 11t-24 24t-30.5 24t-46 11q-41 0 -70.5 -20t-46 -57t-24.5 -80t-10 -100q18 24 56.5 41.5t80.5 17.5
q84 0 140 -54t56 -143q0 -88 -62 -143t-149 -55zM260 23q64 0 93.5 44.5t29.5 117.5q0 66 -27.5 111t-85.5 45q-42 0 -83 -22t-50 -52q0 -131 37 -187.5t86 -56.5z" />
    <glyph glyph-name="seven.oprp" horiz-adv-x="426" 
d="M151 -199q-17 0 -29 11.5t-12 32.5q0 42 35 110l209 402h-189q-66 0 -83 -11.5t-28 -54.5l-5 -20h-21l39 230h18q0 -44 21 -56.5t98 -12.5h206v-28l-145 -335q-54 -127 -65 -202q-5 -36 -16.5 -51t-32.5 -15z" />
    <glyph glyph-name="eight.oprp" horiz-adv-x="533" 
d="M279 359q40 21 65 56.5t25 75.5q0 36 -26.5 62.5t-73.5 26.5q-48 0 -75.5 -26.5t-27.5 -62.5q0 -44 29.5 -73.5t83.5 -58.5zM266 23q63 0 101 35t38 83q0 66 -86 120q-18 11 -82 46q-107 -59 -107 -158q0 -54 36.5 -90t99.5 -36zM266 -14q-89 0 -153 47t-64 116
q0 37 12.5 66t37 49.5t48 33.5t57.5 27q-56 33 -87.5 68t-31.5 82q0 61 55 101.5t129 40.5q73 0 125.5 -39.5t52.5 -94.5q0 -48 -36 -80t-99 -60q41 -20 63.5 -32.5t51.5 -35.5t42.5 -52t13.5 -66q0 -74 -64 -122.5t-153 -48.5z" />
    <glyph glyph-name="nine.oprp" 
d="M226 -199q-61 0 -108 25t-47 54q0 12 8.5 20.5t19.5 8.5q13 0 26.5 -11t24 -24t30.5 -24t46 -11q139 0 151 271q-18 -24 -56.5 -41.5t-80.5 -17.5q-84 0 -140 54t-56 143q0 88 62 143t149 55q26 0 52 -6.5t55.5 -26t51.5 -50t37 -82t15 -118.5q0 -89 -26 -169.5
t-82.5 -136.5t-131.5 -56zM245 91q42 0 83 22t50 52q0 131 -37 187.5t-86 56.5q-64 0 -93.5 -44.5t-29.5 -117.5q0 -66 27.5 -111t85.5 -45z" />
    <glyph glyph-name="zero.otab" 
d="M258 -16q-91 0 -151 68t-60 164t60 164t151 68q90 0 150.5 -68t60.5 -164t-60.5 -164t-150.5 -68zM258 24q61 0 92.5 53.5t31.5 138.5t-31.5 138.5t-92.5 53.5t-92.5 -53.5t-31.5 -138.5t31.5 -138.5t92.5 -53.5z" />
    <glyph glyph-name="one.otab" 
d="M119 0v21q57 0 78 22.5t21 94.5v148q0 69 -26.5 89.5t-87.5 19.5v20l192 34v-311q0 -72 21 -94.5t78 -22.5v-21h-276z" />
    <glyph glyph-name="two.otab" 
d="M413 -86q0 54 -23 70t-103 16h-230v26l192 135q104 73 104 144q0 46 -32.5 73.5t-84.5 27.5q-49 0 -78 -23.5t-29 -62.5q0 -32 20 -50l-26 -25q-28 5 -51 27.5t-23 52.5q0 53 50 87t137 34q84 0 145.5 -38t61.5 -102q0 -75 -100 -136l-176 -107h290l-26 -149h-18z" />
    <glyph glyph-name="three.otab" 
d="M250 -199q-86 0 -142.5 35.5t-56.5 69.5q0 31 32 31q11 0 18.5 -9t16 -25t17.5 -25q37 -39 107 -39q62 0 92 36.5t30 94.5q0 50 -25.5 93t-79.5 54q-7 -6 -18 -18.5t-20.5 -20t-18.5 -7.5q-8 0 -15 6t-7 16q0 18 27 38l78 58q68 51 68 123q0 43 -31 68.5t-82 25.5
q-45 0 -78 -26.5t-33 -66.5q0 -25 17 -57l-28 -29q-64 36 -64 93q0 51 50 88.5t136 37.5q80 0 140 -37t60 -97q0 -22 -10 -44.5t-24 -38t-28.5 -28t-24.5 -18.5l-10 -6l-48 -35q74 -15 119 -63.5t45 -108.5q0 -69 -60.5 -119t-148.5 -50z" />
    <glyph glyph-name="four.otab" 
d="M350 450v-413h4q14 0 25 1t19.5 1t15.5 3.5t12 4t9 7t6 7.5t5.5 10.5t4 11t3.5 14.5t4 16l5 20h20l-11 -133h-122v-53q0 -74 17 -95.5t72 -21.5v-21h-256v21q56 0 72.5 21.5t16.5 95.5v53h-257v19l316 431h19zM272 37v273l-200 -273h200z" />
    <glyph glyph-name="five.otab" 
d="M238 -199q-76 0 -126 35.5t-50 70.5q0 30 32 30q13 0 24 -15.5t20 -33.5t35 -33.5t65 -15.5q62 0 94.5 49.5t32.5 124.5t-32 121.5t-95 46.5q-106 0 -123 -98h-39l31 349h197q66 0 85.5 13t29.5 56h21l-24 -144h-276l-15 -178q17 19 52.5 31.5t69.5 12.5
q89 0 148.5 -61.5t59.5 -148.5q0 -86 -64.5 -149t-152.5 -63z" />
    <glyph glyph-name="six.otab" 
d="M260 -14q-26 0 -52 6.5t-55.5 26t-51.5 50t-37 82t-15 118.5q0 88 26 165.5t82.5 130t131.5 52.5q61 0 108 -25t47 -54q0 -12 -8 -20.5t-20 -8.5q-13 0 -26.5 11t-24 24t-30.5 24t-46 11q-41 0 -70.5 -20t-46 -57t-24.5 -80t-10 -100q18 24 56.5 41.5t80.5 17.5
q84 0 140 -54t56 -143q0 -88 -62 -143t-149 -55zM260 23q64 0 93.5 44.5t29.5 117.5q0 66 -27.5 111t-85.5 45q-42 0 -83 -22t-50 -52q0 -131 37 -187.5t86 -56.5z" />
    <glyph glyph-name="seven.otab" 
d="M190 -199q-17 0 -29 11.5t-12 32.5q0 45 35 110l224 402h-209q-66 0 -83 -11.5t-28 -54.5l-5 -20h-21l39 230h18q0 -44 21 -56.5t98 -12.5h226v-28l-160 -335q-52 -108 -65 -202q-5 -36 -16.5 -51t-32.5 -15z" />
    <glyph glyph-name="eight.otab" 
d="M270 359q80 42 80 132q0 36 -23 62.5t-67 26.5t-68.5 -26.5t-24.5 -62.5q0 -45 26.5 -75t76.5 -57zM257 23q59 0 94 35t35 83q0 29 -11.5 53t-39 45.5t-47 33.5t-60.5 34q-97 -53 -97 -158q0 -54 33.5 -90t92.5 -36zM257 -14q-85 0 -146 47t-61 116q0 70 38 109t107 67
q-109 64 -109 150q0 61 52 101.5t122 40.5q69 0 118.5 -39.5t49.5 -94.5q0 -49 -32.5 -81.5t-92.5 -58.5q38 -18 61.5 -32t49 -36.5t38 -51.5t12.5 -66q0 -74 -61 -122.5t-146 -48.5z" />
    <glyph glyph-name="nine.otab" 
d="M226 -199q-61 0 -108 25t-47 54q0 12 8.5 20.5t19.5 8.5q13 0 26.5 -11t24 -24t30.5 -24t46 -11q139 0 151 271q-18 -24 -56.5 -41.5t-80.5 -17.5q-84 0 -140 54t-56 143q0 88 62 143t149 55q26 0 52 -6.5t55.5 -26t51.5 -50t37 -82t15 -118.5q0 -89 -26 -169.5
t-82.5 -136.5t-131.5 -56zM245 91q42 0 83 22t50 52q0 131 -37 187.5t-86 56.5q-64 0 -93.5 -44.5t-29.5 -117.5q0 -66 27.5 -111t85.5 -45z" />
    <glyph glyph-name="zero.ltab" 
d="M258 -14q-90 0 -149.5 88t-59.5 228t59.5 227.5t149.5 87.5q93 0 151 -87t58 -228t-58.5 -228.5t-150.5 -87.5zM258 26q118 0 118 276q0 275 -118 275t-118 -275q0 -276 118 -276z" />
    <glyph glyph-name="one.ltab" 
d="M117 0v21q57 0 78 22.5t21 94.5v316q0 69 -26.5 89.5t-87.5 19.5v20l195 34v-479q0 -72 21 -94.5t78 -22.5v-21h-279z" />
    <glyph glyph-name="two.ltab" 
d="M55 0v24l171 199q120 139 120 227q0 55 -32 91t-86 36q-46 0 -74.5 -26t-28.5 -65q0 -30 23 -63l-25 -30q-73 40 -73 103q0 50 49 85.5t135 35.5q90 0 144.5 -49.5t54.5 -116.5q0 -54 -34 -105t-108 -128l-144 -151h171q68 0 89.5 14.5t34.5 61.5h21l-27 -143h-381z" />
    <glyph glyph-name="three.ltab" 
d="M250 -14q-86 0 -142.5 35.5t-56.5 69.5q0 31 32 31q11 0 18.5 -9t16 -25t17.5 -25q37 -39 107 -39q62 0 92 36.5t30 94.5q0 48 -25.5 85t-79.5 48q-7 -6 -18 -18.5t-20.5 -20t-18.5 -7.5q-8 0 -15 6t-7 16q0 18 27 38l78 58q68 51 68 123q0 43 -31 68.5t-82 25.5
q-45 0 -78 -26.5t-33 -66.5q0 -25 17 -57l-28 -29q-64 36 -64 93q0 51 50 88.5t136 37.5q80 0 140 -37t60 -97q0 -22 -10 -44.5t-24 -38t-28.5 -28t-24.5 -18.5l-10 -6l-48 -35q76 -15 120 -57.5t44 -100.5q0 -69 -60.5 -119t-148.5 -50z" />
    <glyph glyph-name="four.ltab" 
d="M350 618v-413h4q14 0 25 1t19.5 1t15.5 3.5t12 4t9 7t6 7.5t5.5 10.5t4 11t3.5 14.5t4 16l5 20h20l-11 -133h-122v-30q0 -74 17 -95.5t72 -21.5v-21h-256v21q56 0 72.5 21.5t16.5 95.5v30h-257v19l316 431h19zM272 205v273l-200 -273h200z" />
    <glyph glyph-name="five.ltab" 
d="M238 -14q-76 0 -126 35.5t-50 70.5q0 30 32 30q13 0 24 -15.5t20 -33.5t35 -33.5t65 -15.5q62 0 94.5 45.5t32.5 119.5t-31.5 117t-95.5 43q-106 0 -123 -98h-39l31 349h322l-13 -75h-276l-15 -178q17 19 52.5 31.5t69.5 12.5q90 0 149 -57.5t59 -144.5q0 -85 -64 -144
t-153 -59z" />
    <glyph glyph-name="six.ltab" 
d="M260 -14q-26 0 -52 6.5t-55.5 26t-51.5 50t-37 82t-15 118.5q0 88 26 165.5t82.5 130t131.5 52.5q61 0 108 -25t47 -54q0 -12 -8 -20.5t-20 -8.5q-13 0 -26.5 11t-24 24t-30.5 24t-46 11q-41 0 -70.5 -20t-46 -57t-24.5 -80t-10 -100q18 24 56.5 41.5t80.5 17.5
q84 0 140 -54t56 -143q0 -88 -62 -143t-149 -55zM260 23q64 0 93.5 44.5t29.5 117.5q0 66 -27.5 111t-85.5 45q-42 0 -83 -22t-50 -52q0 -131 37 -187.5t86 -56.5z" />
    <glyph glyph-name="seven.ltab" 
d="M191 -15q-17 0 -29 11.5t-12 32.5q0 50 35 110l223 386h-210q-45 0 -67.5 -8.5t-29.5 -21.5t-15 -46l-5 -20h-21l29 171h375v-28l-159 -319q-51 -101 -65 -202q-5 -36 -16.5 -51t-32.5 -15z" />
    <glyph glyph-name="eight.ltab" 
d="M270 359q80 42 80 132q0 36 -23 62.5t-67 26.5t-68.5 -26.5t-24.5 -62.5q0 -45 26.5 -75t76.5 -57zM257 23q59 0 94 35t35 83q0 29 -11.5 53t-39 45.5t-47 33.5t-60.5 34q-97 -53 -97 -158q0 -54 33.5 -90t92.5 -36zM257 -14q-85 0 -146 47t-61 116q0 70 38 109t107 67
q-109 64 -109 150q0 61 52 101.5t122 40.5q69 0 118.5 -39.5t49.5 -94.5q0 -49 -32.5 -81.5t-92.5 -58.5q38 -18 61.5 -32t49 -36.5t38 -51.5t12.5 -66q0 -74 -61 -122.5t-146 -48.5z" />
    <glyph glyph-name="nine.ltab" 
d="M226 -14q-61 0 -108 25t-47 54q0 13 8.5 21t19.5 8q13 0 26.5 -11t24 -24t30.5 -24t46 -11q41 0 70.5 20t46 57t24.5 80t10 100q-18 -24 -56.5 -41.5t-80.5 -17.5q-84 0 -140 54t-56 143q0 88 62 143t149 55q26 0 52 -6.5t55.5 -26t51.5 -50t37 -82t15 -118.5
q0 -88 -26 -165.5t-82.5 -130t-131.5 -52.5zM245 262q42 0 83 22t50 52q0 131 -37 187.5t-86 56.5q-64 0 -93.5 -44.5t-29.5 -117.5q0 -66 27.5 -111t85.5 -45z" />
    <glyph glyph-name="zero.nfra" horiz-adv-x="352" 
d="M309 446q0 -76 -37.5 -123.5t-95.5 -47.5q-56 0 -94 48t-38 123t38 123t94 48q58 0 95.5 -47.5t37.5 -123.5zM245 446q0 143 -69 143q-68 0 -68 -143t68 -143q69 0 69 143z" />
    <glyph glyph-name="one.nfra" horiz-adv-x="262" 
d="M216 301v-19h-170v19q32 0 44 11t12 47v168q0 35 -14.5 44.5t-49.5 9.5v16l122 20v-258q0 -36 11.5 -47t44.5 -11z" />
    <glyph glyph-name="two.nfra" horiz-adv-x="318" 
d="M278 365l-17 -83h-218v18l96 106q61 68 61 118q0 29 -14.5 47t-42.5 18q-25 0 -39.5 -13t-14.5 -32q0 -17 14 -34l-18 -20q-45 23 -45 59q0 28 28 48t78 20q52 0 83.5 -27.5t31.5 -64.5q0 -29 -19.5 -56t-61.5 -69l-75 -74h88q36 0 48 7.5t19 31.5h18z" />
    <glyph glyph-name="three.nfra" horiz-adv-x="327" 
d="M280 368q0 -38 -35 -65.5t-86 -27.5q-50 0 -82 20t-32 39q0 21 21 21q6 0 10.5 -5t10 -14t10.5 -14q18 -20 58 -20q59 0 59 66q0 56 -49 67l-7 -7t-8.5 -8t-8 -5.5t-8.5 -2.5q-16 0 -16 16q0 10 16 21l27 19q48 34 48 72q0 22 -14 35.5t-40 13.5q-24 0 -41 -13.5
t-17 -32.5q0 -16 10 -30l-20 -20q-39 21 -39 53q0 28 28.5 49.5t78.5 21.5q46 0 81 -21t35 -54q0 -44 -58 -77l-21 -12q40 -7 64.5 -31t24.5 -54z" />
    <glyph glyph-name="four.nfra" horiz-adv-x="343" 
d="M170 398v131l-103 -131h103zM227 398q33 0 42 7.5t17 31.5l4 12h16l-6 -78h-73v-12q0 -38 9 -48.5t41 -10.5v-18h-157v18q32 0 41 10.5t9 48.5v12h-143v15l183 231h17v-219z" />
    <glyph glyph-name="five.nfra" horiz-adv-x="316" 
d="M273 386q0 -46 -37.5 -78.5t-88.5 -32.5q-44 0 -72.5 20.5t-28.5 39.5q0 20 21 20q8 0 14 -8.5t10.5 -18t19 -18t36.5 -8.5q62 0 62 84q0 81 -62 81q-56 0 -67 -52h-27l18 192h187l-10 -53h-154l-6 -76q26 18 64 18q52 0 86.5 -31.5t34.5 -78.5z" />
    <glyph glyph-name="six.nfra" horiz-adv-x="324" 
d="M288 384q0 -48 -36 -78.5t-86 -30.5q-46 0 -84 35t-38 119q0 75 37 131t101 56q35 0 63 -14.5t28 -30.5q0 -9 -6 -15t-15 -6t-28 19.5t-42 19.5q-41 0 -56 -31.5t-19 -91.5q29 25 76 25q45 0 75 -29.5t30 -77.5zM225 384q0 79 -54 79q-22 0 -41.5 -10t-23.5 -25
q0 -127 60 -127q59 0 59 83z" />
    <glyph glyph-name="seven.nfra" horiz-adv-x="279" 
d="M253 607v-19l-82 -169q-28 -58 -36 -107q-6 -40 -30 -40q-11 0 -18.5 8t-7.5 21q0 28 19 61l113 192h-99q-24 0 -36 -4.5t-15.5 -10.5t-8.5 -22l-4 -14h-17l18 104h204z" />
    <glyph glyph-name="eight.nfra" horiz-adv-x="338" 
d="M294 369q0 -40 -37 -67t-88 -27t-88 26t-37 64q0 37 21.5 57.5t58.5 33.5q-59 38 -59 82q0 34 31.5 56.5t74.5 22.5q42 0 72.5 -22t30.5 -53q0 -43 -69 -72q42 -19 65.5 -42t23.5 -59zM220 546q0 18 -12 31t-37 13t-37.5 -13t-12.5 -31q0 -22 14.5 -35.5t42.5 -28.5
q42 22 42 64zM240 361q0 18 -13 33t-26 23t-40 21q-7 3 -10 5q-50 -27 -50 -78q0 -28 17 -46t51 -18t52.5 17.5t18.5 42.5z" />
    <glyph glyph-name="nine.nfra" horiz-adv-x="328" 
d="M41 507q0 48 36 78.5t86 30.5q46 0 84 -35t38 -119q0 -75 -37 -131t-101 -56q-35 0 -63 14.5t-28 30.5q0 9 6 15t15 6t28 -19.5t42 -19.5q41 0 56 31.5t19 91.5q-29 -25 -76 -25q-45 0 -75 29.5t-30 77.5zM104 507q0 -79 54 -79q22 0 41.5 10t23.5 25q0 127 -60 127
q-59 0 -59 -83z" />
    <glyph glyph-name="zero.dfra" horiz-adv-x="352" 
d="M309 164q0 -76 -37.5 -123.5t-95.5 -47.5q-56 0 -94 48t-38 123t38 123t94 48q58 0 95.5 -47.5t37.5 -123.5zM245 164q0 143 -69 143q-68 0 -68 -143t68 -143q69 0 69 143z" />
    <glyph glyph-name="one.dfra" horiz-adv-x="262" 
d="M216 19v-19h-170v19q32 0 44 11t12 47v168q0 35 -14.5 44.5t-49.5 9.5v16l122 20v-258q0 -36 11.5 -47t44.5 -11z" />
    <glyph glyph-name="two.dfra" horiz-adv-x="318" 
d="M278 83l-17 -83h-218v18l96 106q61 68 61 118q0 29 -14.5 47t-42.5 18q-25 0 -39.5 -13t-14.5 -32q0 -17 14 -34l-18 -20q-45 23 -45 59q0 28 28 48t78 20q52 0 83.5 -27.5t31.5 -64.5q0 -29 -19.5 -56.5t-61.5 -68.5l-75 -74h88q36 0 48 7.5t19 31.5h18z" />
    <glyph glyph-name="three.dfra" horiz-adv-x="327" 
d="M280 86q0 -38 -35 -65.5t-86 -27.5q-50 0 -82 20t-32 39q0 21 21 21q6 0 10.5 -5t10 -14t10.5 -14q18 -20 58 -20q59 0 59 66q0 56 -49 67l-7 -7t-8.5 -8t-8 -5.5t-8.5 -2.5q-16 0 -16 16q0 10 16 21l27 19q48 34 48 72q0 22 -14 35.5t-40 13.5q-24 0 -41 -13.5
t-17 -32.5q0 -16 10 -30l-20 -20q-39 21 -39 53q0 28 28.5 49.5t78.5 21.5q46 0 81 -21t35 -54q0 -44 -58 -77l-21 -12q40 -7 64.5 -31t24.5 -54z" />
    <glyph glyph-name="four.dfra" horiz-adv-x="343" 
d="M170 116v131l-103 -131h103zM227 116q23 0 34.5 5t15 11t9.5 23l4 12h16l-6 -78h-73v-12q0 -38 9 -48.5t41 -10.5v-18h-157v18q32 0 41 10.5t9 48.5v12h-143v15l183 231h17v-219z" />
    <glyph glyph-name="five.dfra" horiz-adv-x="316" 
d="M273 104q0 -46 -37.5 -78.5t-88.5 -32.5q-44 0 -72.5 20.5t-28.5 39.5q0 20 21 20q8 0 14 -8.5t10.5 -18t19 -18t36.5 -8.5q62 0 62 84q0 81 -62 81q-56 0 -67 -52h-27l18 192h187l-10 -53h-154l-6 -76q26 18 64 18q52 0 86.5 -31.5t34.5 -78.5z" />
    <glyph glyph-name="six.dfra" horiz-adv-x="324" 
d="M288 102q0 -48 -36 -78.5t-86 -30.5q-46 0 -84 35t-38 119q0 75 37 131t101 56q35 0 63 -14.5t28 -30.5q0 -9 -6 -15t-15 -6t-28 19.5t-42 19.5q-41 0 -56 -31.5t-19 -91.5q29 25 76 25q45 0 75 -29.5t30 -77.5zM225 102q0 79 -54 79q-22 0 -41.5 -10t-23.5 -25
q0 -127 60 -127q59 0 59 83z" />
    <glyph glyph-name="seven.dfra" horiz-adv-x="279" 
d="M253 325v-19l-82 -169q-28 -58 -36 -107q-6 -40 -30 -40q-11 0 -18.5 8t-7.5 21q0 28 19 61l113 192h-99q-34 0 -44 -7.5t-16 -29.5l-4 -14h-17l18 104h204z" />
    <glyph glyph-name="eight.dfra" horiz-adv-x="338" 
d="M294 87q0 -40 -37 -67t-88 -27t-88 26t-37 64q0 37 21.5 57.5t58.5 33.5q-59 38 -59 82q0 34 31.5 56.5t74.5 22.5q42 0 72.5 -22t30.5 -53q0 -43 -69 -72q42 -19 65.5 -42t23.5 -59zM220 264q0 18 -12 31t-37 13t-37.5 -13t-12.5 -31q0 -22 14.5 -35.5t42.5 -28.5
q42 22 42 64zM240 79q0 18 -13 33t-26 23t-40 21q-7 3 -10 5q-50 -27 -50 -78q0 -28 17 -46t51 -18t52.5 17.5t18.5 42.5z" />
    <glyph glyph-name="nine.dfra" horiz-adv-x="328" 
d="M41 225q0 48 36 78.5t86 30.5q46 0 84 -35t38 -119q0 -75 -37 -131t-101 -56q-35 0 -63 14.5t-28 30.5q0 9 6 15t15 6t28 -19.5t42 -19.5q41 0 56 31.5t19 91.5q-29 -25 -76 -25q-45 0 -75 29.5t-30 77.5zM104 225q0 -79 54 -79q22 0 41.5 10t23.5 25q0 127 -60 127
q-59 0 -59 -83z" />
    <glyph glyph-name="questiondown.caps" horiz-adv-x="470" 
d="M254 613q22 0 37 -15t15 -37t-15 -37t-37 -15t-37 15t-15 37t15 37t37 15zM226 271q-91 -66 -91 -138q0 -47 31 -74.5t82 -27.5q48 0 78.5 23t30.5 62q0 30 -17 56l28 29q63 -30 63 -92q0 -47 -49.5 -84t-133.5 -37q-90 0 -145 40t-55 104q0 84 129 164l54 34v115h46
v-137z" />
    <glyph glyph-name="exclamdown.caps" horiz-adv-x="270" 
d="M135 613q22 0 37 -15t15 -37t-15 -37t-37 -15t-37 15t-15 37t15 37t37 15zM152 445q5 -166 19 -280t14 -126q0 -20 -15 -35.5t-35 -15.5t-35 15.5t-15 35.5q0 12 14 126t19 280h34z" />
    <glyph glyph-name="at.caps" horiz-adv-x="680" 
d="M323 144q29 0 55.5 27t33.5 66l31 177q-23 25 -62 25q-42 0 -73.5 -44t-42.5 -107q-11 -64 3 -104t55 -40zM348 -40q-135 0 -229 88t-94 218q0 145 103.5 248t248.5 103q120 0 199.5 -73t79.5 -190q0 -95 -60 -170.5t-126 -75.5q-27 0 -44.5 15t-21.5 36
q-16 -22 -46 -38.5t-53 -16.5q-61 0 -89.5 53.5t-14.5 130.5q13 76 67.5 129.5t117.5 53.5q34 0 64 -17h56l-44 -250q-11 -60 32 -60q41 0 85.5 64.5t44.5 143.5q0 104 -68 165t-164 61q-125 0 -213 -92.5t-88 -216.5q0 -125 74 -200t191 -75q108 0 212 64l11 -18
q-112 -80 -231 -80z" />
    <glyph glyph-name="zero.small" horiz-adv-x="486" 
d="M243 -13q-80 0 -136.5 70.5t-56.5 181.5q0 110 56.5 180t136.5 70q82 0 137.5 -69.5t55.5 -180.5q0 -112 -55.5 -182t-137.5 -70zM136 239q0 -219 107 -219t107 219q0 217 -107 217t-107 -217z" />
    <glyph glyph-name="one.small" horiz-adv-x="314" 
d="M267 20v-20h-220v20q42 0 56 19.5t14 73.5v244q0 52 -18 69.5t-64 17.5v18l162 28v-377q0 -54 13.5 -73.5t56.5 -19.5z" />
    <glyph glyph-name="two.small" horiz-adv-x="429" 
d="M47 23l137 159q93 109 93 172q0 47 -23 74.5t-63 27.5q-34 0 -56.5 -21t-22.5 -54q0 -27 21 -53l-23 -26q-67 34 -67 87q0 41 41 70.5t112 29.5q74 0 119 -40t45 -95q0 -43 -30 -85.5t-89 -98.5l-109 -104h140q50 0 66 10.5t26 47.5h22l-25 -124h-314v23z" />
    <glyph glyph-name="three.small" horiz-adv-x="440" 
d="M175 188q-9 0 -15.5 6t-6.5 15q0 14 24 32l61 44q51 36 51 91q0 37 -22.5 58.5t-59.5 21.5q-35 0 -60.5 -21t-25.5 -55q0 -22 16 -50l-26 -26q-58 35 -58 81q0 42 41.5 73t112.5 31q66 0 115.5 -31t49.5 -79q0 -28 -15.5 -52t-29 -34t-34.5 -22l-26 -15q55 -14 87.5 -50
t32.5 -81q0 -56 -50 -97t-122 -41q-71 0 -118 30t-47 58q0 29 29 29q10 0 17 -7t15 -19.5t15 -19.5q38 -38 82 -38q45 0 67.5 31t22.5 74q0 34 -18.5 63t-55.5 38q-5 -4 -15.5 -15t-18.5 -17t-15 -6z" />
    <glyph glyph-name="four.small" horiz-adv-x="455" 
d="M227 358l-151 -196h151v196zM303 162q46 0 63.5 11t25.5 42l5 21h20l-11 -107h-103v-16q0 -54 14 -73.5t56 -19.5v-20h-216v20q43 0 56.5 19t13.5 74v16h-203v18l261 338h18v-323z" />
    <glyph glyph-name="five.small" horiz-adv-x="425" 
d="M204 313q74 0 123 -46.5t49 -115.5q0 -68 -53 -116t-126 -48q-63 0 -104.5 30t-41.5 59q0 28 29 28q10 0 19.5 -13t17 -29t28.5 -29t52 -13q46 0 70 37.5t24 93.5q0 55 -23 90.5t-70 35.5q-89 0 -101 -76h-35l26 275h268l-12 -72h-228l-11 -128q15 17 42.5 27t56.5 10z
" />
    <glyph glyph-name="six.small" horiz-adv-x="448" 
d="M251 489q51 0 90.5 -22t39.5 -46q0 -12 -8.5 -20.5t-20.5 -8.5q-13 0 -26 16t-31 32t-44 16q-103 0 -117 -195q16 17 45.5 30.5t62.5 13.5q70 0 115 -40.5t45 -111.5t-51 -118.5t-123 -47.5q-27 0 -54.5 10t-57 32.5t-48 70t-18.5 112.5q0 70 21.5 131.5t68.5 103.5
t111 42zM228 20q46 0 68.5 39t22.5 94q0 53 -22 85.5t-66 32.5q-29 0 -60 -19.5t-38 -42.5q-4 -94 24.5 -141.5t70.5 -47.5z" />
    <glyph glyph-name="seven.small" horiz-adv-x="373" 
d="M137 -14q-15 0 -26.5 11t-11.5 31q0 32 29 86l168 290h-158q-47 0 -60.5 -10t-21.5 -43l-5 -21h-20l24 146h293v-25l-120 -254q-32 -70 -46 -153q-5 -31 -15.5 -44.5t-29.5 -13.5z" />
    <glyph glyph-name="eight.small" horiz-adv-x="457" 
d="M50 120q0 52 32 82.5t86 53.5q-90 56 -90 122q0 49 44.5 80t106.5 31q61 0 105 -30.5t44 -74.5q0 -65 -103 -111q62 -30 97 -62.5t35 -84.5q0 -62 -51 -100.5t-125 -38.5t-127.5 37.5t-53.5 95.5zM303 385q0 31 -20.5 51t-53.5 20q-35 0 -54 -19t-19 -52q0 -53 87 -97
q28 15 44 41.5t16 55.5zM331 115q0 10 -2 19t-8 17.5l-10.5 15t-15.5 14.5t-16 12.5t-19.5 12.5t-18.5 10.5t-21 11.5t-20 10q-72 -40 -72 -117q0 -42 28.5 -71.5t74.5 -29.5t73 28t27 67z" />
    <glyph glyph-name="nine.small" horiz-adv-x="448" 
d="M197 -13q-51 0 -90.5 22t-39.5 46q0 12 8.5 20.5t20.5 8.5q13 0 26 -16t31 -32t44 -16q103 0 117 195q-16 -17 -45.5 -30.5t-62.5 -13.5q-70 0 -115 40.5t-45 111.5t51 118.5t123 47.5q27 0 54.5 -10t57 -32.5t48 -70t18.5 -112.5q0 -70 -21.5 -131.5t-68.5 -103.5
t-111 -42zM220 456q-46 0 -68.5 -39t-22.5 -94q0 -53 22 -85.5t66 -32.5q29 0 60 19.5t38 42.5q4 94 -24.5 141.5t-70.5 47.5z" />
    <glyph glyph-name="onequarter.small" horiz-adv-x="544" 
d="M502 135l-6 -64h-56v-8q0 -30 7 -38t35 -8v-17h-138v17q27 0 34.5 8.5t7.5 37.5v8h-110v14l140 178h24v-168q24 0 32 6.5t13 23.5l3 10h14zM179 223h-144v17q25 0 34 8.5t9 37.5v128q0 27 -11.5 35t-38.5 8v15l108 15v-201q0 -29 8.5 -37.5t34.5 -8.5v-17zM386 95v92
l-73 -92h73zM431 471l-304 -485l-30 17l304 485z" />
    <glyph glyph-name="onehalf.small" horiz-adv-x="557" 
d="M522 73l-14 -73h-179v16l73 80q48 53 48 94q0 49 -42 49q-16 0 -27 -9.5t-11 -23.5q0 -15 12 -26l-18 -18q-38 18 -38 48q0 22 23 38.5t63 16.5q43 0 70 -21t27 -52q0 -23 -16 -44.5t-52 -55.5l-52 -49h64q28 0 37.5 5t15.5 25h16zM179 223h-144v17q25 0 34 8.5t9 37.5
v128q0 27 -11.5 35t-38.5 8v15l108 15v-201q0 -29 8.5 -37.5t34.5 -8.5v-17zM431 471l-304 -485l-30 17l304 485z" />
    <glyph glyph-name="threequarters.small" horiz-adv-x="559" 
d="M517 135l-5 -64h-56v-8q0 -30 7 -38t35 -8v-17h-139v17q27 0 34.5 8t7.5 38v8h-109v14l139 178h25v-168q24 0 32 6.5t13 23.5l3 10h13zM224 291q0 -31 -28 -52.5t-70 -21.5q-41 0 -66.5 16t-25.5 32q0 19 19 19q6 0 10 -4t9 -12t8 -12q12 -14 41 -14q43 0 43 49
q0 41 -33 51l-6 -6t-6.5 -6t-6.5 -4t-7 -2q-13 0 -13 13q0 8 13 18l24 18q30 23 30 54q0 34 -40 34q-17 0 -28.5 -9t-11.5 -22t8 -25l-19 -17q-33 14 -33 43q0 22 23.5 39t63.5 17q38 0 66 -16.5t28 -43.5q0 -32 -45 -60l-14 -8q31 -8 49 -26.5t18 -41.5zM401 95v92l-72 -92
h72zM447 471l-304 -485l-30 17l304 485z" />
    <glyph glyph-name="periodcentered.small" horiz-adv-x="270" 
d="M135 195q-23 0 -38.5 15.5t-15.5 38.5t15.5 38.5t38.5 15.5t38.5 -15.5t15.5 -38.5t-15.5 -38.5t-38.5 -15.5z" />
    <glyph glyph-name="at.small" horiz-adv-x="534" 
d="M512 283q0 -75 -47 -133t-98 -58q-40 0 -52 35q-14 -16 -35.5 -27t-37.5 -11q-49 0 -73 42.5t-13 103.5q10 58 53.5 100t93.5 42q25 0 50 -12h49l-35 -200q-7 -40 17 -40q31 0 63.5 46.5t32.5 111.5q0 76 -51 121.5t-122 45.5q-93 0 -158 -69.5t-65 -160.5
q0 -93 55 -150.5t141 -57.5q80 0 163 51l11 -18q-89 -64 -180 -64q-104 0 -176.5 67.5t-72.5 168.5q0 112 79.5 191.5t191.5 79.5q93 0 154.5 -57t61.5 -148zM342 332q-18 16 -42 16q-31 0 -53.5 -34t-30.5 -82q-17 -107 39 -107q20 0 38.5 19.5t23.5 47.5z" />
    <glyph glyph-name="asciitilde.small" horiz-adv-x="395" 
d="M266 192q-25 0 -76.5 30.5t-72.5 30.5q-38 0 -52 -57h-19q0 113 81 113q25 0 76 -30.5t73 -30.5q38 0 52 57h19q0 -113 -81 -113z" />
    <glyph glyph-name="dollar.allsmall" horiz-adv-x="414" 
d="M194 26v183l-49 25q-90 45 -90 133q0 51 39.5 86.5t98.5 35.5h1v51h35v-54q33 -7 68 -36q13 10 23 39h15v-159h-19q-19 95 -87 116v-159l59 -30q44 -22 66 -55.5t22 -68.5q0 -61 -42.5 -101.5t-104.5 -44.5v-55h-35v56q-57 6 -104 45q-9 -6 -26 -42h-15v174h20
q6 -48 36.5 -89.5t88.5 -49.5zM229 192v-167q38 4 61 25.5t23 51.5t-17.5 48t-66.5 42zM194 304v147h-3q-32 0 -52.5 -18.5t-20.5 -44.5t15 -42.5t61 -41.5z" />
    <glyph glyph-name="cent.allsmall" horiz-adv-x="460" 
d="M231 38q-81 6 -133 63t-52 137t52 137.5t133 62.5v58h35v-58q59 -7 104 -52q16 14 19 37h14v-138h-15q-24 109 -122 121v-335q45 5 77.5 36.5t44.5 84.5h15v-138h-14q-5 24 -18 37q-47 -45 -105 -52v-59h-35v58zM231 406q-58 -7 -85.5 -57t-27.5 -111t27.5 -110.5
t85.5 -56.5v335z" />
    <glyph glyph-name="Euro.allsmall" horiz-adv-x="467" 
d="M77 176h-47v34h44q0 4 -1 14t-1 14t0.5 14t0.5 14h-43v34h47q16 86 66.5 137.5t117.5 51.5q76 0 115 -57q16 19 22 37h17v-169h-19q-14 70 -46.5 110.5t-80.5 40.5q-44 0 -72 -40t-37 -111h152v-34h-154q0 -3 -0.5 -13.5t-0.5 -14.5t0.5 -14.5t0.5 -13.5h154v-34h-152
q8 -72 36.5 -111.5t72.5 -39.5q48 0 80.5 41t46.5 110h19v-170h-17q-5 20 -22 37q-43 -56 -115 -56q-67 0 -117.5 51.5t-66.5 137.5z" />
    <glyph glyph-name="sterling.allsmall" horiz-adv-x="437" 
d="M30 20q48 0 61.5 18.5t13.5 74.5v119h-64v35h64v45q0 89 48 133t115 44q45 0 73 -23t28 -49q0 -36 -34 -36q-16 0 -24.5 12t-11.5 26t-14 26t-31 12q-71 0 -71 -145v-45h122v-35h-122v-46q0 -103 -34 -146h137q45 0 60.5 12t23.5 42l5 20h20l-7 -114h-358v20z" />
    <glyph glyph-name="yen.allsmall" horiz-adv-x="508" 
d="M294 121v-8q0 -56 13.5 -74.5t61.5 -18.5v-20h-230v20q48 0 61.5 18.5t13.5 74.5v8h-104v34h104v36l-13 20h-91v34h68l-91 137q-28 42 -49.5 58t-62.5 16v20h239v-20q-44 0 -53 -18t9 -40l111 -164l112 164q39 58 -44 58v20h188v-20q-13 0 -24 -2t-18.5 -3t-16.5 -7
t-12.5 -8t-11.5 -12t-9.5 -11.5t-10.5 -15t-10 -15.5l-93 -137h67v-34h-90l-14 -21v-35h104v-34h-104z" />
    <glyph glyph-name="percent.allsmall" horiz-adv-x="553" 
d="M44 371q0 49 33 83.5t78 34.5q46 0 78.5 -34.5t32.5 -83.5q0 -48 -32.5 -82.5t-78.5 -34.5q-45 0 -78 34.5t-33 82.5zM206 371q0 40 -13.5 63t-37.5 23t-37.5 -23t-13.5 -63q0 -39 13.5 -62t37.5 -23t37.5 23t13.5 62zM444 471l-304 -485l-30 17l304 485zM287 105
q0 49 33 83.5t78 34.5q46 0 78.5 -34.5t32.5 -83.5q0 -48 -32.5 -82.5t-78.5 -34.5q-45 0 -78 34.5t-33 82.5zM449 105q0 40 -13.5 63t-37.5 23t-37.5 -23t-13.5 -63q0 -39 13.5 -62t37.5 -23t37.5 23t13.5 62z" />
    <glyph glyph-name="perthousand.allsmall" horiz-adv-x="813" 
d="M44 371q0 49 33 83.5t78 34.5q46 0 78.5 -34.5t32.5 -83.5q0 -48 -32.5 -82.5t-78.5 -34.5q-45 0 -78 34.5t-33 82.5zM206 371q0 40 -13.5 63t-37.5 23t-37.5 -23t-13.5 -63q0 -39 13.5 -62t37.5 -23t37.5 23t13.5 62zM444 471l-304 -485l-30 17l304 485zM547 105
q0 49 33 83.5t78 34.5q46 0 78.5 -34.5t32.5 -83.5q0 -48 -32.5 -82.5t-78.5 -34.5q-45 0 -78 34.5t-33 82.5zM709 105q0 40 -13.5 63t-37.5 23t-37.5 -23t-13.5 -63q0 -39 13.5 -62t37.5 -23t37.5 23t13.5 62zM287 105q0 49 33 83.5t78 34.5q46 0 78.5 -34.5t32.5 -83.5
q0 -48 -32.5 -82.5t-78.5 -34.5q-45 0 -78 34.5t-33 82.5zM449 105q0 40 -13.5 63t-37.5 23t-37.5 -23t-13.5 -63q0 -39 13.5 -62t37.5 -23t37.5 23t13.5 62z" />
    <glyph glyph-name="plus.allsmall" horiz-adv-x="430" 
d="M193 71v157h-157v44h157v157h44v-157h157v-44h-157v-157h-44z" />
    <glyph glyph-name="minus.allsmall" horiz-adv-x="430" 
d="M66 228v44h298v-44h-298z" />
    <glyph glyph-name="multiply.allsmall" horiz-adv-x="430" 
d="M95 99l-31 31l120 120l-120 119l32 31l119 -119l119 119l31 -31l-119 -119l120 -120l-32 -31l-119 120z" />
    <glyph glyph-name="divide.allsmall" horiz-adv-x="430" 
d="M36 229v44h358v-44h-358zM214 66q-19 0 -32.5 14t-13.5 34t13.5 34.5t32.5 14.5q20 0 34.5 -14.5t14.5 -34.5q0 -19 -14.5 -33.5t-34.5 -14.5zM214 340q-19 0 -32.5 14.5t-13.5 33.5q0 20 13.5 34.5t32.5 14.5q20 0 34.5 -14.5t14.5 -34.5q0 -19 -15 -33.5t-34 -14.5z
" />
    <glyph glyph-name="equal.allsmall" horiz-adv-x="430" 
d="M69 291v44h292v-44h-292zM69 167v44h292v-44h-292z" />
    <glyph glyph-name="notequal.allsmall" horiz-adv-x="430" 
d="M101 58l-29 21l61 87h-64v45h96l56 80h-152v45h184l76 108l29 -22l-61 -86h64v-45h-96l-56 -80h152v-45h-184z" />
    <glyph glyph-name="approxequal.allsmall" horiz-adv-x="430" 
d="M71 272v45q33 33 72 33q26 0 75 -16.5t68 -16.5q17 0 35 8.5t27 16.5l10 8v-45q-33 -33 -72 -33q-26 0 -75 16.5t-68 16.5q-17 0 -35 -8.5t-28 -16.5zM71 147v45q33 33 72 33q26 0 75 -16.5t68 -16.5q17 0 35 8t27 16l10 9v-45q-33 -33 -72 -33q-26 0 -75 16.5t-68 16.5
q-17 0 -35 -8t-28 -16z" />
    <glyph glyph-name="less.allsmall" horiz-adv-x="435" 
d="M365 33l-314 218l314 217l22 -32l-256 -185l256 -185z" />
    <glyph glyph-name="greater.allsmall" horiz-adv-x="435" 
d="M70 33l-22 33l256 185l-256 185l22 32l314 -217z" />
    <glyph glyph-name="degree.allsmall" horiz-adv-x="372" 
d="M185 186q-62 0 -106 44t-44 106t44.5 106t105.5 44q62 0 106 -44t44 -106t-44 -106t-106 -44zM185 234q42 0 72 30t30 72t-30 72t-72 30t-71.5 -30t-29.5 -72t29.5 -72t71.5 -30z" />
    <glyph glyph-name="infinity.allsmall" horiz-adv-x="616" 
d="M150 132q-54 0 -87.5 33.5t-33.5 83.5q0 51 33.5 84.5t87.5 33.5q34 0 78 -27.5t81 -63.5q33 35 78.5 63t79.5 28q55 0 88.5 -33.5t33.5 -84.5q0 -50 -34 -83.5t-88 -33.5q-34 0 -79 28t-79 62q-95 -90 -159 -90zM148 173q46 0 127 76q-82 77 -127 77q-32 0 -53 -22.5
t-21 -54.5q0 -31 21 -53.5t53 -22.5zM470 173q32 0 53 22.5t21 53.5q0 32 -21 54.5t-53 22.5q-47 0 -129 -77q81 -76 129 -76z" />
    <glyph glyph-name="logicalnot.allsmall" horiz-adv-x="542" 
d="M401 101v128h-332v44h376v-172h-44z" />
    <glyph glyph-name="pi.allsmall" horiz-adv-x="561" 
d="M30 20q48 0 61.5 18.5t13.5 74.5v251q0 55 -13.5 73.5t-61.5 18.5v20h501v-20q-49 0 -62.5 -18t-13.5 -74v-251q0 -56 14 -74.5t62 -18.5v-20h-225v20q48 0 62 18.5t14 74.5v327h-204v-327q0 -56 13.5 -74.5t61.5 -18.5v-20h-223v20z" />
    <glyph glyph-name="ordfeminine.allsmall" horiz-adv-x="431" 
d="M-9 239q38 0 49.5 9.5t26.5 43.5l138 312h21l139 -312q11 -26 16 -33.5t18.5 -13.5t40.5 -6v-21h-193v21q38 0 49 9t1 33l-31 68h-138l-30 -68q-10 -24 1 -33t49 -9v-21h-157v21zM254 376l-57 132l-57 -132h114z" />
    <glyph glyph-name="ordmasculine.allsmall" 
d="M41 408q0 84 62 144t154 60q93 0 155 -59.5t62 -144.5q0 -84 -62 -143.5t-155 -59.5q-92 0 -154 59.5t-62 143.5zM399 408q0 66 -35 117.5t-107 51.5q-71 0 -106 -51.5t-35 -117.5q0 -65 35 -116.5t106 -51.5q72 0 107 51.5t35 116.5z" />
    <glyph glyph-name="question.allsmall" horiz-adv-x="407" 
d="M276 370q0 38 -23.5 60t-61.5 22q-35 0 -58.5 -18.5t-23.5 -49.5q0 -27 17 -49l-25 -25q-59 26 -59 79q0 38 41 69t110 31q75 0 120 -33t45 -85q0 -72 -108 -134l-39 -22v-72h-45v91l44 30q66 44 66 106zM189 86q19 0 33 -14t14 -33t-14 -33t-33 -14t-33 14t-14 33t14 33
t33 14z" />
    <glyph glyph-name="questiondown.allsmall" horiz-adv-x="407" 
d="M218 390q-20 0 -33.5 14t-13.5 33t13.5 33t33.5 14t33.5 -14t13.5 -33t-13.5 -33t-33.5 -14zM131 106q0 -38 23.5 -60t61.5 -22q35 0 58.5 18.5t23.5 49.5q0 27 -17 49l25 25q59 -26 59 -79q0 -38 -41 -69t-110 -31q-75 0 -120 33t-45 85q0 72 108 134l39 22v72h45v-91
l-44 -30q-66 -44 -66 -106z" />
    <glyph glyph-name="exclam.allsmall" horiz-adv-x="249" 
d="M76 440q0 22 14.5 35.5t34.5 13.5t34 -13.5t14 -35.5q0 -8 -14.5 -92t-17.5 -205h-33q-3 121 -17.5 205t-14.5 92zM125 86q19 0 33 -14t14 -33t-14 -33t-33 -14t-33 14t-14 33t14 33t33 14z" />
    <glyph glyph-name="exclamdown.allsmall" horiz-adv-x="249" 
d="M124 390q-20 0 -33.5 14t-13.5 33t13.5 33t33.5 14t33.5 -14t13.5 -33t-13.5 -33t-33.5 -14zM76 36q0 8 14.5 92t17.5 205h33q3 -121 17.5 -205t14.5 -92q0 -22 -14 -35.5t-34 -13.5t-34.5 13.5t-14.5 35.5z" />
    <glyph glyph-name="bullet.allsmall" horiz-adv-x="242" 
d="M121 173q-32 0 -54.5 22.5t-22.5 53.5q0 32 22.5 54.5t54.5 22.5t54.5 -22.5t22.5 -54.5t-22.5 -54t-54.5 -22z" />
    <glyph glyph-name="asterisk.allsmall" horiz-adv-x="379" 
d="M189 156q-17 0 -29 13t-12 31q0 6 15.5 37.5t17.5 72.5q-34 -22 -53 -52.5t-24 -33.5q-16 -9 -33.5 -4t-26.5 20q-9 16 -4 32.5t20 25.5q6 4 41.5 6t71.5 20q-36 18 -71.5 20t-41.5 6q-15 10 -20 26.5t4 31.5t26.5 20t33.5 -4q5 -3 24 -33.5t53 -52.5q-2 41 -17.5 72.5
t-15.5 37.5q0 18 12 31t29 13t30.5 -13t13.5 -31q0 -6 -16.5 -38t-18.5 -73q25 17 40.5 36t23.5 32t14 17q16 10 32.5 5.5t26.5 -19.5q9 -14 4 -32t-20 -27q-5 -3 -40.5 -5t-72.5 -20q37 -18 72.5 -19.5t40.5 -4.5q15 -10 20 -28t-4 -32q-10 -15 -26.5 -19.5t-32.5 5.5
q-6 4 -14 17t-23.5 32t-41.5 36q3 -41 19.5 -73t16.5 -38q0 -18 -13.5 -31t-30.5 -13z" />
    <glyph glyph-name="quotesingle.allsmall" horiz-adv-x="221" 
d="M99 268q-5 63 -21.5 116t-16.5 59q0 20 14 34.5t33 14.5t33.5 -14.5t14.5 -34.5q0 -6 -17.5 -59t-22.5 -116h-17z" />
    <glyph glyph-name="quotedbl.allsmall" horiz-adv-x="384" 
d="M99 264q-5 63 -22 116t-17 59q0 20 14.5 34.5t33.5 14.5t33.5 -14.5t14.5 -34.5q0 -6 -17.5 -59t-22.5 -116h-17zM266 264q-5 63 -22 116t-17 59q0 19 14.5 34t33.5 15t33.5 -14.5t14.5 -34.5q0 -6 -17.5 -59t-22.5 -116h-17z" />
    <glyph glyph-name="quoteleft.allsmall" horiz-adv-x="223" 
d="M153 494l11 -11q-49 -53 -57 -107q2 1 8 1q19 0 33 -14.5t14 -34.5t-14 -34t-34 -14q-22 0 -37.5 16t-15.5 47q0 37 24.5 80.5t67.5 70.5z" />
    <glyph glyph-name="quoteright.allsmall" horiz-adv-x="223" 
d="M70 278l-11 11q49 53 57 107q-2 -1 -8 -1q-19 0 -33 14.5t-14 34.5t14.5 34t33.5 14q22 0 37.5 -16t15.5 -47q0 -37 -24.5 -80.5t-67.5 -70.5z" />
    <glyph glyph-name="quotedblleft.allsmall" horiz-adv-x="390" 
d="M320 494l11 -11q-49 -53 -57 -107q2 1 8 1q19 0 33 -14.5t14 -34.5t-14.5 -34t-33.5 -14q-22 0 -37.5 16t-15.5 47q0 37 24.5 80.5t67.5 70.5zM153 494l11 -11q-49 -53 -57 -107q2 1 8 1q19 0 33 -14.5t14 -34.5t-14 -34t-34 -14q-22 0 -37.5 16t-15.5 47q0 37 24.5 80.5
t67.5 70.5z" />
    <glyph glyph-name="quotedblright.allsmall" horiz-adv-x="390" 
d="M237 278l-11 11q49 53 57 107q-2 -1 -8 -1q-19 0 -33 14.5t-14 34.5t14 34t34 14q22 0 37.5 -16t15.5 -47q0 -37 -24.5 -80.5t-67.5 -70.5zM70 278l-11 11q49 53 57 107q-2 -1 -8 -1q-19 0 -33 14.5t-14 34.5t14.5 34t33.5 14q22 0 37.5 -16t15.5 -47q0 -37 -24.5 -80.5
t-67.5 -70.5z" />
    <glyph glyph-name="parenleft.allsmall" horiz-adv-x="315" 
d="M252 -89q-169 138 -169 327t168 327l18 -19q-121 -134 -121 -308t121 -308z" />
    <glyph glyph-name="parenright.allsmall" horiz-adv-x="315" 
d="M63 -89l-17 19q121 134 121 308t-121 308l18 19q168 -138 168 -327t-169 -327z" />
    <glyph glyph-name="bracketleft.allsmall" horiz-adv-x="276" 
d="M100 -68v612h137v-29h-76v-554h76v-29h-137z" />
    <glyph glyph-name="bracketright.allsmall" horiz-adv-x="276" 
d="M176 -68h-137v29h76v554h-76v29h137v-612z" />
    <glyph glyph-name="braceleft.allsmall" horiz-adv-x="262" 
d="M212 -91q-39 23 -59 41.5t-33 53.5t-13 89q0 56 -8.5 84.5t-20 37t-38.5 18.5v12q27 10 38.5 18.5t20 37t8.5 84.5q0 54 13 89t33 53.5t59 41.5l13 -20q-40 -28 -48.5 -54t-8.5 -93v-16q0 -56 -11.5 -87t-28.5 -41.5t-50 -18.5q33 -8 50 -18.5t28.5 -41.5t11.5 -87
q0 -84 7 -105q10 -31 50 -58z" />
    <glyph glyph-name="braceright.allsmall" horiz-adv-x="262" 
d="M50 -91l-13 20q40 28 48.5 54t8.5 93v16q0 56 11.5 87t28.5 41.5t50 18.5q-33 8 -50 18.5t-28.5 41.5t-11.5 87q0 84 -7 105q-10 31 -50 58l13 20q39 -23 59 -41.5t33 -53.5t13 -89q0 -56 8.5 -84.5t20 -37t38.5 -18.5v-12q-27 -10 -38.5 -18.5t-20 -37t-8.5 -84.5
q0 -54 -13 -89t-33 -53.5t-59 -41.5z" />
    <glyph glyph-name="slash.allsmall" horiz-adv-x="279" 
d="M5 -1l234 493l35 -15l-234 -493z" />
    <glyph glyph-name="backslash.allsmall" horiz-adv-x="279" 
d="M273 -1l-35 -15l-234 493l35 15z" />
    <glyph glyph-name="bar.allsmall" horiz-adv-x="246" 
d="M101 -96v657h44v-657h-44z" />
    <glyph glyph-name="ampersand.allsmall" horiz-adv-x="544" 
d="M207 279q45 26 70 53t25 62q0 28 -16.5 44.5t-42.5 16.5q-35 0 -53 -21t-18 -51q0 -46 35 -104zM163 217q-39 -39 -39 -95q0 -44 30 -72.5t82 -28.5q47 0 80 23q-40 34 -102 107q-28 33 -51 66zM361 94q16 27 20 60q5 39 -9.5 55t-63.5 16v21h195v-21q-49 0 -64.5 -15.5
t-21.5 -57.5q-6 -45 -30 -83q49 -46 84 -46q31 0 56 31l16 -14q-37 -53 -88 -53q-61 0 -111 35q-48 -35 -114 -35q-85 0 -134 34.5t-49 97.5q0 41 25 70t71 57q-44 71 -44 125q0 52 41.5 85t102.5 33q51 0 87.5 -27.5t36.5 -67.5q0 -16 -6.5 -31t-15.5 -25.5t-26 -23
t-29 -19l-34.5 -19t-33.5 -19.5q15 -23 43 -56q65 -75 96 -107z" />
    <glyph glyph-name="numbersign.allsmall" horiz-adv-x="358" 
d="M81 176h-61l9 57h63l14 83h-63l11 58h62l17 102h35l-17 -102h90l17 102h36l-18 -102h63l-10 -58h-62l-15 -83h63l-10 -57h-62l-18 -104h-36l18 104h-90l-18 -104h-35zM216 233l15 83h-90l-14 -83h89z" />
    <glyph glyph-name="copyright.allsmall" horiz-adv-x="551" 
d="M528 238q0 -104 -73 -177t-177 -73t-177 73t-73 177t73 177t177 73t177 -73t73 -177zM498 238q0 91 -64.5 155.5t-155.5 64.5q-92 0 -156 -64t-64 -156q0 -91 64.5 -155.5t155.5 -64.5t155.5 64.5t64.5 155.5zM404 92h-16q-4 25 -12 33q-37 -44 -92 -44q-62 0 -107 46
t-45 111q0 64 45 110.5t107 46.5q55 0 92 -44q7 7 12 33h16v-117h-17q-20 97 -94 97q-47 0 -68.5 -36.5t-21.5 -89.5q0 -54 21.5 -90t68.5 -36q74 0 94 98h17v-118z" />
    </font>
</defs>
</svg>
